<svg width="539" height="539" viewBox="0 0 539 539" fill="none" xmlns="http://www.w3.org/2000/svg">
<path fill-rule="evenodd" clip-rule="evenodd" d="M260.613 242.724C257.752 242.724 255.136 240.723 254.361 238.108L241.156 188.968H236.382C233.648 188.968 231.27 186.796 231.27 184.073V174.235C231.27 171.511 233.486 169.34 236.219 169.34H253.565C252.63 171.021 252.333 172.995 252.333 175.052C252.333 181.529 257.604 186.78 264.106 186.78C268.3 186.78 272.063 184.596 274.147 181.306L280.919 169.188H321.415L328.066 181.164C330.135 184.532 333.861 186.78 338.116 186.78C344.617 186.78 349.889 181.53 349.889 175.052C349.889 172.994 349.729 171.022 348.794 169.34H366.002C368.737 169.34 370.952 171.512 370.952 174.235V184.073C370.952 186.797 368.573 188.968 365.839 188.968H361.066L347.861 238.108C347.086 240.723 344.469 242.724 341.609 242.724H260.613V242.724ZM339.654 200.79C342.388 200.79 344.603 202.997 344.603 205.721C344.603 208.445 342.387 210.652 339.617 210.652H262.606C259.835 210.652 257.619 208.444 257.619 205.721C257.619 202.998 259.835 200.79 262.569 200.79H339.654ZM334.315 220.837C337.049 220.837 339.265 223.045 339.265 225.768C339.265 228.492 337.049 230.7 334.278 230.7H267.944C265.173 230.7 262.957 228.492 262.957 225.768C262.957 223.045 265.173 220.837 267.908 220.837H334.315ZM342.424 172.641C343.809 175.032 342.998 178.048 340.629 179.409C338.262 180.771 335.234 179.962 333.868 177.604L306.625 130.402C305.258 128.043 306.067 125.024 308.435 123.662C310.802 122.3 313.83 123.108 315.196 125.467L342.424 172.641ZM259.798 172.641C258.413 175.032 259.224 178.048 261.592 179.409C263.959 180.771 266.987 179.962 268.354 177.604L295.596 130.674C296.964 128.316 296.155 125.296 293.787 123.934C291.419 122.572 288.392 123.381 287.025 125.74L259.798 172.641Z" fill="#DF457A"/>
<path fill-rule="evenodd" clip-rule="evenodd" d="M440.576 392.88C447.842 392.88 454.391 395.957 459.023 400.819C461.571 403.475 464.058 406.2 466.477 409.042C467.149 409.797 467.52 410.634 467.52 411.722C467.52 414.085 465.598 416 463.227 416C462.645 416 462.053 415.857 461.548 415.65C454.287 413.296 446.755 411.564 438.942 410.682C415.993 408.356 394.229 402.576 373.847 393.905C368.509 391.654 363.386 389.263 358.266 386.604C357.477 386.229 356.78 385.582 356.348 384.83C339.903 357.749 311.861 338.301 279.184 333.281C263.725 330.734 248.888 326.75 234.993 320.602C216.362 312.375 195.727 307.289 174.445 305.689C144.756 303.345 116.862 294.169 92.8448 279.406C69.6964 265.565 52.8921 242.467 48 215.013C58.2121 235.653 75.6879 252.085 97.1525 260.896C118.544 269.617 141.887 274.431 166.43 274.431C196.711 274.431 225.33 267.089 250.493 254.132C265.39 246.93 281.978 242.615 299.648 242.615C328.321 242.615 354.426 253.328 374.356 270.852C375.761 272.087 377.564 272.912 379.521 273.137C387.225 274.115 394.69 276.569 401.185 280.187C401.79 280.586 402.554 280.657 403.335 280.657C405.451 280.657 407.167 278.949 407.167 276.84C407.167 276.446 407.159 276.067 407.048 275.709C406.584 274.115 406.294 272.436 406.294 270.694C406.294 268.259 406.79 265.833 407.67 263.715C407.729 263.586 407.799 263.459 407.799 263.309C407.799 262.744 407.339 262.286 406.772 262.286C406.673 262.286 406.557 262.309 406.466 262.335C405.474 262.504 404.427 262.591 403.385 262.591C398.819 262.591 394.549 260.909 391.37 258.122C385.995 253.223 382.131 246.866 380.325 239.591C386.462 239.04 392.652 238.758 398.933 238.758C408.721 238.758 418.307 239.436 427.729 240.759C428.808 240.887 429.766 241.32 430.566 241.97C431.413 242.745 432.673 243.366 433.87 243.507C442.266 244.524 450.435 246.002 458.486 247.999C459.899 248.316 461.144 249.168 461.926 250.33C462.629 251.35 463.641 252.073 464.848 252.451C473.889 255.261 482.664 258.708 491.12 262.684C491.654 262.922 492 263.456 492 264.076C492 264.262 491.967 264.439 491.907 264.604C487.852 273.199 480.736 280.143 471.826 283.659C468.6 280.642 464.258 278.796 459.484 278.796C457.007 278.796 454.704 279.19 452.555 280.089C452.921 281.659 453.088 283.296 453.088 284.976C453.088 290.106 451.29 294.817 448.288 298.519C437.868 311.692 421.875 320.548 403.948 321.337C408.104 321.337 411.448 324.694 411.448 328.835C411.448 329.892 411.229 330.899 410.832 331.811C408.654 336.889 406.049 341.828 403.175 346.489C401.842 348.592 399.463 349.989 396.781 349.989C395.794 349.989 394.852 349.8 393.989 349.456C389.956 347.751 385.95 345.775 382.173 343.633C380.328 342.594 378.943 340.554 378.943 338.292C378.943 334.95 381.664 332.239 385.021 332.239C385.538 332.239 386.041 332.303 386.521 332.424C379.189 330.622 372.288 327.393 366.28 323.151C363.818 321.307 360.752 320.221 357.435 320.221C349.301 320.221 342.706 326.791 342.706 334.895C342.706 337.794 343.431 340.621 344.887 342.897C364.415 372.99 398.392 392.909 437.039 392.909C438.199 392.909 439.415 392.916 440.576 392.88ZM451.366 258.515C451.366 256.977 452.617 255.73 454.161 255.73C455.706 255.73 456.957 256.977 456.957 258.515C456.957 260.053 455.706 261.3 454.161 261.3C452.617 261.3 451.366 260.053 451.366 258.515Z" fill="#009BA2"/>
</svg>
