<svg width="916" height="611" viewBox="0 0 916 611" fill="none" xmlns="http://www.w3.org/2000/svg">
<path d="M745.422 315.72C747.764 308.014 747.04 301.095 744.448 295.392C749.51 282.64 743.811 265.246 741.203 252.459C738.116 237.323 735.842 222.675 731.239 207.841C723.269 182.155 707.543 155.238 683.62 141.499C671.266 134.404 657.92 127.961 643.273 128.249C639.861 128.316 637.964 129.598 634.923 130.137C631.803 130.69 629.386 129.606 626.315 129.454C619.033 129.096 615.999 132.802 609.804 134.726C603.255 136.76 598.363 135.679 592.115 139.869C586.459 143.663 580.922 144.331 574.853 147.266C561.82 153.567 551.621 163.822 539.226 171.032C538.079 172.686 535.739 175.245 532.334 178.787C525.603 184.013 518.21 188.364 511.467 193.88C505.029 199.145 498.681 204.282 491.605 208.67C476.762 217.876 463.01 228.495 448.797 238.641C433.928 249.255 420.553 259.822 404.36 268.573C396.923 272.592 389.751 275.532 381.421 277.272C376.6 278.278 371.689 279.061 366.829 279.853C364.292 280.267 358.24 279.884 356.109 281.471L356.833 285.881L356.572 285.91L356.103 281.41C341.571 281.478 327.01 284.133 312.525 285.206C302.382 285.957 285.383 286.528 278.09 294.945C267.254 293.984 263.04 300.231 255.157 305.478C247.087 310.848 241.28 313.112 237.739 323.096C218.46 333.258 218.259 368.026 221.26 386.084C223.206 397.793 228.291 409.505 232.63 420.521C236.086 429.297 242.293 444.408 251.738 448.159C254.198 457.424 260.349 463.831 268.495 465.992C271.766 473.505 281.35 479.845 289.632 479.017C288.776 480.471 295.846 483.919 296.686 484.361C306.424 487.739 316.451 490.543 326.821 490.714C336.29 490.869 344.967 493.83 354.356 491.06C354.296 491.129 377.715 494.344 380.304 494.42C385.903 494.583 391.177 493.979 396.706 493.44C401.871 492.936 406.653 494.857 411.85 494.662C415.791 494.515 419.365 492.479 423.222 492.444C427.784 492.403 432.04 494.991 437.056 494.269C442.195 493.531 445.404 492.584 450.688 493.309C457.012 494.176 463.055 494.372 469.431 494.259C480.568 494.062 492.222 494.586 503.279 493.684C513.669 492.836 523.785 493.861 534.307 493.143C545.212 492.399 555.792 490.379 566.636 489.438C572.661 488.915 595.849 486.579 598.667 480.209C601.392 477.763 605.638 478.97 608.901 478.359C613.753 477.453 616.767 474.607 621.07 472.569C629.111 468.76 636.316 468.851 643.239 462.19C643.09 462.556 648.45 461.189 649.014 460.988C653.143 459.515 656.205 457.241 659.68 454.684C663.362 451.975 666.785 450.585 670.75 448.476C675.074 446.175 677.341 442.729 681.024 439.712C691.326 431.273 713.138 420.683 713.918 404.952C721.89 400.32 726.152 393.47 726.967 384.065C733.809 377.617 736.295 370.223 736.159 360.943C737.519 362.579 742.77 345.054 742.713 345.301C743.799 340.56 744.763 335.765 745.24 330.92C745.713 326.118 744.006 320.243 745.422 315.72ZM427.974 199.975C426.807 193.205 424.622 168.782 415.637 166.934C415.81 163.095 413.91 160.578 410.553 159.857C410.545 156.618 407.639 153.454 404.322 153.58C404.657 153.254 404.252 152.18 402.84 150.551C398.381 147.069 389.042 141.149 383.075 143.14C383.358 142.767 382.142 142.055 379.368 141.308C366.698 139.866 353.55 142.536 341.395 144.753C334.793 145.956 329.055 147.56 322.593 147.888C314.39 148.306 305.849 147.691 297.743 148.746C297.024 148.964 296.609 149.182 296.502 149.4C296.129 149.692 288.155 149.601 286.914 149.648C283.696 149.769 282.464 148.478 279.472 150.83C279.793 150.07 267.136 153.29 266.2 153.612C261.908 155.085 250.312 160.404 250.826 166.164C247.206 167.022 245.353 169.44 245.476 173.206C242.101 174.805 241.034 177.58 241.446 181.157C240.236 181.369 239.431 182.144 239.032 183.483C237.334 188.141 233.069 199.227 235.675 204.077C229.83 210.148 235.255 227.748 237.882 234.102C242.542 245.369 250.721 252.56 261.856 257.209C270.309 260.739 278.619 262.264 287.047 262.397C290.51 262.452 294.646 263.537 298.324 263.784C303.728 264.147 309.194 262.481 314.513 263.016C315.655 262.384 316.841 261.853 318.074 261.422C342.799 258.319 365.423 247.971 385.702 232.986C385.81 232.868 385.985 232.704 386.225 232.497L384.761 230.336L384.762 230.335L384.834 230.286L386.39 232.425C387.316 232.81 396.805 227.359 398.293 227.049C402.161 226.244 409.454 228.014 412.147 224.283C417.75 227.192 426.577 218.241 425.423 212.783C428.718 210.417 428.61 203.477 427.974 199.975Z" fill="#F0CF0C"/>
<path d="M339.941 160.643C336.792 160.025 333.483 158.194 330.303 158.617C330.152 158.685 330.061 158.76 330.03 158.842C329.85 159.062 327.224 158.129 326.655 158.705C326.712 158.545 326.457 158.379 325.896 158.225C324.92 158.193 320.582 158.167 320.272 159.198C319.578 158.43 319.034 158.503 318.572 159.41C317.815 158.722 317.384 158.809 316.874 159.748C316.87 159.56 316.639 159.422 316.177 159.34C315.398 159.529 312.663 160.063 312.39 160.897C311.366 160.131 309.098 161.647 308.219 162.098L308.227 162.154C309.757 165.802 311.607 169.598 313.685 172.96C314.78 174.731 317.197 177.447 317.378 180.045C317.564 180.097 317.797 180.242 318.074 180.478C318.696 181.978 322.944 193.614 324.438 193.635L325.337 193.149L325.358 193.157L326.328 193.559L326.358 193.518C326.826 192.492 328.84 189.347 327.875 188.243C328.78 188.075 329.558 185.832 329.215 185.118C330.605 184.913 333.59 177.564 332.701 176.572C333.715 176.332 333.915 175.822 333.35 175.024C334.361 174.873 334.537 174.103 333.987 173.449C334.159 173.528 334.406 173.421 334.726 173.132C335.062 172.349 336.24 170.057 335.837 169.271C335.977 169.372 336.227 169.203 336.577 168.771C337.849 165.67 338.638 163.806 339.925 160.718C339.925 160.718 339.941 160.643 339.941 160.643Z" fill="white"/>
<path d="M369.656 199.274C369.643 198.988 369.43 198.503 369.247 198.254C368.993 197.988 368.898 193.807 368.691 192.904C368.235 190.913 367.807 187.36 366.416 185.474C366.255 185.356 366.122 185.304 366.018 185.319C365.694 185.261 365.151 181.986 364.202 181.723C364.396 181.69 364.425 181.323 364.263 180.643C363.659 179.608 361.152 175.122 359.841 175.461C360.186 174.285 359.803 173.741 358.575 173.859C358.785 172.671 358.424 172.283 357.172 172.345C357.361 172.22 357.353 171.901 357.129 171.394C356.426 170.752 354.159 168.317 353.136 168.585C353.25 166.267 346.892 164.141 345.208 162.939C343.383 165.964 342.257 170.117 341.247 173.264C340.681 175.028 339.37 179.614 337.667 181.269C337.762 181.478 337.809 181.801 337.807 182.234C336.886 184.025 329.676 196.807 330.751 198.109L331.891 198.557L331.89 198.579V198.579L331.844 199.828L331.901 199.846C333.236 199.942 337.57 200.889 338.398 199.355C338.959 200.295 341.778 200.236 342.43 199.558C343.119 200.815 352.713 201.184 353.381 199.912C354.067 200.944 354.717 200.957 355.371 199.996C355.958 201.062 356.888 200.939 357.387 200.055C357.371 200.28 357.592 200.512 358.046 200.749C359.056 200.8 362.093 201.166 362.801 200.392C362.747 200.589 363.039 200.799 363.664 201.011C362.135 200.958 366.893 200.978 366.701 200.774C367.002 201.23 368.902 201.434 369.059 200.723C369.151 200.562 369.03 200.389 369.272 200.402C369.596 200.345 369.683 199.859 369.656 199.274Z" fill="#DF457A"/>
<path d="M319.814 200.187C319.629 199.964 319.391 199.719 319.162 199.582C318.965 199.505 318.73 199.437 318.447 199.372C318.755 199.296 318.814 198.742 318.623 197.736C317.825 196.2 316.886 195.167 315.993 193.819C315.627 193.268 314.72 192.232 314.358 191.64C314.577 191.076 314.638 190.484 314.54 189.862C314.138 189.62 313.74 189.37 313.348 189.113C313.024 188.243 312.89 186.857 312.453 185.698C312.037 184.595 311.132 183.352 310.582 182.277C310.122 181.379 309.697 180.412 309.189 179.531C307.724 176.985 306.712 173.762 304.797 171.59C304.542 171.433 304.334 171.372 304.177 171.408C303.467 171.343 302.822 166.477 301.235 166.038C301.539 165.988 301.583 165.435 301.364 164.412C301.053 163.786 297.388 158.524 297.708 158.213C296.176 158.659 292.078 160.903 292.566 162.973C290.717 162.365 289.942 163.077 290.068 164.927C288.188 164.554 287.622 165.188 287.742 167.133C287.556 166.853 287.038 166.85 286.248 167.208C285.106 168.481 281.607 172.014 282.129 173.607C279.08 173.613 276.514 181.738 275.71 184.007C274.348 187.856 273.113 191.667 272.663 195.782C272.314 198.981 272.794 201.082 272.999 203.793C273.101 205.15 272.568 206.591 272.751 207.975C272.965 209.583 273.93 212.294 273.676 213.858C273.989 214.043 274.342 214.417 274.739 214.969C275.657 219.393 276.708 223.644 279.294 227.782C280.132 229.121 286.553 239.328 288.218 238.801L289.497 237.39L289.522 237.41L291.025 238.625L291.099 238.57C292.449 237.014 297.538 232.267 296.521 230.058C298.202 230.233 300.744 226.683 300.511 225.245C302.639 225.548 312.074 214.028 311.108 211.993C313.021 212.098 313.64 211.304 313.058 209.601C314.921 209.863 315.631 208.596 315.001 207.156C315.264 207.384 315.756 207.326 316.47 206.983C317.448 205.805 318.317 205.162 318.891 203.792C319.208 202.81 319.784 202.475 320.582 201.811C320.453 201.21 320.195 200.653 319.814 200.187Z" fill="#3E8AF8"/>
<path d="M369.566 205.337C368.093 205.326 366.867 205.868 365.637 205.989C365.086 206.043 364.691 205.162 364.094 205.134C363.626 205.112 362.936 205.883 362.544 205.882C361.58 205.88 360.168 205.347 359.233 205.272C357.729 205.152 354.977 205.453 353.646 204.817C353.418 205.045 353.018 205.264 352.449 205.473C348.668 205.017 344.596 204.366 340.566 204.313C339.217 204.295 328.691 203.091 328.201 203.936L328.169 205.663L328.139 205.661L326.779 204.562L326.712 204.612C325.49 206.02 320.886 210.315 321.806 212.314C320.284 212.155 317.984 215.368 318.196 216.669C316.27 216.395 307.732 226.819 308.607 228.661C306.876 228.565 306.315 229.284 306.842 230.825C305.156 230.588 304.514 231.734 305.083 233.037C304.845 232.831 304.4 232.884 303.755 233.194C303.018 234.082 302.204 234.892 301.479 235.796C300.096 236.737 304.814 239.807 306.221 239.31C306.029 239.512 306.253 239.991 306.958 240.643C309.359 241.888 311.557 242.243 313.794 242.802C316.055 243.366 317.898 244.814 320.874 244.923C324.86 245.069 329.893 246.24 334.002 244.595C334.217 244.422 334.329 244.263 334.341 244.118C334.096 244.691 337.3 243.538 337.272 243.545C338.642 243.181 338.929 244.428 339.801 242.569C339.799 242.85 340.293 242.964 341.279 242.891C342.76 242.388 349.663 239.623 349.371 237.728C350.959 238.367 351.752 237.829 351.786 236.167C353.416 236.586 354 236.081 354.025 234.315C354.178 234.585 354.634 234.611 355.393 234.364C356.413 233.325 359.902 230.394 359.512 228.828C362.883 229.061 366.23 219.171 367.135 216.639C368.363 213.198 369.271 209.23 369.641 205.542C369.632 205.46 369.727 205.292 369.566 205.337Z" fill="#382D16"/>
<path d="M404.356 179.513C404.273 179.218 403.328 178.583 403.119 178.514C402.584 178.251 401.861 178.392 401.684 179.064C401.387 178.326 400.903 178.321 400.661 179.121C399.932 178.448 399.759 179.9 399.823 180.347C399.754 180.212 399.607 180.252 399.385 180.466C398.996 181.345 398.077 182.792 398.239 183.744C397.541 183.628 395.663 188.504 395.324 189.33C395.048 190.004 392.891 195.235 392.996 195.254C392.349 195.269 392.682 196.01 392.533 196.397C392.487 196.516 392.106 196.906 391.989 197.098L391.957 197.712C391.905 197.827 391.532 197.96 391.429 198.121C391.03 198.741 390.985 199.798 390.466 200.289C390.484 200.469 390.464 200.732 390.406 201.077C390.21 201.454 389.802 201.707 389.587 202.198C389.371 202.688 389.187 203.188 388.97 203.67C388.512 204.682 387.953 205.683 387.534 206.715C386.876 208.335 384.826 211.232 385.837 213.077L385.969 213.244L386.338 212.504L386.355 212.52C386.235 212.778 386.109 213.029 385.993 213.294C385.969 213.777 389.435 214.433 389.548 212.974C390.23 213.331 390.949 211.098 390.878 210.455C391.556 210.595 392.412 208.007 392.699 207.372C393.126 206.429 394.293 204.542 393.981 203.49C394.561 203.521 394.743 203.104 394.553 202.233C395.119 202.345 395.324 201.682 395.123 200.947C395.203 201.062 395.352 201.026 395.566 200.839C395.991 199.921 396.851 198.609 396.72 197.576C396.78 197.702 396.939 197.609 397.19 197.3C397.498 196.613 397.663 195.899 397.872 195.246C397.927 195.075 398.202 195.095 398.272 194.854C398.354 194.572 398.211 194.215 398.309 193.971C398.336 193.904 398.631 193.959 398.654 193.884C398.705 193.716 398.792 193.275 398.855 193.154C399.067 192.748 399.314 192.455 399.597 191.966C399.894 191.455 400.185 190.707 400.387 190.154L400.464 189.426L400.854 189.037C401.144 188.428 401.303 187.702 401.573 187.12C401.921 186.375 402.347 185.978 402.568 185.107C402.578 184.954 402.568 184.844 402.537 184.779C402.499 184.603 402.516 184.567 402.624 184.569C403.29 184.499 402.922 183.891 403.109 183.472C403.37 182.886 403.72 183.189 403.622 182.241C403.676 182.37 403.834 182.269 404.085 181.943C404.32 181.433 404.502 180.028 404.356 179.513ZM415.096 206.206C415.131 206.121 414.955 200.386 413.851 200.627C414.593 199.788 413.847 199.981 413.577 199.574C413.337 199.213 413.953 198.617 412.922 198.986C413.596 197.582 409.304 195.4 408.832 196.864C408.62 195.933 408.295 195.92 408.023 196.79C407.793 195.849 407.363 195.991 407.206 196.809C407.202 196.608 407.103 196.412 406.894 196.228C406.266 196.256 406.174 196.32 405.635 196.622C405.242 196.841 405.107 196.067 404.984 197.098C404.958 196.92 404.792 196.789 404.471 196.742C404.162 196.884 403.865 197.08 403.583 197.252C403.434 197.343 403.592 197.661 403.498 197.75C403.376 197.864 403.09 197.449 402.905 197.677C402.762 197.855 402.974 198.379 402.893 198.433C402.755 198.527 402.479 198.179 402.245 198.343C402.142 198.415 402.33 199.092 402.265 199.079C401.472 198.963 401.252 199.637 401.085 200.428C401.073 200.484 400.904 201.15 400.92 201.108C401.092 200.685 400.504 202.416 400.71 201.509C400.616 201.922 400.495 202.442 400.438 202.854C400.379 203.294 400.157 204.031 400.364 204.599C400.439 204.679 400.516 204.725 400.595 204.74C400.898 204.866 400.282 205.027 400.253 205.124C400.146 205.479 400.496 205.428 400.584 205.678C400.759 206.173 399.526 205.965 400.638 206.539C400.489 206.513 400.348 206.653 400.221 206.96C400.325 207.126 400.452 207.263 400.604 207.371C400.559 207.505 400.477 207.601 400.357 207.659C400.343 207.585 400.55 208.376 400.573 208.141C400.513 208.773 399.98 210.094 401.139 210.003C400.467 210.591 400.599 210.981 401.405 210.928C400.87 211.619 401.022 211.931 401.84 211.782C401.688 211.876 401.602 212.076 401.606 212.406C402.017 213.021 402.818 214.174 403.421 213.69C403.149 215.028 406.18 215.546 406.955 215.608C407.728 215.671 408.499 215.428 409.247 215.288C409.578 215.226 409.904 215.384 410.231 215.186C410.447 215.056 410.731 214.383 410.689 214.398C410.85 214.342 411.014 214.882 411.284 214.741C411.496 214.631 411.365 214.007 411.45 213.985C411.644 213.934 411.775 214.348 412.066 214.225C412.184 214.175 412.084 213.473 412.173 213.504C413.321 213.876 413.049 212.529 413.873 212.21C413.809 212.058 413.768 211.85 413.752 211.606C413.979 211.273 414.308 211.358 414.559 210.815C414.685 210.542 414.855 209.751 414.902 209.435C414.977 208.944 414.995 208.384 415.015 207.888C415.034 207.421 414.909 206.634 415.096 206.206ZM411.197 206.446C411.08 206.602 410.96 206.663 410.849 206.638C411.057 206.656 411.158 206.76 411.15 206.951C411.043 206.986 410.941 207.035 410.845 207.099C410.95 207.175 411.039 207.27 411.115 207.386C411.088 207.485 410.572 207.481 410.788 207.593C410.845 207.613 410.9 207.65 410.95 207.705C411.028 207.918 410.835 208.539 410.793 208.738C410.649 209.188 410.683 209.247 410.302 209.274C410.421 209.268 410.347 210.637 409.599 210.393C409.61 210.396 409.723 210.844 409.698 210.865C409.545 211.003 409.369 210.673 409.274 210.737C409.227 210.769 409.483 211.118 409.333 211.219C409.255 211.271 409.003 211.115 408.978 211.142C408.566 211.58 409.612 211.258 408.441 211.794C408.234 211.723 408.139 211.608 408.125 211.471C408.026 212.398 407.802 211.487 407.676 211.733C407.554 211.924 407.404 211.953 407.266 211.928L406.881 211.744C406.805 211.548 406.807 211.382 406.86 211.241C406.556 211.777 406.226 211.691 406.446 211.002C406.007 211.478 405.816 211.313 406.097 210.681C405.456 211.251 404.184 208.856 404.873 208.407C404.693 208.446 404.533 208.407 404.393 208.291C404.459 208.167 404.541 208.061 404.64 207.97C404.49 207.965 404.38 207.887 404.31 207.739L404.697 207.458C404.042 207.469 404.255 204.292 404.425 203.586C404.506 203.251 404.612 202.96 404.742 202.64C404.789 202.526 404.803 202.158 404.896 202.064C405.031 201.926 405.305 201.923 405.377 201.845C405.346 201.696 405.302 201.568 405.241 201.467C405.766 201.381 405.432 200.465 406.205 200.846C406.207 200.847 406.169 200.369 406.199 200.354C406.397 200.258 406.467 200.609 406.599 200.584C406.628 200.578 406.523 200.164 406.672 200.087C406.858 199.99 406.907 200.385 407.029 200.366C407.172 200.344 407.098 199.48 407.715 199.838C407.995 200.041 408.456 200.027 408.772 200.181C409.201 200.39 409.261 200.539 409.576 200.89C409.899 201.25 410.88 202.087 410.276 202.614C410.449 202.526 410.592 202.552 410.705 202.693C410.716 203.035 410.805 203.152 410.933 203.607C410.84 203.768 410.72 203.858 410.592 203.883C411.186 203.921 411.225 204.069 410.686 204.36C411.274 204.413 411.301 204.595 410.716 204.841C411.434 204.87 411.052 205.188 411.084 205.579C411.076 205.485 411.171 206.175 411.219 205.973L410.923 206.204C411.03 206.263 411.121 206.344 411.197 206.446ZM391.346 185.261C391.381 185.175 391.205 179.44 390.1 179.681C390.843 178.842 390.096 179.035 389.826 178.628C389.587 178.267 390.202 177.671 389.171 178.041C389.846 176.636 385.553 174.454 385.081 175.919C384.87 174.987 384.545 174.974 384.273 175.844C384.042 174.903 383.612 175.045 383.456 175.863C383.452 175.662 383.352 175.466 383.144 175.282C382.516 175.31 382.424 175.374 381.884 175.676C381.492 175.895 381.356 175.121 381.234 176.152C381.207 175.974 381.041 175.843 380.721 175.797C380.411 175.938 380.115 176.134 379.834 176.306C379.684 176.397 379.842 176.715 379.748 176.804C379.626 176.919 379.34 176.503 379.155 176.732C379.012 176.909 379.224 177.433 379.144 177.487C379.005 177.581 378.729 177.233 378.495 177.397C378.392 177.469 378.58 178.146 378.515 178.133C377.722 178.017 377.502 178.691 377.335 179.482C377.323 179.538 377.154 180.204 377.17 180.162C377.342 179.739 376.754 181.47 376.96 180.563C376.866 180.976 376.745 181.496 376.689 181.908C376.629 182.348 376.407 183.085 376.614 183.653C376.689 183.733 376.767 183.779 376.845 183.794C377.148 183.92 376.532 184.081 376.503 184.178C376.397 184.533 376.746 184.482 376.834 184.732C377.009 185.227 375.776 185.019 376.888 185.593C376.739 185.567 376.598 185.707 376.471 186.014C376.575 186.18 376.702 186.318 376.854 186.425C376.809 186.559 376.727 186.655 376.607 186.713C376.594 186.64 376.8 187.43 376.823 187.195C376.764 187.827 376.23 189.148 377.39 189.058C376.717 189.645 376.849 190.035 377.656 189.982C377.12 190.673 377.273 190.985 378.09 190.836C377.938 190.93 377.852 191.13 377.856 191.46C378.268 192.075 379.068 193.229 379.671 192.744C379.4 194.082 382.43 194.6 383.205 194.662C383.978 194.725 384.749 194.482 385.497 194.343C385.828 194.28 386.154 194.438 386.481 194.24C386.697 194.11 386.981 193.437 386.939 193.452C387.101 193.396 387.264 193.936 387.535 193.795C387.747 193.685 387.615 193.061 387.701 193.039C387.895 192.988 388.026 193.402 388.316 193.279C388.434 193.229 388.334 192.527 388.424 192.558C389.571 192.93 389.3 191.583 390.123 191.264C390.06 191.112 390.018 190.904 390.003 190.66C390.229 190.327 390.559 190.412 390.81 189.869C390.936 189.596 391.105 188.805 391.153 188.489C391.227 187.998 391.246 187.438 391.265 186.942C391.284 186.475 391.159 185.688 391.346 185.261ZM387.447 185.5C387.33 185.656 387.21 185.718 387.099 185.692C387.308 185.71 387.408 185.814 387.401 186.005C387.293 186.04 387.192 186.089 387.096 186.153C387.2 186.229 387.29 186.324 387.365 186.44C387.338 186.539 386.822 186.535 387.038 186.647C387.096 186.667 387.15 186.704 387.2 186.759C387.278 186.972 387.085 187.593 387.043 187.792C386.9 188.242 386.933 188.301 386.553 188.328C386.671 188.323 386.597 189.691 385.85 189.447C385.86 189.45 385.973 189.898 385.949 189.919C385.795 190.057 385.62 189.728 385.525 189.791C385.477 189.823 385.734 190.172 385.583 190.273C385.505 190.325 385.253 190.169 385.228 190.196C384.816 190.634 385.863 190.312 384.691 190.848C384.484 190.777 384.389 190.662 384.375 190.525C384.276 191.452 384.052 190.541 383.926 190.787C383.804 190.978 383.654 191.007 383.517 190.982L383.131 190.798C383.055 190.602 383.057 190.436 383.11 190.295C382.806 190.831 382.476 190.745 382.696 190.056C382.257 190.532 382.066 190.367 382.347 189.735C381.706 190.305 380.434 187.91 381.123 187.461C380.943 187.5 380.783 187.461 380.643 187.345C380.709 187.221 380.791 187.115 380.89 187.024C380.74 187.019 380.63 186.941 380.56 186.793L380.947 186.512C380.292 186.523 380.505 183.346 380.675 182.64C380.756 182.305 380.862 182.014 380.992 181.695C381.039 181.58 381.054 181.212 381.146 181.118C381.281 180.98 381.555 180.977 381.627 180.899C381.597 180.75 381.553 180.622 381.491 180.521C382.016 180.435 381.682 179.519 382.455 179.9C382.457 179.901 382.419 179.423 382.449 179.408C382.647 179.312 382.718 179.663 382.849 179.638C382.879 179.633 382.773 179.218 382.922 179.141C383.108 179.044 383.158 179.439 383.279 179.42C383.422 179.398 383.349 178.534 383.965 178.892C384.246 179.095 384.706 179.081 385.022 179.235C385.451 179.444 385.511 179.593 385.826 179.944C386.149 180.304 387.13 181.141 386.526 181.668C386.699 181.58 386.842 181.606 386.955 181.747C386.967 182.089 387.055 182.206 387.184 182.661C387.09 182.822 386.97 182.912 386.843 182.937C387.436 182.975 387.475 183.123 386.936 183.414C387.525 183.467 387.551 183.649 386.966 183.895C387.685 183.924 387.303 184.242 387.334 184.633C387.326 184.539 387.422 185.229 387.469 185.027L387.174 185.258C387.279 185.317 387.37 185.398 387.447 185.5Z" fill="white"/>
<path d="M351.051 360.347L350.866 364.036C345.184 364.368 339.577 361.323 335.982 357.074C334.067 354.811 332.292 352.488 330.79 349.928C329.258 347.315 327.497 344.738 325.604 342.372C324.661 341.195 323.565 340.203 322.326 339.346C321.019 338.441 319.559 337.871 318.089 337.295C317.063 337.325 316.037 337.396 315.011 337.352C313.994 337.308 313.016 337.65 312.057 337.982C311.114 338.309 310.186 338.705 309.306 339.179C308.476 339.626 307.73 340.221 306.822 340.515C305.519 342.021 304.731 342.762 303.279 343.746C302.37 345.266 301.457 346.339 300.104 347.407C299.689 348.688 298.656 349.764 297.868 350.84C297.232 351.709 296.613 352.598 295.945 353.444C295.311 354.246 294.588 354.936 294.076 355.825C293.57 356.703 292.968 357.419 292.237 358.115C291.637 358.687 291.201 359.349 290.683 359.99C289.969 360.871 289.052 361.621 288.016 362.087C286.853 363.195 285.456 363.725 283.858 363.664C283.928 362.539 283.956 361.414 283.945 360.292C284.618 360.144 285.323 359.969 285.937 359.646C286.742 359.223 287.435 358.345 288.055 357.692C288.781 356.928 289.487 356.143 290.159 355.331C290.758 354.607 291.299 353.903 292.05 353.329C292.599 351.791 293.762 350.341 294.996 349.296C295.684 347.708 296.628 346.439 298.048 345.29C298.433 344.301 299.18 343.452 299.876 342.671C300.74 341.701 301.62 340.734 302.591 339.87C304.429 338.233 306.462 336.605 308.685 335.528C312.752 333.557 319.157 332.734 322.875 335.864C323.727 336.189 324.555 336.61 325.279 337.167C325.956 337.688 326.413 338.354 326.968 338.991C327.543 339.651 328.267 340.157 328.828 340.828C329.457 341.581 329.953 342.46 330.319 343.369C331.147 344.005 331.748 344.96 332.295 345.833C332.976 346.918 333.694 347.981 334.354 349.079C335.571 351.102 336.974 352.95 338.522 354.732C340.076 356.522 341.921 357.965 344.05 359.019C346.267 360.119 348.622 360.246 351.051 360.347Z" fill="white"/>
<path d="M367.174 376.806C366.141 376.276 365.184 375.623 364.165 375.073C363.234 374.571 361.801 373.272 360.75 373.319C360.406 372.833 359.993 372.592 359.429 372.533C359.153 372.113 358.627 371.732 358.104 371.737C357.662 370.963 355.752 369.84 354.893 369.543L353.818 371.319C354.104 371.617 354.41 371.753 354.8 371.853C355.312 372.601 356.514 372.948 357.245 373.427C357.886 373.846 358.905 374.911 359.745 374.829C360.081 375.306 360.475 375.542 361.073 375.618L361.097 375.645C352.878 375.747 344.664 375.849 336.444 375.788C332.488 375.758 328.536 375.824 324.58 375.762C320.738 375.702 316.607 375.372 312.804 376.004C309.797 375.657 306.901 375.963 303.901 375.927C301.066 375.894 298.34 375.761 295.499 376.017C290.435 375.372 285.181 375.857 280.088 375.869C280.303 371.335 280.03 366.787 280.054 362.253C280.081 357.266 280.656 351.949 279.873 347.006C280.22 343.982 280.225 341.313 279.902 338.411C280.258 335.592 280.358 332.596 279.943 329.773C280.832 323.693 280.149 317.341 280.373 311.214C281.85 313.602 282.588 316.799 284.382 318.959L286.427 317.943C285.855 316.803 285.142 315.432 284.396 314.396C283.889 313.257 282.987 310.476 281.897 309.878C281.848 308.927 280.83 307.368 280.186 306.635C279.972 305.759 279.494 304.971 279.08 304.179C278.337 305.47 277.607 306.77 276.869 308.063C276.308 309.047 274.789 310.865 274.838 311.986C274.353 312.331 274.113 312.744 274.054 313.31C273.634 313.585 273.253 314.112 273.258 314.636C272.486 315.078 271.364 316.991 271.067 317.851L272.842 318.927C273.139 318.642 273.275 318.334 273.374 317.945C274.121 317.433 274.467 316.228 274.946 315.496C275.365 314.854 276.428 313.834 276.346 312.993C276.823 312.656 277.058 312.262 277.134 311.663L277.368 311.455C277.389 312.243 277.434 313.08 277.503 314.076C277.115 317.301 277.506 320.512 277.299 323.736C277.08 327.148 277.204 330.622 277.145 334.046C277.077 338.019 276.653 342.434 277.348 346.339C277.005 349.298 276.994 351.862 277.318 354.975C276.999 358.058 276.994 360.118 277.323 363.733C276.541 368.594 277.083 373.905 277.139 378.82C280.91 378.743 284.708 379.03 288.464 378.622C294.473 379.333 300.7 378.674 306.74 378.752C312.941 378.833 319.139 378.728 325.34 378.801C337.388 378.942 349.451 378.885 361.501 378.873C359.13 380.381 355.948 381.076 353.787 382.876L354.802 384.923C355.94 384.35 357.308 383.636 358.344 382.89C359.482 382.38 362.258 381.481 362.856 380.387C363.806 380.339 365.362 379.318 366.094 378.674C366.97 378.46 367.757 377.981 368.547 377.567C368.094 377.306 367.633 377.045 367.174 376.806Z" fill="white"/>
<path d="M364.222 377.497L364.224 377.483L364.326 377.495L364.222 377.497Z" fill="white"/>
<path d="M305.15 347.775L306.153 348.259C305.536 350.281 304.461 352.257 303.625 354.199C302.797 356.121 302.15 358.722 300.914 360.402C300.72 361.414 299.976 363.393 299.331 364.137C299.19 364.763 299.048 365.094 298.734 365.545C298.626 366.09 298.447 366.5 298.134 366.929C298.086 367.737 297.47 368.6 297.154 369.329C296.774 370.205 296.45 371.323 295.88 372.092C295.797 372.453 295.659 372.789 295.465 373.101L294.552 372.661C294.887 371.606 295.473 370.083 296.168 369.235C296.225 368.747 296.478 368.24 296.771 367.853C296.866 367.342 297.05 366.914 297.368 366.476C297.483 365.269 298.419 363.773 298.893 362.649C299.397 361.455 299.779 359.937 300.559 358.914C300.751 358.072 301.236 356.819 301.739 356.127C301.858 354.674 303.026 352.946 303.59 351.617C304.131 350.346 304.598 349.041 305.15 347.775Z" fill="white"/>
<path d="M315.588 341.296L316.812 341.886C316.086 344.263 314.807 346.574 313.839 348.865C313.341 350.045 312.831 351.221 312.33 352.4C311.751 353.761 311.303 355.498 310.421 356.698C310.174 357.995 309.344 360.268 308.491 361.253C308.318 362.016 308.145 362.419 307.762 362.97C307.63 363.635 307.412 364.136 307.031 364.658C306.974 365.622 306.221 366.717 305.836 367.585C305.359 368.659 304.986 370.006 304.281 370.955C304.163 371.396 304.015 371.792 303.776 372.185L302.664 371.649C303.075 370.348 303.77 368.525 304.634 367.471C304.703 366.875 305.012 366.256 305.37 365.785C305.486 365.162 305.71 364.64 306.098 364.105C306.24 362.619 307.39 360.794 307.959 359.438C308.561 358.004 309.041 356.126 309.989 354.882C310.235 353.803 310.776 352.38 311.428 351.484C311.577 349.676 313.014 347.555 313.727 345.894C314.378 344.375 314.928 342.81 315.588 341.296Z" fill="white"/>
<path d="M321.224 350.315L322.084 350.729C321.554 352.461 320.635 354.153 319.918 355.817C319.209 357.463 318.655 359.69 317.597 361.131C317.432 361.998 316.794 363.692 316.241 364.33C316.12 364.867 315.998 365.15 315.73 365.536C315.637 366.003 315.484 366.354 315.217 366.721C315.145 367.901 313.96 370.234 313.286 371.143C313.215 371.451 313.097 371.74 312.93 372.007L312.149 371.631C312.436 370.727 312.938 369.422 313.533 368.696C313.614 368.262 313.786 367.867 314.049 367.512C314.13 367.075 314.288 366.708 314.561 366.333C314.653 365.366 315.377 364.231 315.748 363.352C316.202 362.276 316.588 360.78 317.294 359.855C317.458 359.134 317.874 358.061 318.305 357.469C318.407 356.223 319.407 354.744 319.89 353.606C320.351 352.517 320.751 351.399 321.224 350.315Z" fill="white"/>
<path d="M326.902 357.605L327.844 358.042C327.533 359.291 326.78 360.547 326.273 361.73C325.8 362.831 325.376 364.699 324.57 365.575C324.52 366.147 323.956 367.573 323.589 367.895C323.534 368.298 323.445 368.503 323.218 368.77C323.183 369.122 323.071 369.376 322.844 369.628C322.908 370.365 321.88 372.34 321.428 372.828C321.396 373.06 321.311 373.269 321.174 373.456L320.319 373.06C320.476 372.469 320.93 371.358 321.363 370.95C321.391 370.622 321.517 370.336 321.742 370.093C321.769 369.762 321.883 369.497 322.115 369.239C322.074 368.245 323.425 365.232 324.09 364.54C324.162 364.026 324.466 363.202 324.822 362.809C324.774 362.013 325.645 360.737 325.954 360C326.285 359.21 326.557 358.388 326.902 357.605Z" fill="white"/>
<path d="M332.86 362.414L333.697 362.793C333.552 363.531 333.061 364.281 332.757 364.972C332.435 365.705 332.112 367.256 331.508 367.794C331.51 368.117 331.116 369.16 330.857 369.336C330.842 369.613 330.783 369.749 330.611 369.917C330.609 370.161 330.534 370.33 330.359 370.487C330.45 370.899 329.69 372.363 329.408 372.609C329.399 372.768 329.344 372.908 329.243 373.028L328.482 372.683C328.559 372.326 328.922 371.502 329.204 371.292C329.201 371.065 329.287 370.875 329.459 370.724C329.455 370.495 329.532 370.318 329.709 370.157C329.63 369.679 330.663 367.33 331.017 367.032C331.031 366.792 331.318 366.049 331.502 365.881C331.417 365.419 332.039 364.362 332.273 363.95C332.411 363.45 332.647 362.889 332.86 362.414Z" fill="white"/>
<path d="M292.179 362.414L293.016 362.793C292.871 363.531 292.38 364.281 292.076 364.972C291.754 365.705 291.431 367.256 290.827 367.794C290.829 368.117 290.435 369.16 290.176 369.336C290.161 369.613 290.101 369.749 289.93 369.917C289.928 370.161 289.853 370.33 289.678 370.487C289.768 370.899 289.009 372.362 288.727 372.609C288.718 372.768 288.662 372.908 288.561 373.028L287.801 372.683C287.878 372.326 288.241 371.502 288.523 371.292C288.52 371.065 288.605 370.875 288.778 370.724C288.774 370.495 288.851 370.318 289.028 370.157C288.949 369.678 289.981 367.33 290.336 367.032C290.35 366.792 290.637 366.049 290.821 365.881C290.735 365.42 291.357 364.362 291.591 363.95C291.73 363.45 291.967 362.89 292.179 362.414Z" fill="white"/>
<path d="M682.295 416.747L681.509 420.157C679.613 420.198 677.415 420.213 675.038 420.212C668.088 420.212 660.929 420.261 654.294 420.202C647.556 420.143 640.885 420.137 634.227 420.178L623.635 420.197L613.086 420.139C606.619 420.074 600.17 420.067 593.677 420.113C586.469 420.167 579.235 420.163 572.04 420.093C565.635 420.033 559.241 420.032 552.809 420.084C545.545 420.144 538.316 420.152 531.069 420.101C524.773 420.053 518.44 420.057 512.182 420.114C504.972 420.18 497.002 420.137 489.321 420.146C485.909 420.164 482.526 420.093 479.399 419.945C473.363 420.207 466.767 420.254 460.437 420.076C459.593 420.061 458.697 420.064 457.859 420.085C447.382 420.298 436.14 420.184 425.218 420.193C422.468 420.196 419.753 420.112 417.411 419.961C414.587 420.064 412.119 420.137 409.834 420.178L406.523 420.22L401.592 420.216L401.621 416.218L401.673 413.951C401.726 412.431 401.782 410.843 401.842 409.12C401.496 400.802 401.508 393.949 401.874 386.043C401.639 382.743 401.602 377.307 401.622 370.963L401.646 355.963C401.65 351.647 401.717 347.361 401.826 343.228C401.908 339.835 401.667 336.598 401.703 331.59C401.727 326.922 401.923 324.007 401.918 320.698C401.912 317.387 401.768 314.569 401.793 310.011C401.805 306.531 401.887 303.026 402.04 299.832C401.932 295.935 401.875 292.922 401.882 289.948C401.895 287.657 401.934 285.365 402 283.143L405.095 283.859C405.18 288.291 405.142 291.623 404.996 297.842C404.964 298.859 404.956 299.872 404.971 300.876C405.037 306.359 405.051 311.909 405.017 317.368C404.983 322.875 404.95 328.509 404.916 334.064C404.899 337.607 404.766 339.782 404.649 341.779C404.811 344.538 404.896 348.557 404.893 352.762C404.896 356.912 404.797 361.04 404.606 364.86C404.95 372.613 404.945 379.746 404.575 387.826C404.798 391.353 404.847 396.895 404.828 403.358L404.832 416.973L405.113 416.983L406.568 416.997C412.466 417.054 418.409 417.057 424.279 416.994C431.885 416.933 439.558 416.924 447.137 416.974C453.15 417.018 459.149 417.015 465.074 416.959C472.228 416.898 479.97 416.93 487.421 416.922C491.117 416.909 494.847 416.99 498.199 417.161C505.246 416.907 511.044 416.816 515.631 416.959C520.21 417.102 522.563 417.106 527.227 416.948C532.059 416.784 538.756 416.884 544.44 417.147C547.901 416.916 553.208 416.857 559.321 416.877C565.442 416.898 571.873 416.846 577.66 416.901C583.905 416.968 590.234 416.976 596.555 416.924C603.713 416.876 611.41 416.937 618.933 416.958L621.402 416.973L623.189 416.955L643.073 416.916C650.092 416.956 657.15 416.932 664.129 416.842C670.15 416.768 676.228 416.736 682.295 416.747Z" fill="white"/>
<path d="M414.636 302.181L414.593 305.896C413.245 306.473 404.392 306.429 403.584 305.664C403.08 306.102 400.461 306.008 400.208 305.681C399.682 306.063 399.383 306.059 398.934 305.687C398.482 306.064 398.109 306.052 397.679 305.652C397.211 306.32 393.382 305.85 392.99 305.471C392.685 305.688 392.382 305.703 392.082 305.515L392.121 302.139C392.665 301.93 394.918 302.212 395.272 302.626C395.695 302.256 396.114 302.271 396.527 302.673C396.949 302.297 397.337 302.303 397.776 302.707C398.255 302.098 404.129 302.141 404.608 302.63C405 302.347 406.736 302.253 407.127 302.614C407.604 301.98 410.576 302.252 411.319 302.426C412.18 302.186 413.729 302.149 414.636 302.181Z" fill="white"/>
<path d="M414.636 331.675L414.593 335.39C413.245 335.967 404.392 335.923 403.584 335.158C403.08 335.597 400.461 335.502 400.208 335.175C399.682 335.558 399.383 335.553 398.934 335.181C398.482 335.558 398.109 335.546 397.679 335.146C397.211 335.814 393.382 335.344 392.99 334.966C392.685 335.182 392.382 335.197 392.082 335.01L392.121 331.633C392.665 331.424 394.918 331.707 395.272 332.12C395.695 331.75 396.114 331.766 396.527 332.167C396.949 331.791 397.337 331.797 397.776 332.201C398.255 331.592 404.129 331.635 404.608 332.124C405 331.841 406.736 331.748 407.127 332.109C407.604 331.474 410.576 331.746 411.319 331.92C412.18 331.681 413.729 331.643 414.636 331.675Z" fill="white"/>
<path d="M414.636 361.17L414.593 364.885C413.245 365.462 404.392 365.418 403.584 364.653C403.08 365.091 400.461 364.997 400.208 364.67C399.682 365.052 399.383 365.048 398.934 364.676C398.482 365.053 398.109 365.041 397.679 364.641C397.211 365.309 393.382 364.839 392.99 364.46C392.685 364.677 392.382 364.692 392.082 364.504L392.121 361.128C392.665 360.919 394.918 361.201 395.272 361.615C395.695 361.245 396.114 361.261 396.527 361.662C396.949 361.286 397.337 361.292 397.776 361.696C398.255 361.087 404.129 361.13 404.608 361.619C405 361.336 406.736 361.242 407.127 361.603C407.604 360.969 410.576 361.241 411.319 361.415C412.18 361.176 413.729 361.138 414.636 361.17Z" fill="white"/>
<path d="M414.636 390.665L414.593 394.38C413.245 394.957 404.392 394.913 403.584 394.148C403.08 394.587 400.461 394.492 400.208 394.165C399.682 394.548 399.383 394.543 398.934 394.171C398.482 394.548 398.109 394.536 397.679 394.136C397.211 394.804 393.382 394.334 392.99 393.956C392.685 394.172 392.382 394.187 392.082 394L392.121 390.623C392.665 390.414 394.918 390.696 395.272 391.11C395.695 390.74 396.114 390.756 396.527 391.157C396.949 390.781 397.337 390.787 397.776 391.191C398.255 390.582 404.129 390.625 404.608 391.114C405 390.831 406.736 390.738 407.127 391.099C407.604 390.464 410.576 390.736 411.319 390.91C412.18 390.67 413.729 390.632 414.636 390.665Z" fill="white"/>
<path d="M459.819 416.817C459.898 415.729 459.588 414.36 458.2 413.989C460.414 413.191 460.391 412.473 458.226 411.79C460.524 411.101 460.18 410.081 458.195 409.564C458.691 409.573 459.185 409.32 459.669 408.811C459.72 407.104 459.861 404.158 458.505 403.58C458.945 403.633 459.382 403.302 459.799 402.603C459.786 399.038 459.044 401.195 458.763 399.487C459.178 399.173 459.538 398.8 459.842 398.369C459.387 397.99 458.904 397.651 458.396 397.349C458.206 398.355 460.845 393.712 458.493 395.174C460.713 393.795 458.888 389.033 458.744 389.14C459.754 388.372 460.03 382.739 459.429 381.536C459.09 381.387 458.759 381.221 458.436 381.04C458.923 380.719 459.39 380.369 459.836 379.99C459.518 379.568 459.142 379.219 458.706 378.941C458.167 377.744 461.635 378.284 458.557 376.856C460.332 377.143 458.818 370.896 459.298 370.92C457.534 371.766 453.092 368.471 452.293 372.068C451.531 369.826 450.863 369.818 450.076 371.946C449.263 369.833 448.735 369.841 447.835 371.967C447.882 371.483 447.626 371.001 447.075 370.53C446.423 370.54 442.912 370.329 442.698 370.427L441.849 371.75C440.989 369.256 435.457 370.489 433.41 370.295C433.046 373.392 433.86 376.715 433.859 379.692C433.858 381.357 433.358 382.786 433.591 384.564C433.675 385.211 433.641 386.257 433.637 386.888C433.633 387.481 434.957 387.408 434.927 387.709C434.891 388.083 433.597 388.037 433.612 388.792C433.622 389.252 434.985 389.758 434.941 389.905C435.211 388.999 432.643 393.612 434.831 392.065C432.498 393.739 434.964 395.439 433.585 397.03C433.955 397.203 434.322 397.512 434.682 397.955C434.619 398.329 433.685 399.267 433.508 399.943C433.376 400.442 433.624 402.247 433.665 402.858C433.803 404.949 433.91 407.359 433.791 409.422C433.623 412.332 431.775 418.048 436.358 417.072V419.85L436.422 419.883C438.439 420.03 442.945 420.765 443.557 418.287C444.586 421.469 444.516 418.816 445.772 418.848C446.057 419.289 446.401 419.674 446.806 420.005C447.426 419.665 447.825 419.134 448.005 418.412C448.922 421.493 457.322 419.35 459.776 419.9C459.884 418.874 459.898 417.846 459.819 416.817Z" fill="white"/>
<path d="M510.557 414.877C510.385 412.814 511.432 408.318 508.95 407.522C511.063 406.506 511.041 405.594 508.975 404.725C511.168 403.848 510.839 402.55 508.946 401.893C509.418 401.904 509.89 401.583 510.352 400.935C510.391 399.156 510.673 395.094 509.241 394.281C509.66 394.348 510.078 393.928 510.476 393.039C510.471 391.253 509.758 390.416 509.487 389.073C509.9 388.654 510.243 388.18 510.518 387.651C510.094 387.179 509.634 386.747 509.138 386.354C509.202 385.898 510.489 385.774 510.467 385C510.451 384.408 509.12 384.142 509.23 383.587C509.359 382.937 510.34 381.773 510.55 380.778C510.752 379.823 510.304 377.942 510.322 376.962C510.334 376.311 509.769 376.259 509.81 375.564C509.853 374.857 510.338 373.537 510.439 372.611C510.527 371.804 509.87 371.308 509.893 370.645C509.955 368.831 510.866 368.215 510.124 366.235C509.797 366.042 509.481 365.832 509.177 365.605C509.65 365.188 510.094 364.743 510.512 364.269C510.231 363.753 509.872 363.308 509.434 362.934C509.421 361.352 511.804 361.836 509.292 360.281C509.691 360.368 510.089 359.942 510.464 359.028C510.481 358.368 509.551 357.813 509.476 357.228C509.355 356.275 511.555 354.09 509.999 353.469C507.817 354.361 502.905 350.919 501.825 354.564C500.855 352.426 500.005 352.418 499.003 354.448C497.969 352.432 497.298 352.44 496.152 354.468C496.212 354.007 495.887 353.546 495.186 353.097C494.003 353.111 488.16 352.377 487.787 354.261C486.844 353.477 485.691 353.018 484.469 352.99C484.309 357.185 484.362 361.581 484.533 365.653C484.637 368.154 484.628 370.759 484.528 373.277C484.49 374.236 484.192 375.991 484.382 376.97C484.425 377.189 485.764 380.192 485.799 379.71C485.766 380.155 484.531 380.295 484.544 381.088C484.554 381.656 485.874 382.228 485.813 382.505C485.681 383.094 484.51 382.918 484.481 383.847C484.461 384.482 485.788 384.615 485.707 385.253C485.642 385.768 484.594 387.178 484.42 387.966C484.141 389.229 485.352 390.287 484.518 391.571C484.871 391.791 485.221 392.184 485.565 392.747C485.517 393.132 484.555 394.735 484.444 395.277C484.267 396.142 484.83 397.107 484.837 397.962C484.857 400.171 484.394 402.483 484.469 404.696C484.508 405.834 483.991 416.893 484.574 417.099L487.164 417.069V419.727L487.245 419.759C489.421 419.878 495.477 420.801 496.323 418.237C497.602 421.2 497.632 418.757 499.141 418.772C500.786 418.788 500.339 421.109 501.982 418.354C503.124 421.231 508.026 419.312 510.253 419.573C510.499 417.984 510.689 416.496 510.557 414.877Z" fill="white"/>
<path d="M560.969 409.343C561.47 407.215 561.96 398.003 559.654 396.893C561.578 395.506 561.558 394.259 559.676 393.072C561.674 391.875 561.374 390.102 559.65 389.205C560.08 389.22 560.509 388.781 560.93 387.895C560.96 385.872 561.495 380.149 559.919 378.806C561.831 379.263 560.739 373.25 560.74 372.659C560.741 371.448 560.839 370.724 560.946 369.269C560.889 370.042 559.978 367.746 559.988 367.819C559.947 367.526 561.046 366.725 561.035 366.13C561.026 365.633 560.066 365.056 560.103 364.699C560.183 363.944 560.774 363.46 560.873 362.59C561.132 360.313 561.082 357.803 561 355.538C560.982 355.041 560.247 354.475 560.257 354.204C560.283 353.462 560.863 353.014 560.889 352.248C560.945 350.6 561.327 340.248 560.144 339.944C560.847 340.395 560.319 336.123 560.299 336.27C560.514 334.722 561.672 333.951 559.965 332.365C560.251 332.458 561.286 324.817 560.608 324.071C558.127 324.853 551.991 321.607 550.453 325.069C549.128 323.121 547.968 323.113 546.599 324.963C545.186 323.127 544.27 323.134 542.705 324.981C542.785 324.56 542.342 324.141 541.385 323.732C539.406 323.698 537.431 323.503 535.451 323.568C535.507 325.379 535.084 330.602 536.674 331.769C533.679 333.839 535.839 342.579 535.813 345.683C535.764 351.364 534.554 357.961 535.476 363.592C535.565 364.132 536.405 366.008 536.413 366.141C536.425 366.366 535.992 367.173 536.01 367.282C536.18 368.249 535.975 370.272 536.084 370.928C536.213 371.706 536.293 373.699 536.276 374.509C536.248 375.917 536.069 381.486 535.562 382.658C535.883 382.958 536.202 383.495 536.516 384.264C536.459 384.93 535.649 386.239 535.523 387.036C535.333 388.239 535.756 389.42 535.746 390.605C535.722 393.616 535.638 396.651 535.637 399.664C535.636 402.572 535.426 405.438 535.401 408.344C535.393 409.286 535.113 417.26 535.613 417.526L537.971 417.485V417.526H537.972L537.971 419.92C540.307 420.252 549.21 421.134 550.482 418.562C551.904 420.759 553.099 419.39 554.809 419.355C556.112 419.329 558.172 421.051 559.19 418.669C559.534 418.87 559.898 419.057 560.285 419.224C562.191 418.654 560.668 410.621 560.969 409.343Z" fill="white"/>
<path d="M612.377 410.857C612.358 406.788 612.384 402.81 612.385 398.768C612.386 396.039 613.784 388.99 610.69 387.502C613.029 385.816 613.005 384.299 610.718 382.857C613.146 381.401 612.781 379.246 610.686 378.155C611.209 378.174 611.731 377.64 612.243 376.563C612.278 374.183 611.8 372.039 611.696 369.828C611.593 367.628 613.227 367.402 611.014 365.515C613.59 366.13 611.642 357.567 611.649 357.312C611.653 357.19 611.97 355.756 611.97 355.754C612.072 356.305 611.357 351.547 611.257 352.796C611.327 351.923 612.063 350.909 612.169 349.681C612.231 348.963 610.964 348.532 611 347.758C611.037 346.961 612.232 345.488 612.399 344.438C612.747 342.237 612.406 339.421 612.326 337.229C612.295 336.346 611.309 335.984 611.344 335.308C611.388 334.46 612.175 333.572 612.366 332.596C612.815 330.302 611.722 328.021 611.833 325.922C611.914 324.406 613.755 318.905 611.286 318.272C610.472 317.749 611.629 317.417 611.762 316.866C612.134 315.32 611.329 315.195 611.476 313.806C611.678 311.887 613.185 311.024 611.069 309.059C613.257 309.77 611.381 304.405 611.38 304.333C611.334 302.606 613.383 300.66 611.851 298.976C608.833 299.929 601.39 295.953 599.507 300.189C597.896 297.821 596.486 297.813 594.821 300.059C593.407 298.22 590.713 297.769 589.289 300.082C589.143 299.621 588.298 299.161 586.061 298.711C584.796 300.989 585.521 311.551 587.201 312.785C584.45 314.686 585.985 320.448 585.856 323.27C585.695 326.783 585.625 330.295 585.607 333.798C585.585 337.951 586.089 342.112 586.124 346.283C586.14 348.224 585.176 350.586 585.79 352.534C585.853 352.732 587.261 355.118 587.269 354.954C587.245 355.447 585.804 356.064 585.877 356.591C585.967 357.243 587.122 358.977 587.109 359.367C587.084 360.076 586.324 361.654 586.208 362.642C586.161 363.042 587.204 363.563 587.167 364.156C587.131 364.743 586.004 365.964 585.808 366.708C585.127 369.294 586.926 372.162 585.85 374.646C586.241 375.011 586.628 375.664 587.009 376.598C586.93 377.542 585.963 378.817 585.802 379.968C585.543 381.819 586.246 383.437 586.203 385.257C586.124 388.6 586.102 391.991 585.941 395.319C585.771 398.815 585.685 402.362 585.654 405.871C585.644 406.962 585.496 416.811 585.911 417.032L588.778 416.983V417.033H588.779L588.778 419.942C591.34 420.212 593.798 419.786 596.322 419.795C598.793 419.804 602.556 421.183 603.986 418.292C606.343 421.934 608.549 418.229 611.582 419.223C613.189 417.54 612.402 414.491 610.784 413.04C611.7 412.496 612.382 411.873 612.377 410.857Z" fill="white"/>
<path d="M662.908 403.219C662.892 398.031 663.249 392.696 662.916 387.55C662.693 384.117 664.604 375.165 661.378 372.947C663.5 370.762 663.479 368.797 661.404 366.927C663.606 365.039 663.276 362.247 661.375 360.833C661.849 360.857 662.322 360.165 662.787 358.769C662.818 355.808 662.322 352.872 662.29 350.04C662.264 347.661 663.464 346.631 661.671 344.449C663.131 344.947 663.048 336.687 662.903 335.71C662.787 334.92 661.89 333.872 661.918 333.24C661.964 332.193 662.918 331.364 662.851 330.193C662.781 328.971 661.683 328.154 661.746 327.136C661.797 326.312 662.876 325.526 662.902 324.474C662.93 323.316 661.696 322.573 661.659 321.433C661.645 321.01 662.805 318.534 662.908 317.96C663.393 315.262 663.04 311.333 662.736 308.606C662.422 305.786 662.446 304.702 662.899 301.781C663.308 299.149 662.158 296.46 662.235 294.026C662.284 292.478 664.518 284.167 661.919 283.214C661.066 282.431 662.774 281.32 662.81 280.606C662.875 279.369 661.926 278.176 661.978 277.204C662.114 274.621 663.748 273.96 661.722 271.272C662.975 271.854 662.297 265.139 662.345 264.463C662.477 262.577 663.414 261.124 662.431 259.159C658.464 260.128 650.019 256.11 647.385 260.26C645.495 258.315 642.801 258.336 640.805 260.143C639.683 259.576 638.365 259.169 637.122 258.92C636.484 260.78 636.898 264.792 638.363 265.806C636.56 265.308 636.697 280.689 638.155 282.218C635.619 284.722 637.119 289.556 637.173 292.627C637.236 296.192 637.111 299.75 637.18 303.321C637.332 311.288 637.134 319.402 637.043 327.384C637.019 329.446 636.43 331.678 636.875 333.741C636.998 334.31 637.861 336.133 637.867 336.377C637.903 337.616 636.996 337.212 636.954 339.001C636.915 340.631 638.208 341.906 638.049 343.131C637.895 344.314 637.358 345.558 637.254 346.844L637.918 347.976C638.328 348.834 638.125 349.615 637.311 350.32C636.901 354.069 637.995 358.888 636.929 362.403C637.284 362.876 637.635 363.722 637.981 364.933C637.878 366.692 636.891 368.42 636.855 370.378C636.815 372.56 637.268 374.693 637.218 376.869C637.118 381.185 637.236 385.589 636.922 389.885C636.611 394.134 636.779 398.609 636.778 402.876C636.777 404.711 635.807 416.444 636.986 417.342L639.587 417.277V417.342H639.588L639.587 419.982C643.813 420.295 648.013 419.957 652.24 420.153C653.533 420.213 659.489 420.531 660.086 418.485C660.699 418.795 661.404 419.067 662.157 419.297C663.289 417.842 662.851 415.742 662.785 414.122L662.557 413.724C661.658 412.701 661.658 411.682 662.557 410.667C662.571 408.643 663.04 408.07 661.465 406.052C662.294 405.345 662.913 404.536 662.908 403.219Z" fill="white"/>
<path d="M649.227 228.518C648.319 226.601 648.701 224.274 647.759 222.394C647.921 220.491 647.35 212.268 645.318 211.328C646.622 209.521 645.328 208.775 644.903 207.056C644.375 204.92 645.426 202.721 643.519 200.969C643.968 198.984 643.676 197.275 643.342 195.299C639.315 197.296 635.05 199.292 631.176 201.563C629.264 202.683 624.102 204.049 623.751 206.296C622.154 205.757 621.213 206.214 620.697 207.721C619.434 207.229 617.899 207.625 617.611 209.121C616.205 208.45 614.652 209.371 613.328 209.919C612.595 210.222 609.784 211.172 609.374 211.653L613.776 220.645C614.842 220.758 615.385 220.264 615.904 219.426C617.815 220.121 620.256 217.797 621.9 217.18C623.393 216.619 627.205 216.521 627.439 214.213C627.666 214.29 627.875 214.342 628.075 214.379C622.641 222.852 615.866 230.908 608.391 237.654C603.578 241.998 598.97 246.526 593.658 250.25C589.596 253.097 581.698 257.056 579.852 261.912C577.452 262.291 574.862 263.11 572.886 264.577C571.292 265.762 570.337 267.551 568.555 268.499C567.029 269.311 565.229 269.298 563.676 270.077C561.508 271.165 559.776 273.145 558.282 275.002C553.083 274.74 547.163 278.597 542.689 280.998C537.212 283.937 531.627 285.645 525.915 288.013C520.346 290.322 515.374 292.418 509.534 293.992C505.25 295.146 497.212 296.305 495.014 300.739C490.377 298.92 485.976 299.449 482.851 303.578C478.875 301.498 473.078 301.369 470.551 305.776C466.298 302.745 459.849 303.758 454.835 304.16C452.592 304.339 450.102 305.443 447.939 305.287C445.892 305.14 443.479 302.728 441.36 304.106C441.399 315.709 441.328 327.329 441.145 338.964C445.237 340.482 448.858 339.723 452.363 337.158C454.658 338.55 457.58 339.124 460.177 338.283C461.876 337.733 463.201 336.163 464.945 335.785C466.945 335.35 468.894 336.538 470.907 336.346C473.292 336.117 474.013 334.819 475.99 333.864C477.779 333 479.192 333.38 481.155 333.324C483.914 333.245 486.45 332.357 489.059 331.529C493.225 330.207 499.788 329.11 501.71 324.531C506.887 326.072 511.229 323.967 514.299 319.718C519.731 320.609 523.465 318.286 526.737 314.057C531.837 315.703 540.317 309.796 544.372 306.989C547.145 305.069 549.049 303.661 552.105 302.34C554.771 301.186 556.976 299.132 558.458 296.644C562.955 296.49 566.854 292.932 570.382 290.466C574.486 287.596 578.107 284.113 582.2 281.217C589.694 275.913 596.077 269.404 602.97 263.361C609.806 257.369 616.062 249.932 621.741 242.849C627.369 235.829 632.871 227.909 637.047 219.922C638.236 223.585 636.876 229.621 639.104 232.83L649.974 231.101C649.858 230.215 649.608 229.351 649.227 228.518Z" fill="white"/>
<path d="M339.183 403.541C339.368 403.98 339.31 404.358 339.008 404.676C339.27 404.905 339.385 406.008 339.067 406.253C339.541 406.474 339.462 408.424 339.318 408.871C339.518 409.314 339.416 410.021 339.546 410.505C351.945 410.852 362.476 418.796 366.648 429.85C368.099 428.596 371.373 427.863 373.162 427.201C367.9 413.461 354.673 403.647 339.168 403.454L339.183 403.541ZM336.056 410.087C336.333 408.891 335.282 404.767 336.15 404.117C335.91 403.944 335.85 403.75 335.954 403.557C328.381 404.118 321.44 406.976 315.82 411.439C316.329 412.105 318.811 413.666 318.564 414.677C319.068 414.675 320.252 415.763 320.139 416.335C320.428 416.251 320.637 416.317 320.805 416.467C325.131 413.213 330.366 411.113 336.052 410.61C336.035 410.432 336.016 410.255 336.056 410.087ZM373.298 431.721C372.418 431.751 371.564 433.25 370.52 432.613C370.078 433.29 369.729 433.417 369.043 433.183C368.732 433.738 368.36 433.924 367.825 433.784C370.203 444.301 366.616 455.482 358.6 462.669C359.722 464.073 361.905 465.568 362.341 467.365C362.69 467.563 362.984 467.764 363.217 467.975C373.45 458.845 377.87 444.42 374.422 431.115C374.167 431.58 373.777 431.793 373.298 431.721ZM359.289 468.732C359.035 468.465 358.856 468.14 358.757 467.78C357.886 467.356 356.465 465.556 355.863 464.847C343.616 473.49 326.376 471.471 316.437 460.284C306.179 448.74 306.48 430.764 317.25 419.616C316.769 419.295 314.78 417.474 314.917 416.814C314.326 416.871 312.607 415.156 312.809 414.587C312.628 414.589 312.484 414.576 312.367 414.547C299.062 428.139 298.407 450.282 310.867 464.62C323.297 478.923 345.216 481.442 360.521 470.166C360.106 469.711 359.703 469.204 359.289 468.732ZM328.455 441.283C328.456 440.82 328.103 439.736 327.471 439.81C327.463 439.231 327.048 438.943 326.565 439.11C326.436 438.584 325.87 438.426 325.524 438.676C325.556 438.597 325.462 438.474 325.234 438.32C324.638 438.14 323.382 437.61 322.809 437.758C322.874 437.707 322.761 437.565 322.739 437.395C322.655 437.215 322.655 437.034 322.74 436.852C322.794 436.743 323.601 436.248 323.697 436.422C323.778 436.556 323.866 436.623 323.963 436.67C324.044 436.699 324.394 436.616 324.415 436.71C324.42 436.826 324.412 436.94 324.393 437.055L324.394 437.086L324.412 437.164C324.578 437.631 325.076 437.813 325.524 437.808C326.02 437.781 327.723 437.917 328.04 437.479C328.215 437.257 328.245 436.936 328.195 436.651C328.082 435.764 327.447 434.555 326.664 434.104C326.564 434.071 326.496 434.068 326.461 434.089C326.357 434.103 326.332 434.083 326.307 433.98C326.245 433.792 325.301 433.172 325.075 433.186L324.997 433.225C324.959 433.242 324.908 433.252 324.839 433.232C324.911 433.193 324.983 433.241 325.051 432.833C325.053 432.612 324.896 432.499 324.872 432.319C324.77 431.072 324.539 431.818 323.83 431.504C323.156 431.158 321.787 431.416 322.106 432.439C322.149 432.559 322.222 432.66 322.345 432.738C322.204 432.86 322.115 433.041 322.076 433.102L322.108 433.166C322.137 433.206 322.168 433.27 322.152 433.375C321.799 432.936 321.255 433.448 321.112 433.767C321.097 433.684 320.937 433.664 320.635 433.767C320.095 434.129 318.815 435.418 319.214 436.156C319.053 436.25 318.926 436.394 318.899 436.618C318.66 438.067 319.185 439.427 320.285 440.344C321.441 441.309 322.924 441.197 324.182 441.889C324.446 442.061 324.676 442.328 324.938 442.472C325.026 442.525 325.011 442.565 324.933 442.597C324.387 442.901 324.57 443.236 323.815 443.206C323.404 443.189 322.583 442.972 322.311 442.478L322.226 442.329L321.891 441.924C321.655 441.88 321.423 441.9 321.198 441.985C320.648 441.957 320.24 441.706 319.628 441.812C318.259 441.858 318.603 443.321 318.981 444.147C319.495 445.268 320.676 446.479 322.01 446.524L322.125 446.505L322.1 446.583L322.08 446.701C322.03 447.027 322.017 447.571 322.189 447.874L322.315 448.022L322.659 447.716L322.677 447.73L322.342 448.06C322.415 448.513 323.825 448.304 323.967 448.282L324.074 448.273C324.691 448.247 325.064 447.883 325.074 447.251C325.071 447.135 324.983 446.657 325.056 446.581L324.922 446.441L324.86 446.306C325.056 446.407 325.019 446.513 325.234 446.502C325.697 446.505 326.717 445.902 326.841 445.456C327.038 445.491 327.24 445.469 327.426 445.278C328.63 444.13 328.428 442.755 328.455 441.283ZM343.368 441.283C343.368 440.82 343.015 439.736 342.383 439.81C342.375 439.231 341.96 438.943 341.477 439.11C341.348 438.584 340.783 438.426 340.436 438.676C340.468 438.597 340.375 438.474 340.146 438.32C339.551 438.14 338.295 437.61 337.721 437.758C337.786 437.707 337.674 437.565 337.652 437.395C337.568 437.215 337.568 437.034 337.653 436.852C337.707 436.743 338.515 436.248 338.609 436.422C338.69 436.556 338.778 436.623 338.876 436.67C338.957 436.699 339.308 436.616 339.327 436.71C339.332 436.826 339.325 436.94 339.305 437.055L339.307 437.086L339.324 437.164C339.491 437.631 339.988 437.813 340.437 437.808C340.933 437.781 342.636 437.917 342.952 437.479C343.127 437.257 343.157 436.936 343.107 436.651C342.995 435.764 342.36 434.555 341.577 434.104C341.476 434.071 341.409 434.068 341.373 434.089C341.269 434.103 341.244 434.083 341.22 433.98C341.158 433.792 340.214 433.172 339.988 433.186L339.91 433.225C339.871 433.242 339.82 433.252 339.752 433.232C339.824 433.193 339.895 433.241 339.963 432.833C339.966 432.612 339.808 432.499 339.785 432.319C339.683 431.071 339.451 431.818 338.742 431.504C338.068 431.158 336.7 431.416 337.018 432.439C337.061 432.559 337.135 432.66 337.257 432.738C337.117 432.86 337.027 433.041 336.988 433.102L337.021 433.166C337.049 433.206 337.08 433.27 337.065 433.375C336.711 432.936 336.168 433.448 336.025 433.767C336.009 433.684 335.849 433.664 335.548 433.767C335.008 434.129 333.727 435.418 334.127 436.156C333.965 436.25 333.839 436.394 333.811 436.618C333.572 438.067 334.098 439.427 335.196 440.344C336.353 441.309 337.835 441.197 339.093 441.889C339.358 442.061 339.587 442.328 339.85 442.472C339.938 442.525 339.923 442.565 339.845 442.597C339.299 442.901 339.481 443.236 338.727 443.206C338.315 443.189 337.495 442.972 337.223 442.478L337.138 442.329L336.803 441.924C336.566 441.88 336.335 441.9 336.109 441.985C335.56 441.957 335.152 441.706 334.54 441.812C333.17 441.858 333.514 443.321 333.893 444.147C334.407 445.268 335.587 446.479 336.922 446.524L337.036 446.505L337.012 446.583L336.992 446.701C336.943 447.027 336.93 447.572 337.101 447.874L337.228 448.022L337.572 447.716L337.59 447.73L337.255 448.06C337.328 448.513 338.738 448.304 338.88 448.282L338.988 448.273C339.604 448.247 339.977 447.883 339.987 447.251C339.984 447.135 339.896 446.657 339.969 446.581L339.835 446.441L339.773 446.306C339.969 446.407 339.932 446.513 340.148 446.502C340.61 446.505 341.631 445.902 341.754 445.456C341.951 445.491 342.153 445.469 342.339 445.278C343.543 444.129 343.339 442.755 343.368 441.283ZM358.367 442.196C358.258 441.619 358.307 439.691 357.296 439.809C357.288 439.231 356.873 438.943 356.39 439.109C356.261 438.583 355.695 438.426 355.348 438.675C355.381 438.597 355.287 438.473 355.059 438.319C354.463 438.139 353.207 437.609 352.634 437.758C352.699 437.706 352.586 437.564 352.564 437.395C352.48 437.214 352.48 437.033 352.565 436.851C352.619 436.742 353.426 436.247 353.521 436.421C353.603 436.556 353.691 436.622 353.788 436.67C353.869 436.699 354.22 436.616 354.24 436.709C354.245 436.825 354.237 436.94 354.218 437.054L354.219 437.086L354.237 437.164C354.403 437.63 354.901 437.812 355.349 437.807C355.845 437.78 357.548 437.917 357.865 437.478C358.041 437.256 358.069 436.935 358.02 436.65C357.907 435.763 357.272 434.554 356.489 434.104C356.389 434.07 356.321 434.067 356.286 434.088C356.183 434.102 356.157 434.082 356.133 433.98C356.071 433.791 355.127 433.172 354.901 433.185L354.823 433.224C354.785 433.241 354.733 433.252 354.665 433.231C354.737 433.192 354.808 433.24 354.876 432.832C354.878 432.611 354.721 432.499 354.698 432.318C354.596 431.071 354.364 431.817 353.656 431.503C352.823 431.076 351.085 432.045 352.17 432.737C352.03 432.859 351.94 433.039 351.901 433.1L351.934 433.164C351.963 433.204 351.994 433.268 351.978 433.374C351.624 432.933 351.081 433.447 350.938 433.765C350.922 433.683 350.762 433.663 350.461 433.766C349.921 434.128 348.64 435.416 349.04 436.155C348.878 436.249 348.752 436.392 348.725 436.617C348.485 438.065 349.012 439.426 350.11 440.343C351.266 441.307 352.749 441.195 354.007 441.888C354.271 442.059 354.501 442.327 354.763 442.47C354.851 442.524 354.836 442.563 354.758 442.596C354.211 442.9 354.395 443.234 353.64 443.205C353.228 443.188 352.408 442.971 352.136 442.477L352.051 442.328L351.716 441.922C351.48 441.878 351.248 441.898 351.022 441.984C350.473 441.955 350.065 441.705 349.453 441.81C348.084 441.857 348.428 443.319 348.806 444.145C349.32 445.267 350.5 446.477 351.835 446.523L351.95 446.503L351.925 446.582L351.906 446.7C351.856 447.025 351.843 447.57 352.015 447.873L352.141 448.021L352.485 447.714L352.503 447.729L352.168 448.059C352.242 448.512 353.651 448.303 353.793 448.281L353.901 448.272C354.517 448.246 354.89 447.882 354.9 447.249C354.897 447.133 354.808 446.656 354.882 446.579L354.748 446.439L354.687 446.304C354.882 446.405 354.845 446.511 355.061 446.5C355.523 446.503 356.543 445.9 356.667 445.455C356.864 445.49 357.066 445.468 357.253 445.277C357.969 444.592 358.56 443.202 358.367 442.196Z" fill="white"/>
<path d="M279.167 211.77C272.743 220.897 264.428 228.68 254.902 234.481C253.599 226.612 258.697 219.078 264.575 213.696C270.452 208.314 279.855 202.022 281.988 197.821C284.885 192.113 287.716 184.625 291.535 178.768C292.564 177.191 295.305 176.319 294.502 178.021C292.829 181.562 291.069 183.89 289.943 187.877C290.37 187.379 291.257 187.819 291.451 188.445C291.646 189.072 291.653 190.116 291.586 190.77C291.253 194.058 293.365 196 292.226 199.103C291.237 201.799 288.113 202.817 285.542 204.089C282.437 205.625 281.163 208.934 279.167 211.77Z" fill="#FFBEB6"/>
<path d="M242.145 297.36C241.408 294.383 240.144 291.566 238.888 288.769C238.271 287.396 237.654 286.024 237.038 284.651C236.82 284.166 236.587 283.661 236.167 283.336C235.8 283.051 235.333 282.937 234.877 282.846C229.762 281.826 224.259 282.923 219.922 285.824C221.384 293.903 220.621 302.374 217.74 310.061C225.48 313.355 233.804 315.266 242.205 315.678C242.917 309.579 243.622 303.321 242.145 297.36Z" fill="#E94A47"/>
<path d="M225.027 468.015C220.359 467.12 205.311 467.509 205.311 467.509C205.311 467.509 201.308 476.565 201.355 482.527C208.318 482.537 215.28 482.546 222.243 482.555C233.944 482.571 236.712 482.681 249.067 482.43C249.33 479.648 243.791 474.539 233.69 472.152C231.459 471.625 227.28 468.446 225.027 468.015Z" fill="#D62929"/>
<path d="M223.408 353.867C225.444 345.061 227.581 336.021 232.827 328.543C233.374 327.764 234.056 326.942 235.023 326.803C236.894 326.533 237.919 328.81 238.24 330.604C246.64 377.585 227.376 420.334 225.03 467.952C218.918 468.332 211.23 468.521 205.117 468.332C206.783 458.466 202.485 455.936 202.948 445.951C203.37 436.854 206.778 433.599 207.483 424.519C208.23 414.873 204.906 411.958 207.089 402.517C209.692 391.253 220.805 365.131 223.408 353.867Z" fill="#151A4F" stroke="black" stroke-width="1.1158" stroke-miterlimit="10"/>
<path d="M191.514 296.625C197.924 302.66 205.362 304.784 212.938 309.264C216.832 309.13 216.313 308.848 217.932 307.684C219.947 306.236 219.572 303.644 219.956 301.189C220.619 296.96 221.255 292.484 219.651 288.516C218.766 293.537 216.656 299.844 213.446 303.801C205.924 297.192 197.893 289.56 189.565 284.002C189.451 287.96 189.336 291.919 189.222 295.877C189.756 295.557 190.978 296.944 191.514 296.625Z" fill="#FFBEB6"/>
<path d="M193.879 468.015C189.21 467.12 174.163 467.509 174.163 467.509C174.163 467.509 170.16 476.565 170.207 482.527C177.17 482.537 184.131 482.546 191.095 482.555C202.796 482.571 205.564 482.681 217.919 482.43C218.182 479.648 212.642 474.539 202.542 472.152C200.311 471.625 196.132 468.446 193.879 468.015Z" fill="#E94A47"/>
<path d="M194.81 285.556C197.915 282.488 200.502 277.799 202.469 273.899C205.92 267.064 209.453 259.263 206.949 252.027C205.468 247.745 201.838 244.27 197.5 242.982C197.824 249.723 195.516 256.284 193.164 262.61C189.823 271.596 186.795 278.606 183.145 287.469C182.684 288.589 181.925 291.093 182.252 291.703C183.666 294.359 185.033 296.374 187.363 296.879C189.694 297.384 192.39 297.912 193.537 300.008C197.033 296.092 198.875 294.056 197.899 288.894C196.026 287.085 195.414 286.796 194.81 285.556Z" fill="#428DFC"/>
<path d="M198.751 252.995C201.823 259.615 208.698 266.46 212.402 272.747C218.618 283.298 218.852 285.629 220.676 297.742C228.082 297.222 236.406 296.106 242.873 299.129C238.992 281.422 234.852 270.019 230.453 259.071C226.054 248.123 218.338 237.405 206.954 234.364C202.905 233.283 197.466 233.991 196.174 237.985C195.476 240.143 197.796 250.938 198.751 252.995Z" fill="url(#paint0_linear)"/>
<path d="M206.891 235.239C205.117 237.707 199.893 237.609 198.808 236.029C199.625 230.531 198.706 226.17 196.726 220.976C199.886 222.291 203.256 223.097 206.667 223.356C205.417 227.415 205.356 231.278 206.891 235.239Z" fill="#F2A19C"/>
<path d="M207.931 208.507C207.51 210.037 209.399 212.555 209.972 214.037C211.286 217.429 210.839 221.956 207.71 223.803C204.791 225.527 201.025 224.168 198.193 222.305C195.801 220.73 193.604 218.769 192.157 216.294C190.711 213.82 190.076 210.787 190.851 208.026C191.272 206.522 192.669 204.91 194.119 205.486C194.043 205.115 195.335 204.998 195.26 204.628C198.15 204.111 199.879 204.644 202.177 206.474C203.586 207.596 204.092 208.235 205.808 207.689C206.611 207.433 207.792 206.894 208.036 207.702C208.114 207.965 208.003 208.242 207.931 208.507Z" fill="#FFBEB6"/>
<path d="M188.139 207.272C191.031 204.681 193.166 204.614 197.029 204.24C197.145 208.175 199.82 211.482 201.887 214.831C203.953 218.181 205.459 222.623 203.293 225.909C202.108 227.708 199.961 228.874 199.299 230.926C198.734 232.678 199.422 234.557 199.579 236.392C200.096 242.437 197.41 248.593 192.732 252.447C192.429 249.272 188.552 247.814 185.369 247.867C182.186 247.92 178.77 248.703 175.974 247.178C173.014 245.564 176.444 242.664 174.075 240.264C172.163 238.327 175.876 232.143 181.811 229.462C184.723 228.146 185.003 221.659 184.272 218.543C183.11 213.587 185.913 209.268 188.139 207.272Z" fill="#23286B"/>
<path d="M210.107 343.95C210.902 341.578 211.728 336.191 211.458 333.713C211.289 332.151 210.566 330.693 210.271 329.148C209.659 325.954 210.901 322.731 212.121 319.705C214.794 313.075 217.466 306.445 220.139 299.816C227.914 300.32 235.637 301.575 243.154 303.556C244.347 362.549 222.907 416.104 193.923 468.104C189.137 468.468 179.111 467.341 174.325 467.706C173.715 467.752 170.344 457.553 173.894 446.139C175.109 442.231 181.152 434.241 182.516 430.378C184.401 425.044 185.81 414.831 186.396 409.225C187.837 395.475 197.166 393.658 200.154 380.141C201.484 374.119 207.444 351.895 210.107 343.95Z" fill="url(#paint1_linear)"/>
<path d="M197.677 252.858C197.734 252.858 197.792 252.844 197.846 252.812C199.138 252.057 200.267 251.081 201.203 249.911C202.485 248.311 203.231 246.534 203.362 244.77C203.487 243.077 203.048 241.424 202.623 239.824C202.244 238.398 201.853 236.924 201.884 235.464C201.93 233.279 203.047 230.571 204.128 227.952C204.543 226.946 204.936 225.996 205.27 225.074C206.611 221.369 205.643 219.076 204.011 216.001C203.37 214.793 202.408 213.57 201.391 212.274C199.688 210.106 197.925 207.863 197.695 205.654C197.676 205.47 197.515 205.332 197.326 205.355C197.142 205.374 197.009 205.539 197.028 205.724C197.279 208.127 199.102 210.447 200.864 212.69C201.863 213.962 202.806 215.163 203.419 216.317C205.225 219.721 205.793 221.659 204.639 224.845C204.31 225.754 203.921 226.698 203.508 227.697C202.403 230.372 201.26 233.141 201.213 235.451C201.18 237.006 201.584 238.528 201.975 239.998C202.405 241.615 202.81 243.142 202.693 244.721C202.541 246.778 201.515 248.452 200.68 249.493C199.796 250.597 198.728 251.52 197.508 252.234C197.348 252.328 197.294 252.533 197.387 252.694C197.45 252.799 197.562 252.858 197.677 252.858Z" fill="#23286B"/>
<path d="M203.71 209.699C203.733 209.699 203.757 209.697 203.781 209.691C205.033 209.419 205.697 207.913 205.623 206.952C205.609 206.768 205.452 206.614 205.263 206.643C205.079 206.658 204.941 206.819 204.955 207.004C205 207.586 204.576 208.831 203.638 209.035C203.457 209.074 203.342 209.253 203.381 209.435C203.417 209.592 203.556 209.699 203.71 209.699Z" fill="#23286B"/>
<path d="M218.813 299.426C219.514 298.821 220.028 298.033 220.664 297.359C221.523 296.448 222.59 295.763 223.645 295.089C224.089 294.805 224.548 294.514 225.064 294.416C225.327 294.366 225.626 294.378 225.825 294.557C226.273 294.961 225.832 295.683 225.399 296.102C224.174 297.286 222.95 298.471 221.724 299.655C220.958 300.397 220.181 301.149 219.639 302.069C219.251 302.729 218.992 303.457 218.619 304.127C218.336 304.633 217.966 305.121 217.442 305.367C216.918 305.614 216.215 305.548 215.858 305.091C216.603 303.792 216.276 302.033 217.174 300.834C217.609 300.255 218.266 299.897 218.813 299.426Z" fill="#FFBEB6"/>
<path d="M210.154 234.936C221.209 232.759 238.791 230.1 243.05 228.932C244.692 228.482 246.139 228.085 247.441 227.757C247.913 227.008 252.369 224.535 252.75 224.181C255.104 221.76 256.958 220.505 259.236 218.048C262.08 220.043 264.64 223.746 269.19 228.305C266.84 230.645 260.866 231.536 258.29 233.623C257.091 234.594 255.778 235.561 254.307 235.923C253.539 236.344 252.695 236.753 251.757 237.141C248.438 238.511 227.16 244.989 223.086 246.047C219.013 247.105 212.231 249.079 206.98 247.331C205.86 246.957 203.816 245.732 203.745 244.776C203.542 242.06 205.347 235.883 210.154 234.936Z" fill="url(#paint2_linear)"/>
<path d="M240.695 322.561C240.648 322.471 240.669 322.403 240.759 322.355C240.849 322.307 240.917 322.329 240.964 322.419C241.012 322.509 240.991 322.577 240.901 322.625C240.811 322.672 240.764 322.582 240.695 322.561ZM241.052 307.337C240.984 307.315 240.936 307.225 240.958 307.157C240.979 307.089 241.069 307.041 241.137 307.062C241.205 307.084 241.253 307.174 241.232 307.242C241.258 307.4 241.099 307.427 241.052 307.337ZM241.374 315.029C241.305 315.008 241.237 314.987 241.19 314.897C241.211 314.828 241.232 314.76 241.321 314.712C241.39 314.734 241.458 314.754 241.506 314.845C241.532 315.003 241.443 315.051 241.374 315.029ZM222.643 321.241C222.485 321.268 222.369 321.156 222.342 320.998C222.316 320.84 222.428 320.724 222.585 320.698C222.743 320.671 222.859 320.783 222.885 320.941C222.98 321.121 222.779 321.285 222.643 321.241ZM229.484 320.96C229.326 320.986 229.21 320.874 229.184 320.716C229.157 320.558 229.269 320.442 229.426 320.416C229.584 320.39 229.7 320.501 229.726 320.659C229.753 320.818 229.642 320.935 229.484 320.96ZM236.346 320.609C236.188 320.635 236.072 320.523 236.046 320.366C236.02 320.207 236.131 320.091 236.289 320.065C236.447 320.039 236.563 320.151 236.589 320.308C236.615 320.468 236.505 320.583 236.346 320.609ZM229.067 334.436C229.041 334.278 229.084 334.141 229.194 334.025C229.352 333.999 229.489 334.042 229.604 334.152C229.631 334.311 229.588 334.447 229.498 334.496C229.298 334.659 229.161 334.616 229.067 334.436ZM235.286 331.556C235.26 331.398 235.302 331.261 235.413 331.145C235.571 331.119 235.708 331.162 235.823 331.272C235.85 331.43 235.807 331.567 235.717 331.615C235.539 331.71 235.334 331.646 235.286 331.556ZM227.743 308.393C227.607 308.35 227.512 308.17 227.555 308.034C227.597 307.897 227.777 307.802 227.913 307.845C228.05 307.887 228.144 308.068 228.101 308.204C228.06 308.34 227.881 308.435 227.743 308.393ZM234.231 310.708C234.095 310.666 234 310.485 234.043 310.349C234.085 310.212 234.265 310.117 234.401 310.16C234.538 310.202 234.632 310.383 234.589 310.519C234.548 310.655 234.369 310.75 234.231 310.708ZM240.652 313.001C240.515 312.959 240.42 312.778 240.463 312.642C240.505 312.505 240.685 312.411 240.821 312.453C240.958 312.495 241.052 312.676 241.01 312.812C240.946 313.017 240.788 313.043 240.652 313.001ZM232.095 340.413C232.048 340.323 232.043 340.096 232.201 340.07C232.291 340.022 232.518 340.017 232.544 340.176C232.592 340.266 232.597 340.493 232.438 340.52C232.327 340.636 232.19 340.593 232.095 340.413ZM228.61 315.051C228.474 315.009 228.357 314.898 228.4 314.76C228.442 314.623 228.532 314.576 228.69 314.55C228.827 314.592 228.943 314.703 228.901 314.84C228.858 314.977 228.747 315.093 228.61 315.051ZM234.515 316.583C234.378 316.541 234.262 316.43 234.305 316.292C234.347 316.155 234.436 316.108 234.595 316.081C234.732 316.124 234.848 316.235 234.805 316.372C234.763 316.51 234.652 316.626 234.515 316.583ZM240.441 318.047C240.304 318.005 240.188 317.894 240.231 317.756C240.273 317.619 240.362 317.572 240.521 317.545C240.658 317.588 240.774 317.699 240.731 317.836C240.667 318.042 240.577 318.089 240.441 318.047ZM231.066 328.216C230.908 328.243 230.792 328.131 230.766 327.973C230.74 327.815 230.851 327.699 231.009 327.673C231.167 327.646 231.283 327.758 231.309 327.916C231.335 328.075 231.203 328.259 231.066 328.216ZM237.102 327.384C236.944 327.411 236.828 327.299 236.781 327.209C236.755 327.051 236.867 326.935 237.024 326.908C237.182 326.882 237.298 326.994 237.324 327.152C237.371 327.242 237.26 327.358 237.102 327.384ZM236.455 305.459C236.339 305.347 236.292 305.258 236.403 305.141C236.515 305.025 236.672 304.999 236.719 305.089C236.835 305.201 236.862 305.358 236.75 305.474C236.751 305.475 236.593 305.501 236.455 305.459ZM241.338 309.079C241.223 308.968 241.196 308.81 241.308 308.694C241.42 308.579 241.577 308.552 241.692 308.664C241.808 308.776 241.834 308.933 241.745 308.981C241.613 309.164 241.454 309.191 241.338 309.079C241.338 309.079 241.408 309.101 241.338 309.079ZM225.634 340.438C225.476 340.464 225.36 340.352 225.334 340.195C225.308 340.036 225.419 339.92 225.577 339.894C225.735 339.868 225.851 339.979 225.877 340.137C225.904 340.295 225.793 340.411 225.634 340.438ZM232.598 339.518C232.44 339.544 232.324 339.432 232.298 339.274C232.271 339.116 232.383 339 232.54 338.974C232.698 338.947 232.814 339.059 232.841 339.217C232.888 339.306 232.756 339.491 232.598 339.518ZM232.98 311.597C232.864 311.485 232.838 311.327 232.95 311.212C233.061 311.096 233.219 311.069 233.334 311.181C233.45 311.293 233.476 311.451 233.364 311.566C233.323 311.703 233.096 311.708 232.98 311.597ZM238.627 315.905C238.511 315.793 238.485 315.635 238.596 315.52C238.708 315.404 238.865 315.378 238.981 315.489C239.097 315.601 239.123 315.759 239.011 315.874C238.922 315.922 238.743 316.017 238.627 315.905ZM229.536 326.614C229.399 326.572 229.305 326.391 229.348 326.255C229.39 326.118 229.57 326.024 229.706 326.066C229.842 326.109 229.937 326.289 229.894 326.425C229.852 326.563 229.673 326.657 229.536 326.614ZM236.33 328.422C236.194 328.38 236.099 328.2 236.142 328.064C236.184 327.927 236.364 327.832 236.5 327.875C236.637 327.917 236.731 328.097 236.688 328.234C236.647 328.37 236.536 328.487 236.33 328.422ZM227.177 330.843C227.04 330.801 226.945 330.621 226.988 330.485C227.03 330.348 227.21 330.253 227.346 330.296C227.483 330.338 227.599 330.449 227.535 330.654C227.493 330.791 227.313 330.886 227.177 330.843ZM234.057 332.377C233.92 332.335 233.826 332.155 233.868 332.019C233.91 331.882 234.021 331.765 234.226 331.83C234.363 331.872 234.458 332.052 234.484 332.211C234.373 332.325 234.193 332.42 234.057 332.377ZM236.112 319.184C235.996 319.072 235.97 318.915 236.013 318.777C236.125 318.661 236.282 318.635 236.419 318.678C236.535 318.79 236.562 318.948 236.518 319.085C236.476 319.221 236.249 319.226 236.112 319.184Z" fill="white"/>
<path d="M210.187 243.562C210.267 243.562 210.346 243.534 210.41 243.477C210.549 243.353 210.56 243.141 210.436 243.003C208.416 240.74 207.016 238.596 206.159 236.45C205.125 233.863 204.882 231.158 205.475 228.834C205.672 228.059 205.97 227.287 206.258 226.54C206.689 225.423 207.134 224.267 207.277 223.041C207.721 219.232 205.206 215.778 202.965 213.194L202.37 212.513C200.2 210.034 197.956 207.469 197.438 204.305C197.409 204.122 197.237 203.993 197.053 204.029C196.871 204.058 196.747 204.232 196.777 204.414C197.326 207.768 199.634 210.405 201.867 212.956L202.459 213.635C204.609 216.114 207.025 219.414 206.611 222.963C206.478 224.105 206.067 225.171 205.633 226.299C205.339 227.064 205.034 227.855 204.826 228.668C204.198 231.13 204.45 233.982 205.536 236.7C206.423 238.92 207.863 241.128 209.937 243.451C210.004 243.524 210.095 243.562 210.187 243.562Z" fill="#23286B"/>
<path d="M723.067 344.559C722.902 346.167 725.404 347.741 728.657 348.075C731.91 348.409 734.744 347.19 734.91 345.582C735.076 343.975 732.51 342.588 729.257 342.254C726.004 341.92 723.232 342.952 723.067 344.559Z" fill="#7A1A4C"/>
<path d="M727.515 357.757C724.082 358.033 720.581 356.023 718.601 352.638C720.872 350.939 723.319 348.968 724.053 345.874C724.306 344.811 724.329 343.692 724.352 342.586C724.417 339.427 724.482 336.268 724.549 333.108C727.274 336.179 731.211 337.62 734.896 336.896C733.253 342.267 733.064 348.266 734.363 353.77C734.454 354.154 734.55 354.574 734.417 354.939C734.272 355.337 733.906 355.533 733.571 355.694C731.613 356.635 729.618 357.588 727.515 357.757Z" fill="#F2A19C"/>
<path d="M721.818 316.257C722.879 314.993 724.435 314.235 726.023 313.787C732.234 312.037 738.31 313.831 741.371 319.507C742.589 321.768 743.7 323.6 744.029 326.147C744.05 326.308 744.075 326.506 744.102 326.722C744.706 327.117 745.132 327.395 745.15 327.473C745.17 327.571 745.148 327.672 745.123 327.768C744.979 328.303 744.703 328.794 744.337 329.21C744.455 331.282 744.39 333.882 743.587 336.05C742.41 339.224 740.006 339.566 736.619 339.643C733.232 339.721 728.688 339.267 726.114 337.065C723.131 334.512 721.139 331.909 719.664 325.832C718.939 322.842 719.838 318.615 721.818 316.257Z" fill="#FFBEB6"/>
<path d="M603.091 487.495C605.36 481.31 610.73 477.29 616.843 474.829C621.459 472.971 626.429 472.203 631.349 471.456C632.302 471.311 633.262 471.166 634.226 471.201C635.229 471.238 637.028 470.767 638.013 470.961C643.526 472.046 648.448 472.679 653.934 471.467C653.455 476.735 653.587 482.39 653.463 487.677C648.638 487.894 606.382 487.586 603.091 487.495Z" fill="#1D72D8"/>
<path d="M667.787 368.22C668.536 366.276 669.335 364.26 670.862 362.841C672.389 361.422 676.891 361.222 678.916 361.721C685.901 363.442 696.711 389.142 699.381 393.805C702.144 398.632 704.867 403.488 707.297 408.49C707.313 408.522 707.328 408.555 707.344 408.588C707.388 408.535 707.437 408.488 707.481 408.436C714.597 415.081 725.728 416.036 735.867 416.597C735.729 422.488 735.529 428.389 734.736 434.236C733.875 440.597 732.188 447.127 727.79 452.11C723.393 457.094 715.29 462.338 708.788 459.978C707.139 459.38 705.989 456.209 704.239 455.946C702.939 455.751 701.61 455.931 700.308 456.119C694.504 456.957 687.835 457.734 683.407 454.194C682.005 453.072 680.979 451.605 680.154 450.076C677.966 446.026 675.638 430.284 674.669 426.921C674.581 434.372 676.301 442.134 674.281 449.328C671.551 459.053 656.342 462.076 654.11 471.927C643.882 472.888 640.822 472.149 629.914 471.939C641.928 437.148 654.554 402.568 667.787 368.22Z" fill="#151A4F"/>
<path d="M770.78 417.854C773.163 425.314 774.418 430.078 775.986 437.287C776.354 438.978 777.712 441.523 779.224 442.46C779.41 442.546 779.598 442.628 779.788 442.707C780.356 442.868 781.286 443.001 782.388 443.113C782.809 443.074 783.232 443.005 783.649 442.933C786.924 442.375 790.199 441.816 793.474 441.258C795.166 440.969 796.959 440.69 798.556 441.32C798.853 441.437 799.19 441.695 799.093 441.999C797.114 442.216 795.134 442.433 793.154 442.65C793.223 442.881 793.494 442.975 793.729 443.035C797.699 444.038 801.739 444.77 805.811 445.22C806.278 445.271 806.769 445.328 807.153 445.6C807.536 445.871 807.755 446.437 807.491 446.826C807.272 447.146 806.837 447.22 806.45 447.248C805.489 447.318 804.534 447.271 803.582 447.166C805.83 448.038 807.337 448.811 806.902 449.115C805.081 450.389 802.565 449.964 800.566 448.991C798.568 448.018 797.152 446.777 794.933 446.628C791.836 446.42 788.114 446.579 784.285 446.141C782.757 445.967 780.857 445.887 779.872 446.317C781.849 447.753 784.501 447.649 786.942 447.77C789.384 447.892 795.432 449.555 793.281 450.716C791.797 451.517 782.392 449.467 776.947 448.843C776.249 448.763 775.529 448.676 774.917 448.332C774.115 447.883 773.606 447.057 773.147 446.258C771.296 443.033 769.689 439.669 768.345 436.202C766.175 430.61 766.994 422.506 770.78 417.854Z" fill="#F2A19C"/>
<path d="M742.519 380.148C742.641 378.114 743.356 376.165 744.128 374.279C746.931 367.428 750.158 361.003 754.556 355.048C756.155 356.687 768.236 409.211 777.298 435.603C774.277 436.681 771.256 437.76 768.234 438.839C761.465 422.546 754.002 406.542 745.872 390.883C744.122 387.512 742.291 383.938 742.519 380.148Z" fill="url(#paint3_linear)"/>
<path d="M687.292 348.789C688.3 346.824 688.98 344.615 690.551 343.062C693.659 339.989 698.698 340.71 703.066 340.888C707.434 341.067 712.971 339.391 713.362 335.04C713.62 332.16 711.427 328.867 713.255 326.625C714.358 325.272 716.343 325.18 718.004 324.641C721.914 323.37 724.366 318.36 722.355 314.776C720.345 311.193 713.995 311.17 712.466 314.984C711.978 316.199 711.979 317.591 711.344 318.737C708.519 323.83 698.609 318.126 695.42 323.002C694.05 325.097 694.951 327.961 694.104 330.315C692.565 334.603 686.628 334.897 682.162 333.98C677.697 333.064 672.262 332.012 669.236 335.42C666.895 338.058 667.314 342.048 666.498 345.479C665.635 349.109 663.187 352.333 659.923 354.145C663.977 357.628 669.661 359.129 674.908 358.103C680.155 357.076 684.853 353.543 687.292 348.789Z" fill="#DF457A"/>
<path d="M657.011 352.17C656.675 352.74 656.489 353.401 656.421 354.07C656.06 357.645 659.091 360.764 662.347 361.68C665.603 362.597 669.038 361.925 672.385 361.529C686.401 359.875 700.466 363.207 714.222 366.517C714.187 359.614 711.31 353.135 708.492 346.922C708.234 346.351 707.945 345.746 707.426 345.436C706.936 345.142 706.339 345.174 705.777 345.214C691.272 346.252 676.795 347.727 662.368 349.634C660.362 349.901 658.092 350.345 657.011 352.17Z" fill="#1D72D8"/>
<path d="M634.247 487.495C636.516 481.31 641.886 477.29 648 474.829C652.616 472.971 657.585 472.203 662.505 471.456C663.458 471.311 664.419 471.166 665.382 471.201C666.386 471.238 668.184 470.767 669.17 470.961C674.683 472.046 679.605 472.679 685.091 471.467C684.611 476.735 684.743 482.39 684.62 487.677C679.794 487.894 637.538 487.586 634.247 487.495Z" fill="url(#paint4_linear)"/>
<path d="M732.341 351.733C730.114 351.792 727.873 351.247 725.921 350.171C724.685 349.49 723.564 348.601 722.267 348.042C720.992 347.493 719.601 347.286 718.227 347.084C714.047 346.469 711.22 345.918 707.039 345.304C708.148 370.389 704.581 395.554 699.123 420.064C708.799 418.845 718.504 418.372 723.431 426.783C724.599 428.775 731.847 436.52 737.716 442.496C738.444 425.584 747.171 392.995 747.171 392.995C747.171 392.995 745.357 378.097 754.555 355.037C749.881 351.663 743.896 350.156 738.18 350.912C736.23 351.17 734.307 351.681 732.341 351.733Z" fill="url(#paint5_linear)"/>
<path d="M721.162 314.479C723.556 311.212 728.199 310.215 732.134 311.178C736.07 312.141 739.409 314.71 742.363 317.481C742.558 317.663 742.759 317.862 742.815 318.122C742.893 318.492 742.651 318.846 742.415 319.142C738.95 323.463 729.836 328.35 724.313 328.802C724.018 328.825 724.862 316.826 721.162 314.479Z" fill="#DF457A"/>
<path d="M695.858 449.135C690.111 437.979 688.4 423.715 687.391 411.208C686.839 404.376 686.979 397.274 684.188 391.014C683.191 388.779 681.838 386.698 681.076 384.374C680.118 381.449 680.15 378.306 680.193 375.229C680.301 367.182 676.857 356.697 684.896 356.189C692.805 355.688 695.17 364.652 699.194 371.474C704.973 381.27 710.756 391.073 715.973 401.18C719.07 407.178 721.964 413.279 724.851 419.381C727.261 424.476 729.701 429.702 730.242 435.311C731.003 443.197 727.661 451.368 721.59 456.465C719.571 458.159 716.903 460.036 714.296 460.421C706.808 461.527 699.323 455.858 695.858 449.135Z" fill="url(#paint6_linear)"/>
<path d="M692.778 385.952C693.916 383.665 695.551 381.567 696.131 379.09C696.77 376.367 696.051 373.537 695.337 370.831C693.771 364.908 692.296 355.278 686.034 355.535C679.233 355.814 676.275 366.144 674.486 372.564C665.659 404.232 660.439 436.265 655.009 469.827C664.845 471.773 674.875 472.798 684.914 472.881C688.938 465.385 690.677 456.752 689.859 448.339C689.559 445.262 688.926 442.189 689.167 439.107C689.525 434.542 691.769 430.322 692.699 425.834C695.435 412.631 686.747 398.083 692.778 385.952Z" fill="url(#paint7_linear)"/>
<path d="M741.82 325.126C741.83 325.126 741.839 325.126 741.849 325.126C743.385 325.002 744.8 323.958 745.368 322.526C745.44 322.347 745.352 322.143 745.172 322.072C744.99 322 744.788 322.088 744.717 322.268C744.245 323.457 743.07 324.326 741.794 324.428C741.6 324.443 741.457 324.612 741.472 324.806C741.486 324.987 741.639 325.126 741.82 325.126Z" fill="#23286B"/>
<path d="M731.608 330.626C733.709 330.626 735.782 329.598 737.01 327.871C737.122 327.713 737.085 327.495 736.928 327.383C736.771 327.271 736.552 327.308 736.44 327.466C735.164 329.259 732.76 330.231 730.596 329.834C730.402 329.799 730.223 329.925 730.187 330.115C730.152 330.305 730.278 330.488 730.468 330.523C730.845 330.592 731.227 330.626 731.608 330.626Z" fill="#23286B"/>
<path d="M737.546 353.897C738.28 352.487 739.278 350.952 740.851 350.716C738.711 349.092 736.721 347.272 734.914 345.284C733.14 347.817 730.97 350.135 728.056 351.178C728.738 351.785 730.374 354.355 730.792 355.166C732.377 358.238 732.354 359.217 733.939 362.289C734.932 359.407 736.139 356.6 737.546 353.897Z" fill="#9F2156"/>
<path d="M720.121 358.68C720.408 354.579 719.443 350.398 717.388 346.838C719.643 346.247 721.76 345.135 723.528 343.616C723.91 346.333 726.015 349.348 728.089 351.147C724.839 353.685 722.968 356.453 720.121 358.68Z" fill="#9F2156"/>
<path d="M744.266 316.824C744.356 316.824 744.446 316.79 744.514 316.721C744.65 316.583 744.649 316.361 744.513 316.225C741.221 312.955 737.504 310.858 733.764 310.162C729.352 309.342 724.859 310.583 722.035 313.404C721.898 313.541 721.898 313.763 722.035 313.9C722.171 314.037 722.394 314.037 722.531 313.9C725.194 311.239 729.45 310.069 733.635 310.851C737.235 311.522 740.825 313.552 744.018 316.721C744.088 316.791 744.176 316.824 744.266 316.824Z" fill="#DF457A"/>
<path d="M690.677 353.586C690.69 353.586 690.703 353.585 690.717 353.584C690.909 353.562 691.048 353.389 691.026 353.197C690.617 349.517 693.823 346.295 697.203 345.015C699.713 344.064 702.472 343.823 705.14 343.591C706.231 343.497 707.357 343.399 708.458 343.253C711.959 342.792 714.129 341.617 715.088 339.663C715.936 337.94 715.607 336.005 715.289 334.135C714.98 332.314 714.688 330.594 715.397 329.079C715.998 327.794 717.243 326.911 718.447 326.056C718.763 325.832 719.08 325.607 719.385 325.376C720.364 324.635 722.578 322.653 721.99 320.272C721.945 320.084 721.754 319.967 721.567 320.016C721.378 320.062 721.263 320.252 721.31 320.44C721.797 322.418 719.831 324.16 718.962 324.818C718.663 325.044 718.352 325.265 718.041 325.486C716.764 326.392 715.443 327.33 714.762 328.782C713.96 330.496 714.284 332.405 714.598 334.252C714.911 336.094 715.206 337.833 714.459 339.354C713.611 341.081 711.618 342.129 708.367 342.558C707.281 342.701 706.161 342.798 705.079 342.893C702.363 343.129 699.556 343.374 696.954 344.359C693.322 345.735 689.881 349.239 690.33 353.274C690.349 353.454 690.501 353.586 690.677 353.586Z" fill="#DF457A"/>
<path d="M718.401 311.586H724.482V317.663H718.401V311.586Z" fill="url(#paint8_linear)"/>
<path d="M684.708 357.029C683.352 359.197 682.513 361.285 683.836 362.11C685.159 362.936 688.14 362.189 689.497 360.019C690.853 357.851 690.881 355.424 689.56 354.598C688.238 353.771 686.065 354.86 684.708 357.029Z" fill="#1D72D8"/>
<path d="M666.172 350.689C668.424 348.455 672.158 349.231 675.192 350.161C682.058 352.264 688.922 354.367 695.788 356.47C696.871 357.166 698.411 361.526 699.301 367.24C701.307 373.74 703.312 380.241 705.318 386.742C703.604 386.796 702.607 384.876 702.032 383.262C701.351 381.354 700.671 379.446 699.991 377.538C699.979 377.973 699.965 378.41 699.942 378.844C699.802 381.536 695.034 387.442 694.793 386.191C694.279 383.506 696.085 381.601 696.379 379.565C696.228 380.418 695.656 380.679 695.082 381.569C694.422 382.594 691.684 384.229 691.758 383.014C691.878 381.041 694.631 380.094 693.706 376.411C693.287 378.984 690.891 379.547 688.867 378.537C687.802 378.005 684.903 375.439 685.977 374.926C687.243 374.322 689.852 376.636 690.635 375.474C691.418 374.312 691.337 372.771 690.997 371.411C690.656 370.051 690.085 368.736 689.98 367.339C689.868 365.858 690.288 364.388 690.34 362.903C690.391 361.418 689.94 359.746 688.637 359.03C687.626 358.475 686.389 358.644 685.243 358.784C678.826 359.568 672.236 358.911 666.1 356.876C664.515 355.228 664.547 352.299 666.172 350.689Z" fill="#FFBEB6"/>
<path d="M666.024 362.264C663.155 361.971 660.194 361.372 657.905 359.619C655.616 357.866 654.21 354.682 655.29 352.01C656.347 349.395 659.29 348.109 662.04 347.468C673.247 344.857 679.886 347.462 689.157 354.274C687.894 354.404 688.461 354.074 686.181 356.387C683.159 359.451 684.532 362.362 684.532 362.362C684.532 362.362 680.543 362.203 679.58 362.274C676.591 362.495 675.381 362.389 672.64 362.484C670.433 362.562 668.221 362.487 666.024 362.264Z" fill="url(#paint9_linear)"/>
<path d="M714.892 424.046C714.995 424.144 715.018 424.284 714.919 424.387C714.821 424.489 714.681 424.512 714.578 424.413C714.476 424.315 714.453 424.175 714.552 424.072C714.651 423.971 714.791 423.948 714.892 424.046ZM729.721 442.605C729.862 442.582 729.964 442.681 729.986 442.82C730.009 442.96 729.911 443.063 729.771 443.085C729.63 443.108 729.528 443.009 729.506 442.87C729.422 442.712 729.581 442.628 729.721 442.605ZM723.662 442.847C723.803 442.824 723.905 442.923 723.927 443.062C723.95 443.202 723.852 443.305 723.712 443.327C723.572 443.35 723.469 443.251 723.447 443.112C723.406 443.034 723.523 442.87 723.662 442.847ZM724.046 430.943C724.069 431.084 724.031 431.205 723.933 431.307C723.793 431.33 723.671 431.292 723.569 431.194C723.546 431.054 723.584 430.933 723.663 430.891C723.841 430.748 723.963 430.785 724.046 430.943ZM718.517 433.542C718.54 433.683 718.502 433.804 718.404 433.906C718.263 433.93 718.142 433.892 718.04 433.793C718.017 433.653 718.055 433.532 718.134 433.49C718.312 433.346 718.494 433.402 718.517 433.542ZM725.191 453.95C725.313 453.988 725.396 454.147 725.358 454.268C725.32 454.39 725.162 454.473 725.041 454.435C724.919 454.397 724.836 454.238 724.874 454.117C724.911 453.996 725.07 453.913 725.191 453.95ZM719.449 451.9C719.57 451.938 719.654 452.096 719.616 452.217C719.578 452.339 719.419 452.422 719.298 452.384C719.177 452.346 719.093 452.188 719.131 452.066C719.168 451.945 719.327 451.862 719.449 451.9ZM721.37 425.662C721.412 425.741 721.416 425.941 721.276 425.964C721.197 426.006 720.997 426.01 720.974 425.87C720.932 425.791 720.928 425.591 721.067 425.568C721.165 425.464 721.287 425.502 721.37 425.662ZM716.666 428.383C716.708 428.463 716.712 428.663 716.573 428.686C716.493 428.728 716.353 428.751 716.27 428.592C716.228 428.513 716.205 428.373 716.364 428.29C716.503 428.267 716.625 428.303 716.666 428.383ZM724.431 448.068C724.552 448.106 724.654 448.204 724.617 448.325C724.579 448.447 724.5 448.488 724.359 448.511C724.238 448.473 724.136 448.375 724.173 448.254C724.211 448.133 724.309 448.03 724.431 448.068ZM719.204 446.708C719.325 446.746 719.427 446.845 719.39 446.966C719.352 447.087 719.273 447.128 719.133 447.152C719.011 447.113 718.909 447.015 718.947 446.894C718.983 446.774 719.082 446.671 719.204 446.708ZM722.269 436.436C722.409 436.412 722.512 436.511 722.534 436.651C722.557 436.791 722.458 436.893 722.318 436.915C722.178 436.939 722.075 436.84 722.053 436.7C722.031 436.561 722.129 436.459 722.269 436.436ZM727.091 425.647C727.232 425.623 727.334 425.722 727.356 425.862C727.379 426.002 727.28 426.104 727.141 426.126C727 426.15 726.898 426.051 726.876 425.911C726.853 425.772 726.951 425.67 727.091 425.647ZM720.905 426.514C721.046 426.49 721.148 426.589 721.17 426.729C721.193 426.868 721.095 426.971 720.955 426.993C720.815 427.017 720.712 426.918 720.69 426.778C720.666 426.638 720.766 426.536 720.905 426.514ZM714.678 427.301C714.818 427.277 714.921 427.376 714.942 427.516C714.966 427.655 714.867 427.758 714.727 427.78C714.587 427.804 714.484 427.705 714.462 427.565C714.499 427.444 714.598 427.342 714.678 427.301ZM720.556 451.114C720.658 451.213 720.682 451.352 720.583 451.455C720.485 451.558 720.344 451.581 720.242 451.482C720.14 451.384 720.116 451.244 720.215 451.141C720.253 451.021 720.454 451.017 720.556 451.114ZM709.22 420.489C709.38 420.405 709.5 420.443 709.584 420.602L709.22 420.489ZM723.622 437.853C723.744 437.891 723.827 438.05 723.789 438.171C723.751 438.293 723.593 438.376 723.472 438.338C723.35 438.3 723.267 438.141 723.305 438.02C723.343 437.899 723.501 437.815 723.622 437.853ZM725.716 434.12C725.838 434.158 725.921 434.316 725.883 434.437C725.845 434.559 725.686 434.642 725.565 434.604C725.444 434.566 725.342 434.468 725.398 434.286C725.435 434.166 725.595 434.082 725.716 434.12ZM719.625 432.758C719.746 432.796 719.83 432.954 719.792 433.075C719.754 433.197 719.656 433.299 719.474 433.242C719.353 433.204 719.269 433.046 719.246 432.906C719.345 432.804 719.504 432.72 719.625 432.758ZM716.401 422.191C716.541 422.167 716.644 422.266 716.666 422.406C716.689 422.546 716.59 422.648 716.431 422.732C716.291 422.755 716.188 422.656 716.105 422.497C716.164 422.315 716.262 422.213 716.401 422.191ZM714.692 424.05C714.814 424.088 714.855 424.167 714.897 424.246C714.859 424.368 714.78 424.409 714.701 424.451C714.579 424.413 714.538 424.334 714.496 424.255C714.534 424.134 714.632 424.031 714.692 424.05Z" fill="white"/>
<defs>
<linearGradient id="paint0_linear" x1="242.873" y1="266.519" x2="196.045" y2="266.519" gradientUnits="userSpaceOnUse">
<stop stop-color="#A1C3FC"/>
<stop offset="1" stop-color="#81AEF2"/>
</linearGradient>
<linearGradient id="paint1_linear" x1="243.202" y1="383.997" x2="172.293" y2="383.997" gradientUnits="userSpaceOnUse">
<stop stop-color="#23286B"/>
<stop offset="1" stop-color="#151A4F"/>
</linearGradient>
<linearGradient id="paint2_linear" x1="266.778" y1="233.037" x2="216.777" y2="233.037" gradientUnits="userSpaceOnUse">
<stop stop-color="#A1C3FC"/>
<stop offset="1" stop-color="#81AEF2"/>
</linearGradient>
<linearGradient id="paint3_linear" x1="774.786" y1="381.799" x2="755.681" y2="410.778" gradientUnits="userSpaceOnUse">
<stop stop-color="#428DFC"/>
<stop offset="1" stop-color="#1D72D8"/>
</linearGradient>
<linearGradient id="paint4_linear" x1="634.106" y1="479.333" x2="684.95" y2="479.333" gradientUnits="userSpaceOnUse">
<stop stop-color="#428DFC"/>
<stop offset="1" stop-color="#1D72D8"/>
</linearGradient>
<linearGradient id="paint5_linear" x1="754.484" y1="393.901" x2="699.052" y2="393.901" gradientUnits="userSpaceOnUse">
<stop stop-color="#428DFC"/>
<stop offset="1" stop-color="#1D72D8"/>
</linearGradient>
<linearGradient id="paint6_linear" x1="706.314" y1="381.085" x2="702.777" y2="432.016" gradientUnits="userSpaceOnUse">
<stop stop-color="#23286B"/>
<stop offset="1" stop-color="#151A4F"/>
</linearGradient>
<linearGradient id="paint7_linear" x1="673.482" y1="414.766" x2="689.704" y2="452.979" gradientUnits="userSpaceOnUse">
<stop stop-color="#23286B"/>
<stop offset="1" stop-color="#151A4F"/>
</linearGradient>
<linearGradient id="paint8_linear" x1="721.317" y1="314.33" x2="722.514" y2="317.15" gradientUnits="userSpaceOnUse">
<stop stop-color="#23286B"/>
<stop offset="1" stop-color="#151A4F"/>
</linearGradient>
<linearGradient id="paint9_linear" x1="689.066" y1="354.493" x2="654.828" y2="354.493" gradientUnits="userSpaceOnUse">
<stop stop-color="#428DFC"/>
<stop offset="1" stop-color="#1D72D8"/>
</linearGradient>
</defs>
</svg>
