<svg width="916" height="611" viewBox="0 0 916 611" fill="none" xmlns="http://www.w3.org/2000/svg">
<g clip-path="url(#clip0)">
<path d="M653.091 441.805L653.038 441.736C653.031 441.78 653.021 441.82 653.015 441.861L653.091 441.805Z" fill="#151A4F"/>
<path d="M619.757 505.96C620.163 505.558 620.565 505.155 620.966 504.749L619.621 505.781L619.757 505.96Z" fill="#151A4F"/>
<path d="M597.606 522.657L597.877 523.008C600.758 521.271 603.538 519.4 606.239 517.437L605.563 516.557L597.606 522.657Z" fill="#151A4F"/>
<path d="M645.277 468.403C646.587 465.328 647.748 462.183 648.793 458.992L642.033 464.175L645.277 468.403Z" fill="#151A4F"/>
<path d="M620.04 481.035L626.143 488.988L634.102 482.891L627.999 474.937L620.04 481.035Z" fill="#151A4F"/>
<path d="M598.028 497.91L604.132 505.864L612.091 499.766L605.987 491.813L598.028 497.91Z" fill="#151A4F"/>
<path d="M576.017 514.789L582.12 522.743L590.079 516.645L583.976 508.692L576.017 514.789Z" fill="#151A4F"/>
<path d="M563.857 536.741L568.037 533.536L561.934 525.584L553.978 531.683L558.693 537.827C559.103 537.75 559.51 537.697 559.921 537.619C561.246 537.358 562.55 537.043 563.857 536.741Z" fill="#151A4F"/>
<path d="M639.029 439.953L645.132 447.906L653.013 441.864C653.019 441.823 653.03 441.78 653.036 441.739L646.987 433.856L639.029 439.953Z" fill="#151A4F"/>
<path d="M631.057 458.7L624.954 450.746L616.995 456.844L623.098 464.797L631.057 458.7Z" fill="#151A4F"/>
<path d="M609.04 475.575L602.937 467.622L594.978 473.719L601.081 481.673L609.04 475.575Z" fill="#151A4F"/>
<path d="M587.028 492.452L580.924 484.499L572.965 490.596L579.069 498.55L587.028 492.452Z" fill="#151A4F"/>
<path d="M565.014 509.327L558.91 501.373L550.951 507.471L557.054 515.424L565.014 509.327Z" fill="#151A4F"/>
<path d="M639.451 415.206L645.555 423.159L653.514 417.062L647.41 409.108L639.451 415.206Z" fill="#151A4F"/>
<path d="M617.434 432.083L623.538 440.037L631.497 433.939L625.394 425.986L617.434 432.083Z" fill="#151A4F"/>
<path d="M595.416 448.96L601.52 456.913L609.479 450.816L603.375 442.862L595.416 448.96Z" fill="#151A4F"/>
<path d="M573.407 465.837L579.511 473.791L587.47 467.693L581.366 459.74L573.407 465.837Z" fill="#151A4F"/>
<path d="M551.4 482.715L557.503 490.669L565.462 484.571L559.359 476.618L551.4 482.715Z" fill="#151A4F"/>
<path d="M529.385 499.593L535.489 507.547L543.448 501.449L537.344 493.496L529.385 499.593Z" fill="#151A4F"/>
<path d="M650.471 392.874L644.367 384.921L636.408 391.018L642.512 398.972L650.471 392.874Z" fill="#151A4F"/>
<path d="M628.455 409.747L622.351 401.794L614.392 407.891L620.496 415.845L628.455 409.747Z" fill="#151A4F"/>
<path d="M606.443 426.624L600.34 418.671L592.381 424.768L598.484 432.721L606.443 426.624Z" fill="#151A4F"/>
<path d="M584.425 443.498L578.322 435.544L570.363 441.642L576.466 449.595L584.425 443.498Z" fill="#151A4F"/>
<path d="M562.41 460.376L556.306 452.422L548.347 458.52L554.451 466.473L562.41 460.376Z" fill="#151A4F"/>
<path d="M540.397 477.251L534.294 469.298L526.335 475.395L532.438 483.348L540.397 477.251Z" fill="#151A4F"/>
<path d="M642.932 374.225L643.828 373.538C642.402 370.434 640.841 367.417 639.163 364.481L636.826 366.273L642.932 374.225Z" fill="#151A4F"/>
<path d="M614.831 383.13L620.935 391.083L628.894 384.986L622.79 377.032L614.831 383.13Z" fill="#151A4F"/>
<path d="M592.817 400.007L598.92 407.961L606.879 401.863L600.776 393.91L592.817 400.007Z" fill="#151A4F"/>
<path d="M570.804 416.887L576.908 424.84L584.867 418.743L578.763 410.789L570.804 416.887Z" fill="#151A4F"/>
<path d="M548.791 433.764L554.895 441.718L562.854 435.62L556.75 427.667L548.791 433.764Z" fill="#151A4F"/>
<path d="M526.779 450.64L532.883 458.594L540.842 452.496L534.738 444.543L526.779 450.64Z" fill="#151A4F"/>
<path d="M504.766 467.518L510.87 475.472L518.829 469.374L512.725 461.421L504.766 467.518Z" fill="#151A4F"/>
<path d="M625.856 360.796L619.752 352.843L611.793 358.94L617.897 366.894L625.856 360.796Z" fill="#151A4F"/>
<path d="M589.813 375.784L595.917 383.737L603.876 377.64L597.772 369.686L589.813 375.784Z" fill="#151A4F"/>
<path d="M567.803 392.664L573.907 400.617L581.866 394.52L575.762 386.567L567.803 392.664Z" fill="#151A4F"/>
<path d="M559.809 411.421L553.705 403.468L545.746 409.565L551.85 417.518L559.809 411.421Z" fill="#151A4F"/>
<path d="M537.796 428.299L531.693 420.346L523.734 426.443L529.837 434.397L537.796 428.299Z" fill="#151A4F"/>
<path d="M515.78 445.173L509.677 437.219L501.718 443.317L507.821 451.27L515.78 445.173Z" fill="#151A4F"/>
<path d="M618.58 338.106C616.264 335.883 613.876 333.745 611.39 331.722L617.135 339.209L618.58 338.106Z" fill="#151A4F"/>
<path d="M603.062 350.005L596.958 342.052L588.999 348.149L595.103 356.103L603.062 350.005Z" fill="#151A4F"/>
<path d="M567.022 364.997L573.125 372.95L581.084 366.853L574.981 358.899L567.022 364.997Z" fill="#151A4F"/>
<path d="M559.036 383.756L552.933 375.803L544.974 381.901L551.077 389.854L559.036 383.756Z" fill="#151A4F"/>
<path d="M537.022 400.633L530.919 392.68L522.96 398.777L529.063 406.73L537.022 400.633Z" fill="#151A4F"/>
<path d="M515.009 417.507L508.906 409.554L500.946 415.651L507.05 423.605L515.009 417.507Z" fill="#151A4F"/>
<path d="M478.971 432.507L485.074 440.46L493.033 434.363L486.93 426.41L478.971 432.507Z" fill="#151A4F"/>
<path d="M592.121 331.864L600.077 325.765L596.941 321.679C595.42 320.781 593.88 319.912 592.319 319.082L586.019 323.914L592.121 331.864Z" fill="#151A4F"/>
<path d="M578.049 342.656L571.945 334.703L563.986 340.8L570.09 348.754L578.049 342.656Z" fill="#151A4F"/>
<path d="M556.034 359.532L549.93 351.579L541.971 357.676L548.075 365.63L556.034 359.532Z" fill="#151A4F"/>
<path d="M534.02 376.409L527.916 368.455L519.957 374.553L526.061 382.506L534.02 376.409Z" fill="#151A4F"/>
<path d="M512.005 393.284L505.902 385.331L497.943 391.428L504.046 399.382L512.005 393.284Z" fill="#151A4F"/>
<path d="M489.99 410.159L483.887 402.206L475.928 408.303L482.031 416.257L489.99 410.159Z" fill="#151A4F"/>
<path d="M570.508 324.013L578.464 317.914L573.137 310.973C572.642 310.814 572.151 310.653 571.653 310.502L564.403 316.059L570.508 324.013Z" fill="#151A4F"/>
<path d="M556.436 334.806L550.332 326.853L542.373 332.95L548.477 340.903L556.436 334.806Z" fill="#151A4F"/>
<path d="M520.393 349.8L526.497 357.753L534.456 351.656L528.352 343.703L520.393 349.8Z" fill="#151A4F"/>
<path d="M498.379 366.676L504.482 374.63L512.441 368.532L506.338 360.579L498.379 366.676Z" fill="#151A4F"/>
<path d="M476.369 383.557L482.472 391.51L490.431 385.413L484.328 377.459L476.369 383.557Z" fill="#151A4F"/>
<path d="M454.353 400.434L460.457 408.387L468.416 402.29L462.312 394.337L454.353 400.434Z" fill="#151A4F"/>
<path d="M545.489 316.666L553.445 310.566L549.962 306.028C547.835 305.798 545.693 305.642 543.542 305.527L539.384 308.715L545.489 316.666Z" fill="#151A4F"/>
<path d="M531.42 327.455L525.317 319.502L517.358 325.599L523.461 333.553L531.42 327.455Z" fill="#151A4F"/>
<path d="M509.404 344.332L503.3 336.379L495.341 342.476L501.445 350.429L509.404 344.332Z" fill="#151A4F"/>
<path d="M487.391 361.207L481.288 353.253L473.329 359.351L479.432 367.304L487.391 361.207Z" fill="#151A4F"/>
<path d="M465.376 378.081L459.272 370.128L451.313 376.225L457.417 384.179L465.376 378.081Z" fill="#151A4F"/>
<path d="M527.848 305.772C525.909 305.93 523.968 306.141 522.024 306.398L523.879 308.816L527.848 305.772Z" fill="#151A4F"/>
<path d="M509.805 319.605L503.702 311.651L495.743 317.749L501.846 325.702L509.805 319.605Z" fill="#151A4F"/>
<path d="M487.792 336.479L481.689 328.526L473.73 334.623L479.833 342.577L487.792 336.479Z" fill="#151A4F"/>
<path d="M465.776 353.354L459.672 345.401L451.713 351.498L457.817 359.452L465.776 353.354Z" fill="#151A4F"/>
<path d="M443.778 370.221L437.674 362.268L436.047 363.514C434.576 366.031 433.188 368.595 431.904 371.217L435.819 376.321L443.778 370.221Z" fill="#151A4F"/>
<path d="M482.382 203.554C476.505 193.456 461.171 190.531 451.988 197.761C449.043 200.079 446.616 203.272 443.067 204.472C434.212 207.468 425.79 196.435 416.538 197.77C400.714 200.05 404.949 231.35 389.131 233.664C380.308 234.955 372.76 225.004 363.936 226.27C351.309 228.083 349.51 249.917 336.813 251.145C332.117 251.599 327.74 248.804 323.071 248.134C318.4 247.464 312.343 251.127 313.994 255.543C316.627 267.584 316.26 267.584 319.781 278.882C326.541 300.555 332.45 322.936 350.916 336.16C369.383 349.382 389.138 357.409 410.953 363.733C430.806 369.487 453.761 373.82 474.345 371.923C501.112 369.456 525.32 353.964 543.617 334.285C561.914 314.605 575.112 290.84 588.129 267.334C582.841 272.277 574.065 268.021 569.37 262.513C564.674 257.005 560.7 249.871 553.674 248.119C547.693 246.628 541.206 249.644 535.305 247.86C523.689 244.346 521.777 225.179 509.757 223.504C505.113 222.856 500.327 225.283 495.793 224.095C487.582 221.941 486.651 210.891 482.382 203.554Z" fill="#DF457A"/>
<path d="M477.269 360.051C475.775 359.344 474.283 358.638 472.789 357.931C474.361 331.802 474.229 305.572 472.399 279.46C461.635 286.446 448.34 289.434 435.621 287.727C439.38 312.454 439.634 337.71 436.377 362.508C449.904 360.528 463.601 359.703 477.269 360.051Z" fill="#F2A19C"/>
<path d="M439.528 537.176L297.48 557.368L276 406.422L418.05 386.23L439.528 537.176Z" fill="#009BA2"/>
<path d="M387.445 302.856L374.96 309.253H390.722L387.445 302.856Z" fill="#9FFBFF"/>
<path d="M331.297 331.617H402.191L396.156 319.846H354.277L331.297 331.617Z" fill="#9FFBFF"/>
<path d="M287.633 353.983H413.661L407.623 342.212H310.614L287.633 353.983Z" fill="#9FFBFF"/>
<path d="M293.542 376.348H425.128L419.092 364.576H287.506L293.542 376.348Z" fill="#9FFBFF"/>
<path d="M305.009 398.714H436.597L430.562 386.943H298.974L305.009 398.714Z" fill="#9FFBFF"/>
<path d="M316.477 421.081H411.106L434.087 409.307H310.441L316.477 421.081Z" fill="#9FFBFF"/>
<path d="M327.946 443.445H367.441L390.422 431.674H321.91L327.946 443.445Z" fill="#9FFBFF"/>
<path d="M336.162 459.469L346.76 454.04H333.378L336.162 459.469Z" fill="#9FFBFF"/>
<path d="M706.074 177.973C710.195 177.973 713.536 174.635 713.536 170.518C713.536 166.4 710.195 163.062 706.074 163.062C701.953 163.062 698.612 166.4 698.612 170.518C698.612 174.635 701.953 177.973 706.074 177.973Z" fill="#D9E021"/>
<path d="M606.573 14.1179L604.3 21.4292L611.616 23.7002L613.89 16.3889L606.573 14.1179Z" fill="#A1C3FC"/>
<path d="M651.552 24.5034L645.362 44.4111L665.281 50.5943L671.471 30.6865L651.552 24.5034Z" fill="#DF457A"/>
<path d="M622.126 100.3L615.935 120.207L635.854 126.39L642.045 106.483L622.126 100.3Z" fill="#009BA2"/>
<path d="M634.047 63.7284C633.733 63.7284 633.435 63.5512 633.293 63.2472C623.53 42.2227 629.55 15.1157 647.3 0.19507C647.65 -0.101265 648.173 -0.0539127 648.468 0.295885C648.763 0.645683 648.717 1.16962 648.367 1.4629C631.169 15.9176 625.337 42.18 634.797 62.5507C634.99 62.9647 634.808 63.458 634.394 63.652C634.285 63.7024 634.164 63.7284 634.047 63.7284Z" fill="#23286B"/>
<path d="M707.224 144.982C707.007 144.982 706.789 144.898 706.626 144.729C706.306 144.4 706.319 143.875 706.647 143.557C718.664 131.976 739.745 131.1 752.684 141.638C753.039 141.927 753.093 142.448 752.804 142.802C752.516 143.16 751.995 143.21 751.637 142.922C739.318 132.887 719.242 133.724 707.8 144.75C707.639 144.904 707.43 144.982 707.224 144.982Z" fill="#23286B"/>
<path d="M450.61 306.731C458.238 306.1 465.201 301.965 470.846 296.798C482.852 285.804 489.898 269.59 489.737 253.316C489.685 248.052 488.907 242.762 487.082 237.825C480.674 220.494 460.22 209.709 442.289 214.207C435.281 215.965 428.779 219.792 423.968 225.179C414.248 236.06 412.285 251.975 414.142 266.442C415.419 276.378 418.403 286.354 424.602 294.225C430.802 302.096 440.621 307.556 450.61 306.731Z" fill="#FFBEB6"/>
<path d="M424.798 270.935C430.308 278.726 440.545 280.175 450.088 279.856C459.164 279.555 465.442 275.721 472.613 269.426C468.97 276.876 469.261 278.451 464.13 284.28C458.7 290.449 453.399 293.759 443.627 291.939C441.721 291.584 437.009 288.7 435.51 287.468C428.911 282.054 428.33 278.709 424.798 270.935Z" fill="white"/>
<path d="M422.962 314.801C422.739 314.801 422.516 314.71 422.353 314.535C419.845 311.823 422.091 308.182 423.896 305.257L424.402 304.43C427.111 299.936 427.131 293.889 424.454 289.378C424.145 288.856 423.798 288.337 423.451 287.813C422.078 285.747 420.66 283.614 421.048 281.061C421.372 278.932 422.875 277.253 424.327 275.632C425.975 273.793 427.4 272.203 426.75 270.395C426.377 269.354 425.084 268.585 423.835 267.844C422.087 266.805 420.106 265.627 420.473 263.397C420.958 260.426 423.558 258.805 426.072 257.24C427.103 256.598 428.077 255.989 428.901 255.3C430.731 253.768 428.901 250.019 428.294 248.909C427.923 248.224 427.504 247.561 427.085 246.897C426.088 245.31 425.055 243.669 424.618 241.754C423.732 237.866 425.595 233.412 429.362 230.4C432.549 227.854 437.314 226.244 441.531 224.939C441.968 224.803 442.433 225.048 442.567 225.485C442.704 225.921 442.459 226.386 442.02 226.522C437.949 227.785 433.358 229.326 430.395 231.695C427.911 233.681 425.329 237.41 426.234 241.387C426.607 243.026 427.521 244.479 428.486 246.016C428.921 246.708 429.358 247.403 429.747 248.116C430.716 249.902 432.681 254.296 429.958 256.574C429.045 257.336 427.976 258.003 426.941 258.648C424.641 260.082 422.467 261.436 422.101 263.667C421.927 264.729 422.965 265.406 424.674 266.42C426.108 267.274 427.733 268.238 428.305 269.839C429.284 272.577 427.389 274.693 425.555 276.74C424.263 278.182 422.928 279.673 422.678 281.313C422.386 283.232 423.569 285.014 424.823 286.899C425.185 287.446 425.547 287.99 425.873 288.537C428.852 293.556 428.828 300.288 425.815 305.286L425.299 306.127C423.378 309.24 422.031 311.755 423.563 313.409C423.875 313.745 423.852 314.271 423.515 314.581C423.366 314.727 423.164 314.801 422.962 314.801Z" fill="#E94A47"/>
<path d="M746.628 80.9907C740.524 81.397 735.156 85.2432 729.42 87.3726C727.417 88.1149 724.869 88.7473 723.395 87.2015C721.646 85.3716 723.076 82.399 724.484 80.2911C732.45 68.3766 748.755 38.9279 741.967 41.2268C727.404 49.2782 727.498 71.0879 714.62 81.6231C712.161 81.3924 713.773 78.5757 715.077 76.48C719.747 68.986 724.419 61.4875 729.09 53.9936C731.417 50.2589 733.789 46.4676 737.067 43.5318C739.954 40.9442 743.924 37.6524 742.322 34.1224C738.312 32.9798 734.432 36.128 731.626 39.2151C726.376 44.9905 721.836 51.4106 718.142 58.2859C715.364 63.458 713.037 68.9219 709.481 73.5945C707.832 75.7605 705.884 77.8761 704.059 80.039C703.773 79.6281 703.513 79.1959 703.326 78.7055C702.247 75.8781 703.505 72.7513 704.747 69.9957C710.444 57.3358 723.854 32.5995 721.837 32.0175C714.25 29.8286 699.714 59.8409 694.34 77.1505C693.698 79.2218 692.984 81.3832 691.411 82.8756C686.512 87.5238 679.478 79.1577 675.905 73.4295C672.334 67.6999 665.036 60.2778 660.943 63.1571C667.167 79.5518 682.644 93.5666 680.704 110.994C679.556 121.308 672.398 129.787 665.8 137.798C642.88 165.637 629.598 188.557 609.89 218.754C607.271 222.766 597.506 239.484 599.942 243.608C601.469 246.194 605.128 243.158 607.823 244.484C615.594 248.307 621.998 254.836 625.67 262.676C651.822 229.638 665.233 188.652 682.204 150.092C686.153 141.121 690.475 132.017 697.573 125.256C702.996 120.089 709.836 116.5 714.84 110.931C715.497 110.2 716.112 109.407 716.682 108.574C723.655 102.903 732.628 93.3466 738.108 90.5666C742.143 88.5136 751.42 80.6714 746.628 80.9907Z" fill="#FFBEB6"/>
<path d="M341.036 581.322C346.018 527.797 351.36 474.301 357.053 420.846C359.628 396.678 362.063 368.813 380.008 352.412C394.367 339.287 427.533 339.708 438.03 343.576C438.03 343.576 443.318 355.067 457.923 355.174C466.241 355.235 472.589 348.522 473.635 340.385C492.424 337.623 506.842 337.929 521.197 348.728C565.409 296.352 592.604 251.906 619.156 198.665C629.612 205.29 642.535 213.782 652.992 220.409C624.739 299.271 596.489 357.09 562.365 433.599C558.276 442.77 557.961 471.615 556.605 481.564C555.527 489.466 556.272 497.487 556.756 505.447C558.343 531.606 557.074 557.936 552.972 583.823C548.91 578.408 532.073 575.295 525.331 575.957C518.591 576.62 512.199 579.187 505.588 580.65C483.433 585.55 460.633 577.876 437.973 576.717C405.567 575.059 373.022 586.78 341.036 581.322Z" fill="url(#paint0_linear)"/>
<path d="M456.267 395.912L435.949 375.606L456.267 355.299L476.585 375.606L456.267 395.912Z" fill="#23286B"/>
<path d="M456.267 556.761L435.948 536.455L456.267 401.693L476.586 536.455L456.267 556.761Z" fill="#23286B"/>
<path d="M583.657 253.699C577.607 253.699 571.891 247.945 569.995 245.826C565.58 240.899 560.613 235.343 554.516 236.225C552.928 236.454 551.439 237.118 549.862 237.825C548.13 238.601 546.342 239.402 544.371 239.597C537.534 240.295 532.504 233.556 530.122 229.484C529.801 228.937 529.485 228.379 529.162 227.82C526.571 223.294 523.889 218.609 519.295 216.825C514.721 215.052 509.636 216.702 504.72 218.299C503.266 218.773 501.761 219.263 500.289 219.659C495.435 220.956 489.895 220.285 486.499 217.983C484.412 216.569 483.166 214.581 482.891 212.235C482.838 211.782 483.163 211.369 483.617 211.314C484.082 211.265 484.483 211.588 484.536 212.04C484.758 213.92 485.73 215.457 487.429 216.61C490.404 218.628 495.515 219.227 499.86 218.056C501.289 217.676 502.772 217.192 504.206 216.725C509.396 215.034 514.764 213.286 519.895 215.281C525.038 217.277 527.864 222.219 530.599 226.995C530.919 227.551 531.234 228.104 531.552 228.647C533.733 232.377 538.289 238.523 544.204 237.948C545.906 237.775 547.497 237.065 549.182 236.309C550.794 235.586 552.46 234.841 554.278 234.578C561.243 233.573 566.767 239.733 571.2 244.685C573.379 247.119 580.9 254.675 587.295 251.075C587.696 250.847 588.201 250.992 588.425 251.39C588.652 251.788 588.508 252.292 588.11 252.518C586.641 253.352 585.14 253.699 583.657 253.699Z" fill="#E94A47"/>
<path d="M410.143 238.122C416.587 222.193 431.671 209.654 448.762 207.816C465.853 205.978 483.992 215.867 490.32 231.839C467.597 248.622 435.201 251.157 410.143 238.122Z" fill="#DF457A"/>
<path d="M608.208 578.253C610.537 577.238 612.29 575.617 612.315 573.132C611.547 570.57 589.781 571.189 578.516 570.217C571.177 569.585 563.662 568.965 556.547 570.871C553.345 571.728 550.219 573.084 547.039 573.987C546.322 573.839 545.628 573.678 544.941 573.518C554.545 570.422 567.208 565.424 566.435 561.049C562.899 557.432 550.509 561.571 545.787 563.391C537.29 566.666 530.324 568.031 523.697 569.918C516.742 569.641 508.629 569.828 502.154 571.486C467.684 580.315 431.364 573.55 396.435 566.757C379.424 563.45 362.41 560.142 345.399 556.835C348.709 569.835 346.859 580.766 350.169 593.767C373.379 593.215 400.23 596.012 422.56 593.767C439.205 592.094 455.989 585.776 472.246 589.717C482.546 592.215 492.306 596.913 502.807 598.319C519.728 600.585 537.534 594.171 553.72 599.602C567.242 604.138 578.867 613.575 592.758 610.337C598.006 609.112 566.894 595.277 551.717 589.025C562.46 583.34 575.299 588.093 587.455 588.17C599.388 588.245 613.27 591.046 622.163 582.764C623.689 580.002 617.728 578.874 608.208 578.253Z" fill="#FFBEB6"/>
<path d="M349.616 550.134C380.285 555.933 398.92 556.722 429.612 561.649C430.072 572.84 432.103 583.965 435.622 594.598C387.128 595.899 360.722 595.844 312.314 595.7C294.907 594.043 296.445 546.177 299.606 520.986C302.845 495.185 326.549 462.162 334.694 437.467C345.593 404.415 349.288 396.802 370.337 364.562C374.158 358.707 381.578 345.52 387.744 348.821C382.606 366.148 379.057 386.619 373.919 403.946C363.884 437.778 362.172 430.391 360.392 465.634C359.562 482.073 355.162 515.585 349.617 531.909C349.421 532.482 349.019 550.022 349.616 550.134Z" fill="url(#paint1_linear)"/>
<path d="M434.164 430.836H386.087V455.69H434.164V430.836Z" fill="white"/>
<path d="M692.544 581.675C692.148 581.675 691.798 581.392 691.729 580.989C689.378 567.512 677.863 555.561 662.394 550.543C647.008 545.549 630.543 547.457 617.918 549.674C617.464 549.764 617.037 549.451 616.958 549.002C616.88 548.551 617.181 548.122 617.632 548.042C630.447 545.794 647.175 543.866 662.908 548.97C678.954 554.175 690.91 566.632 693.365 580.706C693.443 581.157 693.14 581.586 692.689 581.664C692.639 581.67 692.59 581.675 692.544 581.675Z" fill="#23286B"/>
<path d="M532.657 483.647C532.48 483.647 532.303 483.591 532.15 483.475C526.814 479.341 523.65 472.371 523.686 464.827C523.725 457.281 526.956 450.342 532.333 446.263C533.329 445.507 534.391 444.828 535.42 444.171C537.189 443.039 538.861 441.971 540.236 440.538C546.264 434.254 544.039 425.039 541.684 415.283C539.346 405.594 536.929 395.579 543.286 388.519C545.562 385.993 548.601 384.421 551.543 382.898L552.566 382.368C562.644 377.097 575.695 364.843 570.352 352.68C569.563 350.882 568.427 349.284 567.224 347.593C565.898 345.726 564.524 343.797 563.676 341.585C560.962 334.525 564.431 326.607 569.069 321.891C574.078 316.805 580.908 313.818 586.933 311.187C587.357 311.006 587.842 311.197 588.023 311.614C588.207 312.034 588.016 312.522 587.595 312.705C581.706 315.279 575.033 318.193 570.248 323.054C565.979 327.392 562.767 334.618 565.218 340.99C565.995 343.007 567.245 344.769 568.572 346.632C569.771 348.317 571.009 350.06 571.865 352.012C577.053 363.826 566.467 376.965 553.327 383.836L552.295 384.369C549.487 385.82 546.58 387.322 544.509 389.624C538.734 396.038 540.947 405.195 543.286 414.892C545.642 424.652 548.079 434.745 541.421 441.682C539.909 443.257 538.074 444.432 536.301 445.567C535.301 446.205 534.266 446.865 533.322 447.583C528.352 451.35 525.365 457.802 525.331 464.835C525.298 471.866 528.221 478.346 533.154 482.164C533.515 482.444 533.582 482.965 533.303 483.327C533.15 483.537 532.904 483.647 532.657 483.647Z" fill="#23286B"/>
</g>
<defs>
<linearGradient id="paint0_linear" x1="372.917" y1="332.241" x2="647.455" y2="480.429" gradientUnits="userSpaceOnUse">
<stop stop-color="#D6D7D8"/>
<stop offset="1" stop-color="#EEEEEE"/>
</linearGradient>
<linearGradient id="paint1_linear" x1="333.382" y1="449.513" x2="407.026" y2="566.185" gradientUnits="userSpaceOnUse">
<stop stop-color="#D6D7D8"/>
<stop offset="1" stop-color="#EEEEEE"/>
</linearGradient>
<clipPath id="clip0">
<rect width="916" height="610.667" fill="white"/>
</clipPath>
</defs>
</svg>
