<svg width="916" height="611" viewBox="0 0 916 611" fill="none" xmlns="http://www.w3.org/2000/svg">
<g opacity="0.56">
<path d="M151.449 378.109H265.939V516.35H151.449V378.109Z" fill="#EEEEEE"/>
<path d="M265.94 378.109H316.472V516.35H265.94V378.109Z" fill="url(#paint0_linear)"/>
<path d="M128 347H242.605L265.939 378.11H151.336L128 347Z" fill="url(#paint1_linear)"/>
<path d="M265.945 378.109H316.509L346.405 407.585H295.841L265.945 378.109Z" fill="#EEEEEE"/>
</g>
<g opacity="0.56">
<path d="M593.449 378.109H707.939V516.35H593.449V378.109Z" fill="#EEEEEE"/>
<path d="M707.94 378.109H758.472V516.35H707.94V378.109Z" fill="url(#paint2_linear)"/>
<path d="M570 347H684.605L707.939 378.11H593.336L570 347Z" fill="url(#paint3_linear)"/>
<path d="M707.945 378.109H758.509L788.405 407.585H737.841L707.945 378.109Z" fill="#EEEEEE"/>
</g>
<path d="M557.203 207.453C570.061 215.034 579.196 226.199 583.701 238.251C601.605 226.391 619.982 206.649 634.756 181.646C664.879 130.663 643.09 62.0927 643.09 62.0927C643.09 62.0927 572.462 76.1816 542.339 127.165C527.566 152.169 519.145 177.78 517.404 199.168C530.143 197.281 544.345 199.873 557.203 207.453Z" fill="url(#paint4_linear)"/>
<path d="M612.859 140.614C616.267 142.622 619.032 145.3 621.089 148.381C621.881 138.961 617.358 129.473 608.662 124.347C596.56 117.213 580.959 121.228 573.815 133.317C568.683 142.003 569.315 152.492 574.566 160.357C574.877 156.666 576.002 152.987 578.013 149.584C585.156 137.495 600.758 133.48 612.859 140.614Z" fill="#EFEFEF"/>
<path d="M617.642 159.153C619.653 155.75 620.779 152.071 621.089 148.381C619.032 145.3 616.266 142.622 612.859 140.614C600.757 133.48 585.155 137.495 578.013 149.584C576.002 152.987 574.876 156.666 574.566 160.357C576.623 163.437 579.389 166.115 582.796 168.124C594.899 175.258 610.5 171.242 617.642 159.153Z" fill="white"/>
<path d="M622.62 182.617L580.308 234.662L597.081 271.497C620.029 238.945 627.833 209.462 622.62 182.617Z" fill="#FF4945"/>
<path d="M549.837 139.71L524.673 201.865L484.282 205C501.721 169.202 523.791 148.127 549.837 139.71Z" fill="#FF4945"/>
<path d="M640.364 68.7696C640.129 68.7696 639.893 68.7095 639.676 68.5821C639.033 68.2028 638.819 67.3735 639.199 66.7309L661.692 28.6646C662.073 28.0219 662.905 27.8092 663.546 28.1867C664.189 28.5661 664.403 29.3953 664.023 30.038L641.53 68.1043C641.276 68.5324 640.826 68.7696 640.364 68.7696Z" fill="#FF4945"/>
<path d="M545.257 314.201C545.215 314.201 545.172 314.195 545.129 314.182C544.89 314.111 544.753 313.862 544.825 313.623C550.568 294.108 554.716 276.077 558.272 255.159C558.314 254.915 558.546 254.75 558.793 254.79C559.038 254.833 559.204 255.065 559.163 255.31C555.6 276.265 551.445 294.327 545.691 313.876C545.632 314.073 545.453 314.201 545.257 314.201Z" fill="#5BABF2"/>
<path d="M474.451 272.46C474.337 272.46 474.222 272.417 474.134 272.329C473.956 272.154 473.955 271.869 474.13 271.692C488.486 257.21 502.309 244.846 518.95 231.606C519.145 231.448 519.429 231.482 519.585 231.678C519.74 231.872 519.708 232.155 519.512 232.311C502.901 245.529 489.102 257.871 474.772 272.327C474.684 272.415 474.567 272.46 474.451 272.46Z" fill="#5BABF2"/>
<path d="M534.509 323.354L538.168 333.205L548.031 329.549L544.371 319.698L534.509 323.354Z" fill="#FF4945"/>
<path d="M483.392 313.347L475.577 320.38L482.619 328.187L490.434 321.153L483.392 313.347Z" fill="#1B236D"/>
<path d="M481.223 244.994L483.717 251.707L490.438 249.216L487.944 242.503L481.223 244.994Z" fill="#5BABF2"/>
<path d="M491.881 310.25C491.803 310.25 491.724 310.23 491.653 310.188C491.438 310.061 491.367 309.785 491.493 309.571L523.574 255.274C523.702 255.059 523.978 254.99 524.192 255.114C524.407 255.242 524.479 255.517 524.352 255.732L492.271 310.028C492.185 310.171 492.034 310.25 491.881 310.25Z" fill="#5BABF2"/>
<path d="M527.262 299.808C527.209 299.808 527.155 299.799 527.104 299.779C526.87 299.692 526.752 299.432 526.839 299.198L532.38 284.427C532.468 284.194 532.729 284.073 532.962 284.163C533.196 284.25 533.314 284.51 533.226 284.744L527.685 299.516C527.616 299.695 527.444 299.808 527.262 299.808Z" fill="#5BABF2"/>
<path d="M595.705 176.162C590.374 176.162 585.117 174.725 580.503 172.004C573.612 167.941 568.717 161.441 566.72 153.702C564.724 145.963 565.863 137.909 569.93 131.025C575.294 121.947 585.19 116.307 595.754 116.307C601.085 116.307 606.342 117.744 610.955 120.464C625.182 128.85 629.924 147.232 621.529 161.441C616.164 170.522 606.269 176.162 595.705 176.162ZM595.754 125.321C588.366 125.321 581.45 129.263 577.701 135.608C574.859 140.418 574.063 146.045 575.458 151.454C576.854 156.863 580.275 161.405 585.09 164.244C588.316 166.146 591.987 167.15 595.707 167.15C603.094 167.15 610.012 163.208 613.76 156.863C619.627 146.934 616.312 134.089 606.371 128.229C603.144 126.326 599.473 125.321 595.754 125.321Z" fill="#FF4945"/>
<path d="M590.802 94.9532C616.62 110.173 635.352 132.332 645.401 156.629C658.566 110.796 643.092 62.0927 643.092 62.0927C643.092 62.0927 610.164 68.6659 579.686 89.0619C583.434 90.8373 587.145 92.7984 590.802 94.9532Z" fill="#5BABF2"/>
<path d="M652.153 117.906C652.928 85.8111 644.59 59.5552 644.59 59.5552C644.59 59.5552 617.549 64.9546 589.794 81.145L652.153 117.906Z" fill="url(#paint5_linear)"/>
<path d="M312.278 294.092H518.712V543.35H312.278V294.092Z" fill="#EEEEEE"/>
<path d="M518.714 294.092H609.825V543.35H518.714V294.092Z" fill="url(#paint6_linear)"/>
<path d="M269.997 238H476.638L518.711 294.094H312.073L269.997 238Z" fill="url(#paint7_linear)"/>
<path d="M518.721 294.092H609.892L663.797 347.238H572.627L518.721 294.092Z" fill="#EEEEEE"/>
<defs>
<linearGradient id="paint0_linear" x1="291.352" y1="481.957" x2="290.967" y2="390.529" gradientUnits="userSpaceOnUse">
<stop stop-color="#EEEEEE"/>
<stop offset="1" stop-color="#D2D4D6"/>
</linearGradient>
<linearGradient id="paint1_linear" x1="196.159" y1="354.318" x2="199.414" y2="387.355" gradientUnits="userSpaceOnUse">
<stop stop-color="#EEEEEE"/>
<stop offset="1" stop-color="#D2D4D6"/>
</linearGradient>
<linearGradient id="paint2_linear" x1="733.352" y1="481.957" x2="732.967" y2="390.529" gradientUnits="userSpaceOnUse">
<stop stop-color="#EEEEEE"/>
<stop offset="1" stop-color="#D2D4D6"/>
</linearGradient>
<linearGradient id="paint3_linear" x1="638.159" y1="354.318" x2="641.414" y2="387.355" gradientUnits="userSpaceOnUse">
<stop stop-color="#EEEEEE"/>
<stop offset="1" stop-color="#D2D4D6"/>
</linearGradient>
<linearGradient id="paint4_linear" x1="550.614" y1="113.16" x2="642.975" y2="167.736" gradientUnits="userSpaceOnUse">
<stop stop-color="#92C4FE"/>
<stop offset="1" stop-color="#5BABF2"/>
</linearGradient>
<linearGradient id="paint5_linear" x1="601.603" y1="61.1602" x2="663.924" y2="97.9854" gradientUnits="userSpaceOnUse">
<stop stop-color="#FF4945"/>
<stop offset="1" stop-color="#F92424"/>
</linearGradient>
<linearGradient id="paint6_linear" x1="564.534" y1="481.336" x2="563.838" y2="316.486" gradientUnits="userSpaceOnUse">
<stop stop-color="#EEEEEE"/>
<stop offset="1" stop-color="#D2D4D6"/>
</linearGradient>
<linearGradient id="paint7_linear" x1="392.892" y1="251.194" x2="398.762" y2="310.763" gradientUnits="userSpaceOnUse">
<stop stop-color="#EEEEEE"/>
<stop offset="1" stop-color="#D2D4D6"/>
</linearGradient>
</defs>
</svg>
