<svg width="916" height="611" viewBox="0 0 916 611" fill="none" xmlns="http://www.w3.org/2000/svg">
<g clip-path="url(#clip0)">
<path d="M439.564 159.338C444.908 162.342 448.232 168.079 449.883 173.98C451.534 179.881 451.752 186.07 452.385 192.165C452.7 195.2 453.151 198.316 454.699 200.946C456.248 203.575 459.155 205.625 462.189 205.292C465.549 204.922 468.29 201.828 471.665 201.986C473.111 202.054 474.469 202.735 475.615 203.618C479.149 206.34 480.815 210.756 483.057 214.611C485.297 218.466 488.965 222.24 493.415 221.926C497.023 221.673 500.006 218.606 500.986 215.127C501.966 211.649 501.254 207.891 499.912 204.536" stroke="#23286B" stroke-miterlimit="10" stroke-linecap="round"/>
<path d="M562.813 299.051C567.406 297.903 575.421 300.694 577.402 299.902C583.223 297.575 589.337 298.592 594.998 302.241C593.558 304.993 589.987 302.545 587.008 302.374C584.03 302.203 579.511 304.476 579.782 307.444C581.082 308.974 582.404 310.576 583.223 312.41C585.072 312.282 586.679 312.265 588.527 312.137C589.11 310.566 590.357 309.278 589.481 307.901C588.732 306.722 585.898 305.468 585.697 304.009C585.407 301.647 590.673 304.89 592.974 305.138C594.721 306.011 593.702 314.592 593.248 314.719C590.477 316.408 587.286 317.404 584.045 317.59C589.917 323.173 602.87 340.628 596.937 336.406C594.704 334.748 593.062 332.441 591.287 330.301C584.892 322.591 568.232 306.447 565.014 306.891C549.052 310.607 532.301 323.724 523.495 332.661C521.571 331.994 512.118 327.861 512.971 326.011C516.585 318.178 512.699 314.131 520.624 310.715C521.824 310.199 552.001 301.752 562.813 299.051Z" fill="#FFBEB6"/>
<path d="M489.095 326.434C483.531 322.019 479.324 316.122 475.751 309.986C461.975 286.326 453.742 255.906 458.344 228.921C465.462 231.767 476.979 245.098 481.138 254.758C485.297 264.418 487.27 274.861 488.844 285.259C489.831 291.785 490.899 298.816 495.507 303.547C501.838 310.048 511.598 311.006 520.641 310.226C518.166 314.007 516.66 317.329 516.334 322.007C516.007 326.686 518.266 331.894 522.692 333.454C523.932 333.89 525.299 334.037 526.393 334.765C527.488 335.494 528.142 337.151 527.258 338.124C526.971 338.441 526.571 338.628 526.172 338.782C522.134 340.335 518.356 354.755 514.238 353.426C505.663 350.657 496.152 332.032 489.095 326.434Z" fill="url(#paint0_linear)"/>
<path d="M597.966 329.369C595.832 326.405 590.618 322.169 588.485 319.206C592.16 321.013 598.361 325.2 600.41 328.744C600.656 329.17 600.893 329.681 600.697 330.134C600.468 330.666 599.726 330.8 599.198 330.565C598.668 330.33 598.306 329.838 597.966 329.369Z" fill="#FFBEB6"/>
<path d="M604.386 320.46C600.957 318.675 594.411 316.89 590.627 317.688C591.804 318.962 596.136 320.05 597.774 320.624C600.667 321.638 603.559 322.652 606.452 323.665C607.056 322.391 605.639 321.113 604.386 320.46Z" fill="#FFBEB6"/>
<path d="M298.134 299.051C293.541 297.903 285.513 300.694 283.532 299.902C277.711 297.575 271.598 298.592 265.937 302.241C267.376 304.993 270.947 302.545 273.927 302.374C276.904 302.203 281.423 304.476 281.152 307.444C279.852 308.974 278.53 310.576 277.711 312.41C275.862 312.282 274.255 312.265 272.407 312.137C271.824 310.566 270.577 309.278 271.453 307.901C272.202 306.722 275.037 305.468 275.237 304.009C275.528 301.647 270.261 304.89 267.96 305.138C266.213 306.011 267.232 314.592 267.685 314.719C270.456 316.408 273.647 317.404 276.888 317.59C271.016 323.173 258.064 340.628 263.996 336.406C266.23 334.748 267.871 332.441 269.647 330.301C276.041 322.591 292.701 306.447 295.919 306.891C311.881 310.607 328.632 323.724 337.438 332.661C342.642 339.899 348.954 330.839 348.101 328.99C344.487 321.156 348.234 314.13 340.309 310.713C339.11 310.199 308.945 301.752 298.134 299.051Z" fill="#FFBEB6"/>
<path d="M366.658 339.027C372.333 331.39 381.61 316.123 385.182 309.985C398.959 286.326 408.105 255.789 403.503 228.804C396.653 230.14 383.956 245.099 379.797 254.758C375.638 264.418 373.664 274.861 372.091 285.259C371.103 291.785 370.035 298.816 365.428 303.547C359.096 310.048 349.336 311.006 340.293 310.226C342.768 314.007 344.275 317.329 344.6 322.007C344.925 326.685 342.668 331.894 338.242 333.454C337.003 333.89 335.635 334.037 334.541 334.765C333.447 335.494 332.793 337.151 333.676 338.124C333.963 338.441 334.363 338.628 334.763 338.782C338.801 340.335 342.579 354.755 346.696 353.426C355.271 350.656 361.284 346.257 366.658 339.027Z" fill="url(#paint1_linear)"/>
<path d="M260.847 331.135C262.981 328.171 268.195 323.935 270.328 320.971C266.653 322.778 260.452 326.966 258.403 330.51C258.157 330.936 257.92 331.447 258.116 331.899C258.345 332.432 259.087 332.566 259.615 332.331C260.146 332.095 260.509 331.605 260.847 331.135Z" fill="#FFBEB6"/>
<path d="M256.195 321.873C259.625 320.088 266.17 318.303 269.954 319.101C268.777 320.375 264.445 321.463 262.807 322.037C259.914 323.051 257.022 324.065 254.129 325.078C253.525 323.803 254.942 322.525 256.195 321.873Z" fill="#FFBEB6"/>
<path d="M482.866 385.582C473.064 388.976 463.035 392.412 452.662 392.409C444.929 392.407 418.686 397.222 411.191 395.317C398.267 392.032 381.326 390.748 368.402 387.463C353.76 383.74 361.747 371.274 347.638 365.871C332.587 360.109 320.139 370.984 307.275 361.281C306.067 360.37 300.106 353.899 299.416 352.553C298.216 350.216 300.616 344.293 302.036 342.081C306.488 335.147 316.536 332.411 324.741 331.609C334.589 330.648 382.087 344.48 391.982 344.701C415.519 345.222 417.452 351.148 440.884 353.428C482.263 357.452 507.607 323.816 549.116 326.168C554.441 326.47 560.185 327.182 564.063 330.839C570.12 336.548 568.589 347.14 563.072 353.372C557.555 359.604 549.325 362.566 541.458 365.291C521.928 372.055 502.398 378.819 482.866 385.582Z" fill="url(#paint2_linear)"/>
<path d="M419.663 155.908C417.107 151.44 418.498 145.135 422.697 142.156" stroke="#23286B" stroke-miterlimit="10" stroke-linecap="round"/>
<path d="M424.029 156.952C422.73 156.863 422.187 155.233 422.205 153.934C422.272 149.282 425.69 144.875 430.183 143.652" stroke="#23286B" stroke-miterlimit="10" stroke-linecap="round"/>
<path d="M418.513 178.342C417.655 171.468 417.365 163.477 422.441 158.758C427.924 153.66 437.443 155.461 442.541 160.943C447.639 166.427 449.139 174.362 449.173 181.848C449.201 187.794 448.472 193.925 450.411 199.546C452.35 205.167 458.151 210.092 463.888 208.517C465.547 208.061 467.051 207.11 468.741 206.794C473.65 205.874 477.803 210.444 480.13 214.861C482.455 219.279 484.508 224.454 489.07 226.482C492.886 228.178 497.549 227.012 500.777 224.364C504.004 221.718 505.976 217.82 507.224 213.837C508.857 219.749 506.683 225.946 503.182 230.982C501.412 233.527 497.874 236.007 494.857 236.729C490.779 237.704 486.871 234.568 484.368 231.206C481.865 227.846 479.803 223.87 476.107 221.892C468.365 217.746 456.589 223.956 451.007 217.179C448.707 214.388 448.505 210.225 445.962 207.654C442.753 204.411 437.439 205.087 433.065 203.788C428.093 202.309 424.286 198.113 422.106 193.408C419.927 188.704 419.155 183.487 418.513 178.342Z" fill="#23286B"/>
<path d="M416.53 206.545C420.629 203.994 421.688 198.604 422.366 193.825C423.114 188.557 423.859 183.29 424.606 178.022C425.715 170.206 426.326 160.949 420.37 155.761C415.96 156.704 411.879 159.126 408.943 162.548C406.097 165.863 404.375 169.976 402.825 174.06C400.703 179.654 398.818 185.338 397.178 191.092C396.066 194.993 395.047 198.972 393.06 202.506C391.071 206.041 387.94 209.146 383.998 210.112C376.646 211.909 367.953 206.158 361.816 210.582C360.527 211.512 359.506 212.829 358.061 213.492C356.072 214.403 353.752 213.879 351.632 213.338C348.69 212.589 345.567 211.734 343.538 209.476C342.018 207.784 340.838 205.196 338.562 205.174C339.689 207.356 340.818 209.537 341.945 211.719C343.352 214.443 344.808 217.231 347.082 219.288C349.357 221.345 352.661 222.551 355.553 221.529C358.635 220.439 360.472 217.201 363.399 215.75C368.34 213.3 374.008 216.644 379.382 217.885C385.44 219.283 392.103 217.775 396.969 213.906C398.682 212.544 400.201 210.896 402.151 209.901C406.575 207.645 412.318 209.168 416.53 206.545Z" fill="#23286B"/>
<path d="M434.231 420.065L467.908 393.323L500.847 490.293C500.847 490.293 489.562 488.577 476.824 474.412C464.087 460.248 444.299 449.706 444.299 449.706L434.231 420.065Z" fill="url(#paint3_linear)"/>
<path d="M428.441 153.622C417.74 152.837 408.179 164.28 407.087 179.18C405.995 194.08 413.785 206.795 424.486 207.58C435.188 208.364 444.748 196.921 445.841 182.021C446.933 167.121 439.143 154.406 428.441 153.622Z" fill="#FFBEB6"/>
<path d="M433.742 196.284C434.087 209.014 434.128 218.977 435.021 230.096C429.81 230.733 423.333 230.144 418.141 229.364C419.867 224.311 419.633 218.835 419.432 213.5C419.194 207.229 419.987 201.743 420.492 195.489C421.013 189.032 433.478 186.484 433.742 196.284Z" fill="url(#paint4_linear)"/>
<path d="M428.902 164.607C429.67 165.688 430.555 167.004 431.333 168.104C431.792 168.753 431.407 169.652 430.621 169.768C429.093 169.993 427.158 170.077 425.647 170.084C424.867 170.086 424.363 169.276 424.69 168.567C425.295 167.254 426.326 165.772 427.188 164.595C427.616 164.012 428.484 164.018 428.902 164.607Z" fill="url(#paint5_linear)"/>
<path d="M403.853 186.064C404.578 187.486 405.431 188.945 406.813 189.745C408.195 190.546 410.248 190.403 411.083 189.041C411.572 188.241 411.544 187.232 411.401 186.306C410.991 183.661 409.752 181.15 407.901 179.215C407.494 178.79 407.046 178.383 406.496 178.172C404.807 177.525 402.923 179.11 402.599 180.889C402.276 182.67 403.032 184.454 403.853 186.064Z" fill="#FFBEB6"/>
<path d="M443.058 191.847C442.537 192.225 441.893 192.621 441.295 192.383C440.446 192.045 440.607 189.469 440.898 188.603C441.996 185.337 443.288 179.108 446.729 179.334C448.789 179.469 448.426 185.742 447.44 187.553C446.452 189.364 444.728 190.637 443.058 191.847Z" fill="#FFBEB6"/>
<path d="M394.602 305.429C394.717 297.479 383.074 256.946 385.885 249.804C389.715 240.07 389.044 238.042 401.534 229.571C407.663 225.415 419.152 223.557 419.152 223.557C419.152 223.557 421.401 226.723 424.406 227.569C427.411 228.414 434.001 226.032 434.509 222.953C440.373 223.838 448.276 224.958 452.977 226.734C459.827 229.322 460.999 227.819 467.372 242.886C473.745 257.953 473.188 276.455 468.536 308.048C467.373 315.947 483.454 332.81 490.44 337.502C490.44 337.502 486.722 342.949 481.345 347.61C465.929 360.973 437.681 373.211 421.964 358.665C403.376 341.462 400.425 349.938 380.048 340.629C376.565 339.037 373.644 334.229 373.644 334.229C373.644 334.229 394.553 308.763 394.602 305.429Z" fill="url(#paint6_linear)"/>
<path d="M482.848 232.402C482.592 232.402 482.366 232.215 482.325 231.955C481.595 227.335 485.059 223.702 488.364 220.662C488.784 220.276 489.013 220.01 489.137 219.836C488.184 219.986 485.636 221.123 483.6 223.257C483.025 223.859 482.293 225.102 481.645 226.198C480.378 228.349 479.787 229.301 479.036 229.139C478.656 229.061 478.425 228.726 478.35 228.144C477.983 225.315 481.554 217.806 486.562 215.778C486.833 215.666 487.142 215.8 487.252 216.069C487.363 216.341 487.229 216.649 486.959 216.759C482.658 218.5 479.278 225.191 479.384 227.795C479.767 227.296 480.328 226.346 480.733 225.66C481.441 224.458 482.174 223.216 482.831 222.524C485.104 220.141 488.518 218.487 489.715 218.808C490.029 218.892 490.25 219.104 490.318 219.391C490.447 219.912 490.076 220.524 489.08 221.442C485.976 224.298 482.72 227.687 483.37 231.791C483.415 232.081 483.217 232.352 482.928 232.397C482.904 232.4 482.876 232.402 482.848 232.402Z" fill="#D62929"/>
<path d="M359.03 222.478C359.006 222.478 358.982 222.477 358.956 222.473C358.676 222.434 358.476 222.184 358.501 221.902C358.854 217.866 357.158 213.725 354.075 211.094C353.852 210.904 353.825 210.569 354.015 210.346C354.206 210.122 354.54 210.099 354.763 210.287C355.858 211.22 356.792 212.33 357.537 213.554C357.387 213.014 357.243 212.52 357.119 212.092C356.946 211.5 356.804 211.011 356.721 210.665C356.484 209.662 357.082 209.4 357.273 209.342C358.444 208.989 360.606 211.113 361.473 213.47C361.574 213.742 361.677 214.056 361.787 214.389C362.141 215.456 362.731 217.243 363.358 217.48C363.405 217.497 363.513 217.539 363.726 217.417C364.015 217.249 364.296 217.054 364.571 216.859C365.534 216.185 366.626 215.421 367.902 216.058C368.163 216.188 368.271 216.505 368.14 216.767C368.01 217.028 367.694 217.138 367.43 217.005C366.752 216.669 366.135 217.06 365.18 217.727C364.878 217.939 364.571 218.152 364.256 218.334C363.721 218.644 363.269 218.579 362.98 218.47C361.882 218.052 361.296 216.283 360.78 214.72C360.674 214.401 360.574 214.098 360.476 213.835C359.754 211.873 358.352 210.671 357.751 210.414C357.751 210.416 357.752 210.418 357.752 210.419C357.831 210.752 357.968 211.224 358.135 211.793C358.899 214.411 360.179 218.791 359.548 222.046C359.502 222.301 359.279 222.478 359.03 222.478Z" fill="#D62929"/>
<path d="M414.977 384.303C397.131 367.391 377.218 352.66 355.822 340.539C344.455 334.1 331.869 328.235 318.869 329.553C305.87 330.871 293.085 342.101 294.681 355.06C295.294 360.029 297.851 364.541 300.684 368.67C323.223 401.515 363.421 416.485 401.062 429.566C413.685 433.952 426.307 438.338 438.93 442.724C441.025 443.453 443.487 444.144 445.338 442.919C446.5 442.152 447.111 440.804 447.665 439.527C451.761 430.092 455.592 418.29 449.098 410.313C445.873 406.351 440.835 404.462 436.373 401.974C428.266 397.46 421.71 390.684 414.977 384.303Z" fill="#23286B"/>
<path d="M451.749 423.345C444.247 426.234 438.44 433.153 436.899 441.04C436.477 443.199 436.346 445.448 435.465 447.464C434.688 449.241 439.919 450.876 438.367 452.04C419.155 466.439 406.056 503.093 386.013 508.504C387.114 493.194 390.982 469.533 392.085 454.221C393.265 437.816 394.704 428.913 396.413 413.846C396.476 413.292 396.764 412.739 397.219 412.418C397.789 412.015 398.562 412.143 399.245 412.287C416.747 415.974 434.249 419.66 451.749 423.345Z" fill="url(#paint7_linear)"/>
<path d="M570.144 341.192C570.743 348.131 567.21 354.807 562.759 360.164C556.758 367.386 549.041 372.943 541.414 378.419C506.915 403.183 472.417 427.949 437.918 452.714C430.943 449.353 426.319 441.629 426.655 433.897C426.97 426.71 431.086 420.305 435.25 414.436C456.461 384.539 482.531 358.092 512.125 336.449C521.714 329.436 532.317 322.701 544.184 322.102C556.05 321.503 569.123 329.36 570.144 341.192Z" fill="#23286B"/>
<path d="M437.037 156.384C435.145 156.444 433.372 156.928 432.047 157.748C431.309 158.205 430.758 158.74 430.401 159.318C428.617 158.451 426.39 158.731 424.805 160.021C424.08 158.573 422.093 157.669 419.494 157.669C418.696 157.669 417.875 157.757 417.055 157.932C415.203 158.325 413.545 159.114 412.386 160.156C411.162 161.257 410.626 162.515 410.879 163.698C411.269 165.535 413.446 166.722 416.429 166.722C417.227 166.722 418.048 166.634 418.867 166.459C420.719 166.067 422.377 165.276 423.536 164.235C424.672 163.214 425.206 162.057 425.077 160.95C426.416 159.651 428.45 159.31 430.048 160.103C429.966 160.385 429.929 160.675 429.936 160.967C430.008 163.288 433.077 165.104 436.922 165.104C437.05 165.104 437.179 165.102 437.308 165.098C439.2 165.039 440.972 164.554 442.297 163.735C443.697 162.868 444.446 161.725 444.409 160.515C444.335 158.118 441.052 156.245 437.037 156.384ZM422.952 163.585C421.905 164.527 420.39 165.243 418.686 165.606C417.926 165.767 417.166 165.849 416.429 165.849C413.916 165.849 412.03 164.912 411.733 163.517C411.55 162.651 411.989 161.688 412.97 160.805C414.018 159.863 415.533 159.147 417.237 158.785C417.999 158.624 418.757 158.543 419.495 158.543C422.008 158.543 423.893 159.48 424.19 160.875C424.374 161.741 423.934 162.703 422.952 163.585ZM441.84 162.993C440.643 163.734 439.024 164.172 437.283 164.227C433.794 164.332 430.869 162.82 430.81 160.94C430.782 160.056 431.385 159.185 432.508 158.49C433.705 157.748 435.323 157.311 437.064 157.256C437.184 157.253 437.306 157.251 437.424 157.251C440.738 157.251 443.48 158.729 443.537 160.543C443.565 161.427 442.962 162.296 441.84 162.993Z" fill="#D62929"/>
<path opacity="0.51" d="M341.002 356.795C340.904 356.832 340.795 356.784 340.758 356.685C340.724 356.59 340.773 356.486 340.869 356.452C340.871 356.451 340.871 356.45 340.875 356.45C340.974 356.413 341.083 356.461 341.12 356.56C341.149 356.656 341.099 356.76 341.002 356.795ZM339.439 352.532C339.34 352.57 339.231 352.52 339.194 352.421C339.157 352.322 339.206 352.214 339.305 352.177C339.404 352.139 339.513 352.189 339.55 352.288C339.582 352.384 339.534 352.492 339.439 352.532ZM337.866 348.26C337.778 348.3 337.671 348.26 337.631 348.171C337.629 348.168 337.628 348.164 337.628 348.161C337.589 348.063 337.638 347.952 337.736 347.915C337.834 347.876 337.945 347.925 337.982 348.022C337.982 348.023 337.982 348.023 337.983 348.024C338.02 348.112 337.978 348.215 337.889 348.251C337.883 348.253 337.874 348.256 337.866 348.26ZM336.301 343.996C336.202 344.034 336.093 343.984 336.057 343.885C336.026 343.786 336.082 343.678 336.183 343.646C336.274 343.618 336.372 343.662 336.411 343.747C336.45 343.849 336.4 343.959 336.301 343.996C336.301 343.996 336.302 343.996 336.301 343.996ZM334.739 339.734C334.64 339.771 334.531 339.722 334.494 339.623C334.457 339.524 334.506 339.416 334.605 339.378C334.704 339.341 334.813 339.39 334.85 339.489C334.885 339.585 334.835 339.696 334.739 339.734ZM321.731 356.011C321.637 355.969 321.596 355.858 321.639 355.765C321.68 355.673 321.792 355.631 321.885 355.673C321.978 355.714 322.019 355.826 321.976 355.918C321.935 356.012 321.825 356.054 321.731 356.011ZM323.642 351.891C323.548 351.844 323.504 351.734 323.542 351.635C323.59 351.543 323.703 351.505 323.796 351.553C323.886 351.588 323.932 351.689 323.898 351.78C323.896 351.787 323.893 351.793 323.888 351.798C323.846 351.891 323.736 351.933 323.642 351.891ZM325.547 347.759C325.454 347.717 325.412 347.606 325.456 347.513C325.502 347.419 325.613 347.375 325.712 347.413C325.805 347.466 325.843 347.579 325.801 347.676C325.75 347.77 325.639 347.806 325.547 347.759ZM327.459 343.64C327.365 343.599 327.324 343.487 327.367 343.395C327.414 343.299 327.525 343.255 327.623 343.295C327.717 343.336 327.758 343.448 327.715 343.54C327.668 343.635 327.556 343.679 327.459 343.64ZM308.904 341.943C308.805 341.98 308.696 341.931 308.659 341.832C308.622 341.744 308.664 341.642 308.753 341.605C308.758 341.602 308.767 341.599 308.777 341.597C308.87 341.558 308.976 341.601 309.016 341.696C309.05 341.795 309.002 341.906 308.904 341.943ZM348 349.695C347.918 349.759 347.801 349.753 347.727 349.681C347.66 349.604 347.67 349.486 347.747 349.419C347.821 349.348 347.94 349.35 348.012 349.422C348.08 349.502 348.075 349.622 348 349.695ZM344.918 346.353C344.894 346.372 344.866 346.386 344.837 346.393C344.769 346.402 344.699 346.382 344.646 346.339C344.579 346.262 344.589 346.144 344.666 346.077C344.734 346.005 344.847 346.001 344.92 346.068C344.922 346.072 344.929 346.076 344.932 346.08C344.975 346.134 344.99 346.205 344.97 346.27C344.96 346.302 344.942 346.332 344.918 346.353ZM341.837 343.014C341.76 343.08 341.642 343.07 341.576 342.993C341.503 342.926 341.5 342.812 341.567 342.74C341.57 342.737 341.575 342.731 341.579 342.728C341.658 342.659 341.778 342.666 341.851 342.742C341.915 342.823 341.907 342.939 341.837 343.014ZM331.576 355.864C331.476 355.86 331.397 355.776 331.4 355.675C331.403 355.575 331.487 355.497 331.588 355.499C331.689 355.501 331.768 355.587 331.765 355.687C331.767 355.783 331.692 355.862 331.596 355.864C331.589 355.865 331.583 355.864 331.576 355.864ZM331.758 351.326C331.678 351.324 331.613 351.265 331.6 351.186L331.595 351.175C331.585 351.164 331.581 351.15 331.584 351.135C331.585 351.075 331.615 351.019 331.665 350.986C331.699 350.963 331.74 350.951 331.781 350.952C331.881 350.956 331.96 351.04 331.957 351.141C331.956 351.244 331.871 351.327 331.769 351.324C331.765 351.327 331.761 351.327 331.758 351.326ZM331.94 346.788C331.84 346.779 331.767 346.693 331.774 346.593C331.776 346.492 331.859 346.411 331.96 346.415C332.061 346.417 332.141 346.5 332.139 346.601C332.139 346.602 332.139 346.604 332.138 346.605C332.137 346.707 332.052 346.791 331.949 346.788C331.946 346.789 331.944 346.788 331.94 346.788ZM332.132 342.241C332.037 342.243 331.957 342.168 331.955 342.072C331.955 342.067 331.955 342.059 331.955 342.055C331.956 341.952 332.042 341.869 332.144 341.871C332.147 341.871 332.152 341.871 332.154 341.871C332.255 341.875 332.334 341.959 332.331 342.06C332.329 342.164 332.243 342.247 332.14 342.244C332.137 342.242 332.133 342.242 332.132 342.241ZM315.859 348.65C315.778 348.714 315.66 348.708 315.586 348.636C315.514 348.558 315.52 348.435 315.6 348.363C315.68 348.292 315.801 348.297 315.873 348.377C315.937 348.458 315.931 348.576 315.859 348.65ZM319.201 345.571C319.124 345.638 319.006 345.627 318.94 345.55C318.868 345.483 318.864 345.369 318.931 345.297C318.935 345.294 318.939 345.288 318.943 345.285C319.022 345.216 319.142 345.223 319.216 345.299C319.279 345.38 319.273 345.496 319.201 345.571ZM364.546 362.887C364.54 362.876 364.521 362.874 364.515 362.862C364.367 362.738 364.349 362.516 364.475 362.37C364.479 362.365 364.485 362.359 364.489 362.355C364.627 362.215 364.851 362.211 364.995 362.346C365.023 362.366 365.047 362.393 365.063 362.423C364.894 362.585 364.719 362.735 364.546 362.887ZM358.755 356.923C358.717 356.966 358.667 356.996 358.611 357.005C358.494 357.054 358.356 357.025 358.267 356.933L358.25 356.929C358.11 356.79 358.106 356.567 358.241 356.424C358.373 356.281 358.596 356.272 358.739 356.404C358.878 356.55 358.885 356.775 358.755 356.923ZM352.502 350.986C352.363 351.126 352.14 351.129 351.996 350.995C351.853 350.863 351.844 350.64 351.976 350.497C352.116 350.357 352.338 350.353 352.483 350.488C352.625 350.614 352.639 350.83 352.514 350.972C352.51 350.978 352.506 350.983 352.502 350.986ZM337.638 375.031C337.443 375.04 337.279 374.887 337.271 374.692C337.27 374.688 337.271 374.682 337.27 374.679C337.264 374.487 337.416 374.325 337.608 374.32C337.609 374.32 337.609 374.32 337.611 374.32C337.805 374.312 337.969 374.464 337.977 374.66C337.978 374.663 337.977 374.669 337.978 374.672C337.984 374.864 337.833 375.027 337.64 375.031C337.641 375.031 337.638 375.031 337.638 375.031ZM337.411 366.425C337.213 366.43 337.05 366.272 337.045 366.072C337.04 365.874 337.198 365.711 337.398 365.707C337.589 365.701 337.752 365.853 337.757 366.044C337.757 366.045 337.757 366.045 337.757 366.047C337.759 366.245 337.609 366.412 337.411 366.425ZM337.178 357.808C336.979 357.812 336.816 357.655 336.811 357.455C336.807 357.256 336.964 357.093 337.164 357.09C337.363 357.085 337.526 357.242 337.53 357.442C337.539 357.635 337.387 357.8 337.192 357.809C337.188 357.807 337.182 357.808 337.178 357.808ZM336.952 349.2C336.809 349.197 336.68 349.11 336.626 348.975C336.6 348.937 336.586 348.894 336.586 348.849C336.584 348.776 336.609 348.707 336.651 348.649L336.645 348.638C336.71 348.538 336.821 348.479 336.94 348.481C337.134 348.473 337.298 348.626 337.306 348.821C337.307 348.825 337.306 348.83 337.307 348.834C337.305 349.031 337.149 349.193 336.952 349.2ZM336.729 340.574C336.534 340.584 336.37 340.434 336.359 340.241C336.355 340.044 336.506 339.879 336.702 339.866C336.898 339.859 337.061 340.013 337.069 340.209C337.069 340.212 337.069 340.214 337.069 340.218C337.081 340.405 336.939 340.564 336.753 340.576C336.745 340.574 336.736 340.574 336.729 340.574ZM304.233 370.541C304.094 370.681 303.871 370.684 303.727 370.55C303.585 370.424 303.57 370.208 303.695 370.066C303.699 370.061 303.705 370.056 303.708 370.052C303.847 369.912 304.07 369.908 304.215 370.043C304.357 370.174 304.366 370.398 304.233 370.541ZM310.163 364.297C310.027 364.44 309.801 364.448 309.657 364.311C309.514 364.176 309.506 363.949 309.643 363.806C309.645 363.804 309.647 363.801 309.649 363.799C309.78 363.656 310.004 363.647 310.147 363.78C310.287 363.925 310.294 364.147 310.163 364.297ZM316.097 358.039C315.964 358.181 315.743 358.189 315.601 358.056C315.598 358.053 315.595 358.051 315.592 358.047C315.45 357.92 315.435 357.704 315.56 357.562C315.564 357.558 315.57 357.552 315.573 357.548C315.715 357.409 315.94 357.404 316.091 357.534C316.231 357.671 316.233 357.896 316.097 358.039ZM322.028 351.797C321.89 351.938 321.665 351.942 321.522 351.806C321.38 351.668 321.376 351.443 321.513 351.3C321.645 351.157 321.868 351.148 322.011 351.281C322.158 351.413 322.168 351.639 322.037 351.787C322.035 351.79 322.032 351.792 322.028 351.797ZM327.961 345.536C327.83 345.678 327.607 345.686 327.465 345.555C327.323 345.424 327.314 345.201 327.446 345.059C327.448 345.056 327.451 345.052 327.456 345.049C327.585 344.906 327.806 344.896 327.949 345.025C327.951 345.027 327.952 345.028 327.955 345.029C328.095 345.17 328.098 345.395 327.961 345.536ZM351.248 367.907C351.067 367.987 350.855 367.903 350.777 367.723C350.699 367.542 350.781 367.331 350.962 367.252C350.963 367.252 350.963 367.251 350.964 367.25C351.146 367.174 351.356 367.258 351.434 367.438C351.514 367.616 351.433 367.825 351.254 367.906C351.252 367.906 351.25 367.907 351.248 367.907ZM347.744 360.029C347.57 360.115 347.36 360.042 347.275 359.868C347.19 359.695 347.261 359.485 347.435 359.399C347.444 359.396 347.45 359.391 347.459 359.388C347.635 359.311 347.842 359.39 347.92 359.567C347.996 359.744 347.918 359.948 347.744 360.029ZM344.235 352.166C344.057 352.245 343.848 352.165 343.767 351.984C343.766 351.983 343.765 351.982 343.764 351.978C343.684 351.803 343.762 351.597 343.938 351.517C343.939 351.517 343.94 351.516 343.941 351.516C344.115 351.429 344.327 351.503 344.413 351.679C344.416 351.685 344.418 351.69 344.421 351.695C344.5 351.877 344.417 352.086 344.235 352.166ZM340.729 344.305C340.545 344.389 340.33 344.308 340.246 344.127C340.162 343.944 340.243 343.729 340.425 343.645C340.608 343.56 340.823 343.642 340.907 343.822C340.907 343.823 340.907 343.823 340.908 343.824C340.986 344.005 340.907 344.217 340.729 344.305ZM321.514 376.923C321.333 376.848 321.248 376.64 321.325 376.46C321.4 376.28 321.608 376.195 321.788 376.272C321.965 376.346 322.05 376.547 321.982 376.726C321.906 376.906 321.699 376.995 321.514 376.923ZM324.605 368.878C324.424 368.803 324.339 368.595 324.416 368.415C324.491 368.235 324.699 368.15 324.879 368.227C325.056 368.301 325.14 368.502 325.071 368.681C324.996 368.862 324.789 368.95 324.605 368.878ZM327.683 360.839C327.497 360.762 327.412 360.55 327.489 360.365C327.563 360.187 327.764 360.097 327.946 360.162C328.134 360.229 328.232 360.436 328.165 360.625C328.098 360.813 327.891 360.911 327.701 360.844C327.696 360.843 327.689 360.842 327.683 360.839ZM330.784 352.787C330.601 352.723 330.505 352.519 330.572 352.338C330.572 352.335 330.573 352.332 330.574 352.327C330.641 352.144 330.845 352.049 331.027 352.115C331.21 352.181 331.306 352.385 331.239 352.566C331.237 352.571 331.236 352.577 331.233 352.582C331.172 352.758 330.98 352.851 330.804 352.791C330.798 352.794 330.79 352.789 330.784 352.787ZM333.863 344.75C333.682 344.674 333.595 344.466 333.664 344.283C333.74 344.102 333.947 344.019 334.128 344.094C334.302 344.168 334.387 344.364 334.324 344.541C334.257 344.724 334.054 344.82 333.871 344.754C333.868 344.752 333.865 344.751 333.863 344.75ZM297.663 354.432C297.482 354.508 297.271 354.423 297.194 354.244C297.114 354.069 297.192 353.863 297.368 353.783C297.369 353.783 297.369 353.782 297.37 353.781C297.538 353.693 297.744 353.759 297.831 353.925C297.835 353.933 297.84 353.941 297.844 353.95C297.918 354.134 297.84 354.342 297.663 354.432ZM305.543 350.918C305.36 350.993 305.151 350.915 305.062 350.738C304.986 350.557 305.07 350.347 305.25 350.268C305.428 350.188 305.637 350.269 305.718 350.449C305.719 350.45 305.719 350.451 305.72 350.455C305.8 350.63 305.722 350.835 305.547 350.915C305.545 350.917 305.544 350.918 305.543 350.918ZM313.408 347.413C313.239 347.495 313.035 347.423 312.953 347.252C312.951 347.249 312.948 347.241 312.947 347.238C312.861 347.063 312.935 346.851 313.111 346.765C313.116 346.762 313.122 346.76 313.126 346.756C313.307 346.676 313.519 346.759 313.597 346.94C313.677 347.121 313.593 347.332 313.413 347.411C313.411 347.412 313.41 347.412 313.408 347.413ZM321.293 343.911C321.112 343.987 320.901 343.903 320.823 343.723C320.742 343.553 320.814 343.35 320.985 343.267C320.989 343.265 320.996 343.263 321 343.261C321.177 343.179 321.386 343.254 321.472 343.429C321.551 343.614 321.471 343.825 321.293 343.911ZM357.634 368.72C357.648 368.635 357.701 368.562 357.772 368.517C357.819 368.493 357.871 368.486 357.924 368.49C357.832 368.555 357.733 368.638 357.634 368.72ZM354.296 362.383C354.149 362.468 353.961 362.418 353.876 362.27C353.874 362.266 353.872 362.261 353.87 362.257C353.789 362.104 353.846 361.914 353.999 361.831C354.15 361.75 354.338 361.804 354.421 361.955C354.506 362.102 354.457 362.288 354.309 362.374C354.305 362.379 354.3 362.381 354.296 362.383ZM350.512 355.688C350.371 355.775 350.187 355.73 350.1 355.59C350.095 355.581 350.09 355.573 350.085 355.564C350.003 355.411 350.057 355.221 350.21 355.138C350.362 355.054 350.552 355.109 350.636 355.262C350.719 355.413 350.663 355.605 350.512 355.688ZM346.724 348.993C346.583 349.08 346.399 349.035 346.312 348.895C346.307 348.886 346.302 348.878 346.297 348.869C346.212 348.716 346.263 348.522 346.413 348.433C346.467 348.407 346.526 348.4 346.582 348.408C346.753 348.412 346.89 348.553 346.886 348.725C346.886 348.838 346.823 348.941 346.724 348.993ZM329.486 379.74C329.319 379.692 329.22 379.52 329.264 379.352C329.31 379.183 329.483 379.083 329.652 379.13C329.821 379.176 329.92 379.349 329.875 379.518C329.826 379.685 329.656 379.783 329.486 379.74ZM331.544 372.33C331.377 372.282 331.278 372.11 331.322 371.941C331.362 371.772 331.534 371.668 331.705 371.709C331.874 371.749 331.977 371.921 331.937 372.091C331.936 372.098 331.934 372.103 331.933 372.109C331.891 372.276 331.723 372.376 331.557 372.335C331.552 372.333 331.547 372.331 331.544 372.33ZM333.825 364.887C333.759 364.931 333.676 364.943 333.598 364.919C333.43 364.872 333.331 364.699 333.375 364.531C333.421 364.358 333.598 364.254 333.772 364.3C333.773 364.3 333.773 364.3 333.774 364.301C333.876 364.329 333.958 364.405 333.993 364.506L333.999 364.517C334.022 364.573 334.019 364.635 333.994 364.691C333.979 364.782 333.914 364.856 333.825 364.887ZM335.656 357.509C335.485 357.46 335.385 357.282 335.437 357.112C335.488 356.941 335.664 356.841 335.834 356.893C336.002 356.94 336.101 357.112 336.057 357.281C336.011 357.454 335.834 357.558 335.66 357.512C335.658 357.509 335.657 357.51 335.656 357.509ZM337.713 350.099C337.543 350.045 337.448 349.865 337.503 349.695C337.554 349.533 337.725 349.437 337.89 349.48C338.063 349.524 338.165 349.7 338.12 349.872C338.075 350.045 337.9 350.147 337.727 350.102C337.722 350.102 337.717 350.101 337.713 350.099ZM339.77 342.688C339.6 342.634 339.505 342.455 339.56 342.284C339.611 342.122 339.782 342.027 339.947 342.07C340.12 342.116 340.222 342.29 340.177 342.463C340.133 342.636 339.957 342.738 339.784 342.693C339.779 342.692 339.773 342.69 339.77 342.688ZM304.219 359.774C304.061 359.856 303.866 359.801 303.775 359.647C303.69 359.499 303.741 359.312 303.888 359.227C303.891 359.225 303.896 359.224 303.901 359.221C304.052 359.132 304.246 359.181 304.334 359.333C304.335 359.334 304.336 359.335 304.336 359.339C304.418 359.489 304.366 359.68 304.219 359.774ZM310.9 355.987C310.747 356.069 310.557 356.014 310.474 355.862C310.389 355.715 310.44 355.528 310.587 355.443C310.591 355.441 310.596 355.439 310.6 355.436C310.751 355.348 310.944 355.396 311.035 355.548C311.036 355.55 311.037 355.551 311.038 355.555C311.114 355.71 311.054 355.902 310.9 355.987ZM317.61 352.196C317.459 352.285 317.266 352.236 317.177 352.084C317.176 352.082 317.175 352.082 317.174 352.078C317.087 351.937 317.132 351.753 317.272 351.666C317.281 351.661 317.29 351.656 317.299 351.651C317.45 351.562 317.643 351.611 317.734 351.763C317.735 351.765 317.736 351.766 317.737 351.767C317.814 351.92 317.758 352.109 317.61 352.196ZM324.297 348.42C324.14 348.502 323.947 348.44 323.865 348.283C323.786 348.13 323.839 347.943 323.988 347.859C324.142 347.779 324.333 347.829 324.425 347.976C324.507 348.134 324.452 348.328 324.297 348.42ZM331.007 344.628C330.854 344.717 330.657 344.666 330.569 344.514C330.48 344.361 330.531 344.166 330.683 344.077C330.684 344.077 330.684 344.077 330.685 344.076C330.844 343.994 331.039 344.049 331.129 344.203C331.204 344.355 331.15 344.539 331.007 344.628ZM337.704 340.846C337.551 340.934 337.355 340.88 337.268 340.728C337.181 340.575 337.234 340.382 337.385 340.293C337.539 340.207 337.731 340.26 337.822 340.41C337.904 340.563 337.853 340.753 337.704 340.846ZM345.239 369.683C345.069 369.706 344.912 369.584 344.889 369.413C344.888 369.408 344.889 369.402 344.888 369.398C344.864 369.234 344.977 369.081 345.142 369.056C345.15 369.056 345.155 369.054 345.161 369.054C345.333 369.028 345.495 369.146 345.521 369.321C345.522 369.325 345.522 369.33 345.522 369.332C345.536 369.505 345.413 369.66 345.239 369.683ZM344.303 362.044C344.133 362.067 343.974 361.949 343.949 361.777C343.926 361.6 344.05 361.44 344.225 361.416C344.399 361.401 344.557 361.52 344.586 361.693C344.605 361.868 344.478 362.024 344.303 362.043V362.044ZM343.374 354.417C343.197 354.44 343.036 354.316 343.013 354.14C342.997 353.966 343.117 353.808 343.289 353.78C343.464 353.76 343.621 353.887 343.64 354.063V354.064C343.668 354.231 343.555 354.388 343.389 354.416C343.385 354.415 343.379 354.416 343.374 354.417ZM342.428 346.787C342.252 346.802 342.097 346.677 342.075 346.502C342.056 346.326 342.185 346.171 342.36 346.149C342.536 346.132 342.691 346.259 342.712 346.434C342.729 346.61 342.603 346.768 342.428 346.787ZM317.951 369.566C317.838 369.7 317.639 369.721 317.502 369.611C317.364 369.505 317.339 369.308 317.446 369.17C317.557 369.034 317.755 369.004 317.898 369.107C318.038 369.219 318.061 369.423 317.951 369.566ZM322.685 363.496C322.586 363.633 322.395 363.664 322.259 363.565C322.255 363.562 322.249 363.556 322.244 363.554C322.106 363.448 322.081 363.251 322.189 363.112C322.299 362.977 322.497 362.947 322.639 363.049C322.775 363.161 322.795 363.36 322.685 363.496ZM327.427 357.44C327.32 357.579 327.124 357.603 326.986 357.496C326.848 357.39 326.823 357.193 326.93 357.055C327.037 356.916 327.233 356.892 327.372 356.999C327.509 357.107 327.533 357.302 327.427 357.44ZM332.169 351.383C332.062 351.521 331.866 351.546 331.727 351.439C331.647 351.38 331.598 351.286 331.6 351.186L331.595 351.175C331.6 351.106 331.625 351.042 331.666 350.987C331.779 350.852 331.977 350.831 332.115 350.941C332.25 351.048 332.275 351.246 332.169 351.383ZM336.911 345.327C336.799 345.466 336.595 345.49 336.452 345.381C336.318 345.268 336.297 345.07 336.407 344.933C336.435 344.9 336.468 344.873 336.506 344.851C336.572 344.867 336.644 344.859 336.702 344.823C336.758 344.827 336.813 344.851 336.856 344.887C336.992 344.992 337.017 345.188 336.911 345.327ZM303.029 344.182C302.864 344.206 302.712 344.092 302.687 343.928C302.687 343.919 302.685 343.915 302.685 343.908C302.659 343.737 302.779 343.575 302.952 343.548C302.955 343.547 302.961 343.547 302.963 343.547C303.137 343.534 303.291 343.659 303.315 343.832C303.338 344.003 303.216 344.16 303.045 344.181C303.039 344.181 303.032 344.181 303.029 344.182ZM310.671 343.247C310.496 343.267 310.335 343.145 310.31 342.97C310.293 342.794 310.422 342.636 310.6 342.617C310.769 342.601 310.922 342.718 310.948 342.885C310.976 343.056 310.86 343.217 310.691 343.244C310.683 343.246 310.678 343.246 310.671 343.247ZM333.581 340.437C333.411 340.46 333.252 340.342 333.227 340.171C333.204 339.994 333.327 339.834 333.503 339.81C333.677 339.794 333.836 339.914 333.864 340.086C333.882 340.261 333.756 340.418 333.581 340.436V340.436V340.437ZM361.518 360.547C361.441 360.618 361.321 360.614 361.249 360.537C361.249 360.536 361.247 360.535 361.246 360.534C361.187 360.449 361.2 360.334 361.276 360.265C361.353 360.198 361.471 360.208 361.537 360.285C361.606 360.363 361.597 360.478 361.518 360.547C361.517 360.545 361.52 360.543 361.518 360.547ZM358.566 357.1C358.489 357.166 358.371 357.156 358.305 357.079C358.267 357.041 358.254 356.987 358.267 356.935C358.269 356.889 358.291 356.847 358.325 356.818C358.402 356.751 358.52 356.761 358.586 356.838C358.629 356.883 358.64 356.952 358.611 357.006C358.615 357.045 358.597 357.08 358.566 357.1ZM355.614 353.656C355.537 353.723 355.419 353.713 355.353 353.636C355.287 353.559 355.296 353.441 355.373 353.374C355.453 353.305 355.573 353.312 355.646 353.388C355.703 353.472 355.69 353.586 355.614 353.656ZM343.211 366.499C343.106 366.489 343.029 366.398 343.037 366.294C343.048 366.19 343.139 366.113 343.243 366.121C343.346 366.131 343.424 366.223 343.416 366.327C343.405 366.428 343.313 366.503 343.211 366.499ZM343.562 361.982C343.458 361.972 343.381 361.88 343.388 361.777C343.397 361.673 343.49 361.596 343.593 361.603C343.697 361.609 343.776 361.705 343.767 361.808C343.755 361.912 343.666 361.987 343.562 361.982ZM343.918 357.449C343.818 357.44 343.745 357.354 343.752 357.254C343.752 357.156 343.829 357.079 343.927 357.079C343.937 357.079 343.949 357.08 343.957 357.082C344.057 357.091 344.13 357.177 344.123 357.277C344.122 357.375 344.043 357.454 343.946 357.453C343.936 357.451 343.926 357.45 343.918 357.449ZM344.268 352.933C344.169 352.924 344.095 352.838 344.103 352.738C344.104 352.635 344.191 352.551 344.294 352.554C344.297 352.554 344.298 352.555 344.302 352.554C344.404 352.567 344.481 352.656 344.475 352.759C344.463 352.862 344.374 352.938 344.268 352.933ZM344.632 348.407C344.529 348.394 344.453 348.305 344.459 348.202C344.468 348.102 344.554 348.029 344.654 348.036C344.757 348.038 344.841 348.124 344.838 348.228C344.838 348.23 344.837 348.231 344.838 348.236C344.825 348.339 344.735 348.414 344.632 348.407ZM326.319 357.786C326.242 357.852 326.124 357.842 326.058 357.765C325.991 357.689 326.001 357.57 326.078 357.504C326.155 357.437 326.273 357.447 326.34 357.524C326.406 357.603 326.398 357.72 326.319 357.786C326.319 357.786 326.32 357.786 326.319 357.786ZM329.774 354.848C329.69 354.911 329.572 354.898 329.505 354.818C329.438 354.741 329.448 354.623 329.525 354.556C329.597 354.489 329.711 354.494 329.778 354.566C329.78 354.57 329.783 354.573 329.788 354.577C329.859 354.654 329.854 354.774 329.778 354.847C329.776 354.846 329.775 354.846 329.774 354.848ZM333.221 351.897C333.144 351.963 333.026 351.953 332.96 351.876C332.893 351.799 332.903 351.681 332.98 351.614C332.98 351.614 332.98 351.614 332.981 351.614C333.054 351.548 333.167 351.552 333.234 351.625C333.237 351.628 333.24 351.631 333.244 351.636C333.308 351.712 333.298 351.829 333.221 351.897ZM336.668 348.946L336.625 348.975C336.549 349.003 336.462 348.985 336.407 348.925C336.34 348.849 336.35 348.73 336.427 348.664C336.487 348.614 336.571 348.604 336.642 348.639L336.647 348.65C336.664 348.654 336.678 348.669 336.687 348.684C336.754 348.756 336.749 348.869 336.677 348.936C336.676 348.941 336.672 348.944 336.668 348.946ZM340.123 346.007C340.046 346.073 339.928 346.063 339.862 345.986C339.796 345.909 339.807 345.79 339.886 345.724C339.963 345.659 340.079 345.668 340.145 345.744C340.21 345.823 340.2 345.94 340.123 346.007ZM333.857 340.745C333.755 340.732 333.678 340.643 333.684 340.539C333.697 340.436 333.785 340.36 333.889 340.366C333.989 340.375 334.062 340.461 334.055 340.561C334.053 340.664 333.967 340.748 333.863 340.745C333.86 340.745 333.858 340.745 333.857 340.745ZM338.374 341.096C338.269 341.086 338.193 340.994 338.201 340.891C338.211 340.786 338.302 340.709 338.406 340.717C338.51 340.728 338.587 340.819 338.579 340.923C338.569 341.025 338.478 341.103 338.374 341.096ZM352.513 362.963C352.416 362.991 352.313 362.94 352.278 362.847C352.25 362.746 352.305 362.64 352.405 362.604C352.499 362.57 352.604 362.62 352.638 362.715C352.639 362.717 352.639 362.718 352.639 362.721C352.668 362.821 352.611 362.927 352.513 362.963ZM351.113 358.647C351.015 358.679 350.911 358.626 350.877 358.531C350.841 358.44 350.887 358.338 350.979 358.301C350.983 358.299 350.989 358.298 350.994 358.298C351.082 358.26 351.184 358.302 351.221 358.39C351.224 358.396 351.226 358.405 351.229 358.414C351.263 358.508 351.213 358.613 351.118 358.647C351.118 358.647 351.116 358.647 351.113 358.647ZM349.713 354.333C349.622 354.369 349.518 354.321 349.483 354.231C349.482 354.227 349.481 354.221 349.48 354.216C349.442 354.129 349.484 354.026 349.573 353.989C349.58 353.987 349.588 353.983 349.597 353.981C349.691 353.947 349.796 353.997 349.83 354.092C349.83 354.094 349.831 354.095 349.831 354.098C349.862 354.194 349.811 354.299 349.713 354.333ZM348.305 350.025C348.203 350.051 348.1 349.995 348.062 349.898C348.04 349.797 348.093 349.696 348.189 349.655C348.292 349.625 348.399 349.682 348.43 349.785C348.461 349.886 348.405 349.992 348.305 350.025ZM335.045 361.74C334.957 361.688 334.922 361.58 334.963 361.487C335.005 361.396 335.116 361.357 335.208 361.4C335.21 361.401 335.212 361.402 335.218 361.404C335.308 361.444 335.348 361.552 335.308 361.642C335.305 361.647 335.304 361.653 335.298 361.658C335.251 361.751 335.138 361.786 335.045 361.74ZM337.098 357.69C337.01 357.638 336.975 357.53 337.017 357.437C337.065 357.347 337.178 357.31 337.27 357.355C337.361 357.394 337.407 357.498 337.368 357.59C337.367 357.592 337.366 357.598 337.363 357.601C337.32 357.699 337.206 357.74 337.11 357.696C337.106 357.695 337.103 357.693 337.098 357.69ZM339.17 353.646C339.08 353.606 339.04 353.498 339.08 353.408C339.083 353.403 339.084 353.397 339.089 353.392C339.137 353.301 339.25 353.264 339.343 353.311C339.431 353.363 339.466 353.471 339.424 353.564C339.382 353.655 339.271 353.694 339.182 353.651C339.175 353.65 339.173 353.649 339.17 353.646ZM341.231 349.608C341.142 349.567 341.101 349.46 341.142 349.37C341.144 349.365 341.145 349.359 341.151 349.354C341.198 349.263 341.312 349.225 341.404 349.273C341.492 349.325 341.527 349.433 341.486 349.526C341.436 349.619 341.323 349.655 341.231 349.608ZM343.293 345.57C343.202 345.528 343.163 345.417 343.206 345.325C343.207 345.322 343.209 345.321 343.211 345.315C343.251 345.225 343.358 345.185 343.449 345.225C343.453 345.228 343.46 345.229 343.464 345.235C343.556 345.282 343.593 345.396 343.546 345.488C343.493 345.575 343.385 345.611 343.293 345.57ZM323.799 348.64C323.701 348.673 323.596 348.62 323.563 348.523C323.53 348.425 323.582 348.321 323.68 348.289C323.768 348.251 323.87 348.294 323.907 348.381C323.91 348.388 323.913 348.396 323.915 348.405C323.949 348.5 323.899 348.604 323.804 348.638C323.803 348.637 323.801 348.638 323.799 348.64ZM328.116 347.241C328.014 347.271 327.906 347.216 327.873 347.114C327.846 347.019 327.9 346.919 327.996 346.889H327.997C328.085 346.851 328.188 346.893 328.224 346.981C328.227 346.987 328.23 346.996 328.232 347.005C328.266 347.099 328.217 347.204 328.122 347.238C328.12 347.24 328.119 347.24 328.116 347.241ZM332.434 345.844C332.332 345.874 332.223 345.818 332.193 345.716C332.162 345.615 332.218 345.507 332.319 345.475C332.423 345.45 332.528 345.514 332.554 345.617C332.577 345.711 332.526 345.808 332.434 345.844ZM336.745 344.434C336.65 344.468 336.546 344.418 336.512 344.323C336.511 344.321 336.51 344.32 336.51 344.317C336.493 344.253 336.509 344.182 336.552 344.131C336.571 344.102 336.603 344.081 336.636 344.074C336.734 344.046 336.836 344.097 336.872 344.19C336.885 344.233 336.883 344.277 336.868 344.318L336.857 344.324C336.845 344.381 336.799 344.424 336.745 344.434ZM341.062 343.036C340.965 343.061 340.865 343.011 340.827 342.919C340.794 342.818 340.849 342.712 340.949 342.678C340.95 342.678 340.952 342.676 340.954 342.677C341.048 342.644 341.153 342.693 341.187 342.788C341.187 342.79 341.188 342.791 341.188 342.795C341.217 342.895 341.162 343.001 341.062 343.036ZM336.892 341.08C336.777 341.049 336.709 340.929 336.739 340.814C336.77 340.698 336.89 340.63 337.006 340.661C337.121 340.691 337.189 340.812 337.159 340.927C337.126 341.043 337.007 341.109 336.892 341.08ZM361.261 364.547C361.159 364.603 361.031 364.569 360.974 364.467C360.915 364.364 360.947 364.234 361.047 364.168C361.152 364.112 361.286 364.152 361.341 364.258V364.259C361.4 364.357 361.369 364.481 361.272 364.541C361.267 364.544 361.264 364.547 361.261 364.547ZM358.664 360.068C358.562 360.124 358.434 360.089 358.376 359.987C358.316 359.884 358.349 359.755 358.449 359.689C358.554 359.632 358.688 359.672 358.743 359.779V359.779C358.803 359.871 358.776 359.995 358.686 360.055C358.678 360.061 358.671 360.063 358.664 360.068ZM356.066 355.59C355.964 355.646 355.836 355.611 355.779 355.51C355.726 355.406 355.756 355.279 355.852 355.211C355.958 355.154 356.091 355.195 356.146 355.301V355.302C356.207 355.393 356.179 355.517 356.09 355.577C356.079 355.58 356.073 355.586 356.066 355.59ZM342.077 371.925C341.967 371.896 341.902 371.785 341.929 371.675C341.929 371.674 341.93 371.671 341.93 371.668C341.957 371.555 342.069 371.485 342.181 371.511C342.186 371.513 342.193 371.514 342.197 371.514C342.307 371.543 342.372 371.655 342.344 371.765C342.344 371.765 342.343 371.768 342.343 371.771C342.311 371.886 342.191 371.954 342.077 371.925ZM343.415 366.929C343.299 366.898 343.231 366.779 343.262 366.662C343.293 366.546 343.413 366.478 343.528 366.509C343.638 366.538 343.703 366.649 343.676 366.759C343.676 366.76 343.675 366.763 343.675 366.766C343.655 366.878 343.546 366.954 343.432 366.933C343.426 366.931 343.421 366.931 343.415 366.929ZM344.746 361.924C344.647 361.893 344.582 361.797 344.586 361.694C344.59 361.676 344.583 361.666 344.592 361.657C344.623 361.542 344.743 361.474 344.858 361.504C344.974 361.535 345.041 361.654 345.011 361.771C344.98 361.887 344.862 361.956 344.746 361.924ZM346.075 356.918C345.96 356.888 345.891 356.768 345.922 356.652C345.953 356.536 346.074 356.468 346.189 356.499C346.262 356.516 346.318 356.573 346.336 356.644C346.351 356.665 346.347 356.684 346.356 356.693L346.342 356.764C346.312 356.879 346.194 356.948 346.075 356.918ZM347.409 351.914C347.299 351.886 347.234 351.776 347.261 351.668C347.261 351.665 347.263 351.663 347.264 351.658C347.284 351.546 347.393 351.47 347.507 351.492C347.513 351.493 347.518 351.494 347.522 351.494C347.638 351.525 347.707 351.645 347.675 351.761C347.642 351.876 347.524 351.945 347.409 351.914ZM324.912 358.665C324.82 358.725 324.696 358.698 324.636 358.608C324.631 358.6 324.627 358.594 324.623 358.585C324.567 358.483 324.601 358.355 324.704 358.297C324.807 358.244 324.934 358.274 325.002 358.37C325.059 358.475 325.019 358.608 324.912 358.665ZM329.4 356.079C329.295 356.136 329.161 356.096 329.106 355.99V355.989C329.05 355.887 329.084 355.759 329.187 355.7C329.29 355.647 329.418 355.677 329.485 355.773C329.538 355.882 329.503 356.013 329.4 356.079ZM333.886 353.467C333.796 353.531 333.67 353.511 333.604 353.423C333.599 353.414 333.592 353.406 333.588 353.395C333.532 353.293 333.566 353.165 333.668 353.106C333.772 353.053 333.899 353.084 333.967 353.18C334.023 353.28 333.987 353.409 333.886 353.467ZM338.369 350.87C338.28 350.934 338.153 350.914 338.087 350.826C338.083 350.817 338.075 350.809 338.071 350.798C338.015 350.696 338.049 350.568 338.151 350.511C338.255 350.451 338.385 350.483 338.45 350.584C338.506 350.685 338.47 350.813 338.369 350.87ZM342.851 348.274C342.761 348.338 342.635 348.318 342.569 348.23C342.564 348.221 342.557 348.213 342.552 348.202C342.49 348.099 342.523 347.964 342.625 347.902C342.728 347.84 342.863 347.873 342.925 347.976C342.987 348.076 342.954 348.212 342.851 348.274C342.852 348.274 342.852 348.274 342.851 348.274ZM353.104 369.832C352.987 369.853 352.876 369.776 352.854 369.659C352.853 369.655 352.854 369.651 352.853 369.648C352.845 369.531 352.928 369.427 353.043 369.407C353.16 369.392 353.268 369.474 353.283 369.59C353.283 369.593 353.284 369.595 353.283 369.598C353.298 369.712 353.217 369.817 353.104 369.832ZM352.413 364.704C352.299 364.718 352.195 364.637 352.182 364.524C352.16 364.407 352.237 364.296 352.355 364.275C352.358 364.275 352.363 364.275 352.366 364.275C352.484 364.262 352.591 364.349 352.604 364.467C352.613 364.582 352.53 364.689 352.413 364.704ZM351.733 359.569C351.623 359.588 351.52 359.516 351.503 359.408C351.501 359.401 351.501 359.396 351.501 359.388C351.478 359.278 351.549 359.171 351.659 359.147C351.664 359.146 351.67 359.146 351.674 359.144C351.79 359.122 351.902 359.2 351.924 359.317C351.946 359.433 351.868 359.545 351.751 359.565C351.744 359.566 351.738 359.566 351.733 359.569ZM351.041 354.438C350.927 354.452 350.823 354.371 350.81 354.258C350.788 354.141 350.865 354.03 350.983 354.009C350.986 354.009 350.991 354.009 350.994 354.009C351.111 353.999 351.216 354.083 351.235 354.199C351.246 354.317 351.161 354.424 351.041 354.438ZM350.363 349.304C350.253 349.323 350.15 349.251 350.133 349.143C350.131 349.136 350.131 349.131 350.131 349.123C350.108 349.012 350.179 348.906 350.289 348.882C350.294 348.881 350.299 348.881 350.304 348.879C350.423 348.862 350.536 348.942 350.555 349.061C350.561 349.181 350.479 349.284 350.363 349.304ZM333.825 364.887C333.795 364.881 333.766 364.87 333.74 364.853C333.646 364.785 333.629 364.652 333.698 364.558C333.7 364.557 333.7 364.555 333.702 364.552C333.773 364.463 333.899 364.441 333.995 364.504L334.001 364.515C334.094 364.584 334.111 364.717 334.042 364.81C334.04 364.812 334.039 364.814 334.038 364.817C333.991 364.884 333.904 364.913 333.825 364.887ZM337.19 360.694C337.122 360.787 336.994 360.809 336.899 360.743C336.899 360.742 336.898 360.743 336.897 360.741C336.803 360.67 336.78 360.538 336.843 360.438C336.92 360.347 337.055 360.327 337.154 360.395C337.246 360.467 337.26 360.603 337.19 360.694ZM340.335 356.589C340.261 356.682 340.127 356.699 340.035 356.627C339.942 356.554 339.925 356.42 339.998 356.328C340.071 356.235 340.206 356.218 340.297 356.29C340.391 356.359 340.408 356.491 340.338 356.585C340.338 356.587 340.337 356.588 340.335 356.589ZM343.491 352.478C343.417 352.57 343.284 352.585 343.191 352.516C343.1 352.456 343.072 352.333 343.131 352.241C343.135 352.235 343.139 352.228 343.144 352.224C343.212 352.131 343.341 352.108 343.434 352.176C343.434 352.177 343.435 352.176 343.436 352.178C343.534 352.245 343.561 352.378 343.491 352.478C343.493 352.477 343.493 352.477 343.491 352.478ZM346.585 348.408C346.528 348.398 346.468 348.408 346.416 348.433C346.387 348.426 346.358 348.415 346.331 348.399C346.238 348.326 346.221 348.192 346.293 348.099C346.367 348.007 346.501 347.989 346.593 348.062C346.686 348.135 346.703 348.269 346.63 348.361C346.618 348.381 346.603 348.397 346.585 348.408ZM323.818 347.837C323.702 347.852 323.594 347.77 323.578 347.653C323.578 347.651 323.577 347.649 323.578 347.645C323.564 347.531 323.645 347.428 323.758 347.413C323.869 347.39 323.975 347.461 324 347.572C324.001 347.576 324.001 347.582 324.003 347.586C324.019 347.705 323.936 347.817 323.818 347.837ZM328.95 347.147C328.841 347.166 328.738 347.093 328.721 346.986C328.719 346.979 328.719 346.974 328.719 346.966C328.696 346.856 328.766 346.749 328.876 346.726C328.881 346.726 328.886 346.726 328.891 346.724C329.01 346.707 329.123 346.788 329.142 346.906C329.155 347.025 329.07 347.133 328.95 347.147C328.95 347.147 328.951 347.147 328.95 347.147ZM334.089 346.467C333.972 346.483 333.864 346.399 333.849 346.284C333.835 346.169 333.915 346.063 334.03 346.044C334.146 346.023 334.258 346.1 334.28 346.217C334.281 346.221 334.28 346.225 334.281 346.228C334.288 346.345 334.205 346.448 334.089 346.467ZM339.228 345.788C339.11 345.801 339.002 345.716 338.988 345.598C338.988 345.598 338.988 345.598 338.988 345.597C338.968 345.487 339.042 345.385 339.149 345.367C339.154 345.365 339.161 345.365 339.168 345.365C339.279 345.343 339.385 345.413 339.409 345.523C339.41 345.528 339.41 345.533 339.412 345.538C339.423 345.656 339.344 345.762 339.228 345.788ZM344.36 345.097C344.243 345.111 344.136 345.029 344.12 344.911C344.105 344.796 344.186 344.691 344.3 344.673C344.418 344.658 344.529 344.739 344.551 344.855C344.559 344.974 344.475 345.079 344.36 345.097ZM356.274 369.397C356.069 369.413 355.891 369.26 355.875 369.055C355.86 368.858 356.002 368.684 356.199 368.659C356.399 368.639 356.581 368.779 356.607 368.98C356.623 369.185 356.477 369.368 356.274 369.397ZM355.29 360.568C355.089 360.593 354.905 360.445 354.882 360.244C354.858 360.042 355.001 359.86 355.203 359.837C355.404 359.817 355.586 359.957 355.611 360.159C355.632 360.36 355.489 360.541 355.29 360.568ZM354.414 351.695C354.376 351.719 354.332 351.734 354.288 351.735C354.221 351.746 354.151 351.734 354.094 351.699C353.977 351.649 353.894 351.538 353.88 351.412C353.864 351.208 354.018 351.029 354.222 351.014C354.419 350.998 354.594 351.14 354.619 351.336C354.641 351.49 354.557 351.636 354.414 351.695ZM323.567 385.371C323.435 385.525 323.205 385.547 323.043 385.422C322.885 385.296 322.856 385.066 322.982 384.907C323.114 384.752 323.347 384.73 323.506 384.856C323.665 384.981 323.692 385.212 323.567 385.371ZM329.104 378.424C328.978 378.582 328.748 378.611 328.59 378.485C328.431 378.359 328.403 378.129 328.528 377.97C328.655 377.812 328.885 377.784 329.043 377.909C329.201 378.034 329.229 378.264 329.104 378.424ZM334.649 371.489C334.517 371.645 334.284 371.667 334.125 371.54C333.971 371.409 333.954 371.179 334.084 371.025C334.215 370.872 334.445 370.854 334.599 370.984C334.75 371.111 334.771 371.334 334.649 371.489ZM340.186 364.542C340.06 364.7 339.829 364.725 339.671 364.599C339.514 364.472 339.487 364.245 339.609 364.087C339.736 363.928 339.967 363.904 340.125 364.03C340.282 364.155 340.31 364.384 340.186 364.542ZM345.73 357.607C345.598 357.763 345.365 357.785 345.206 357.658C345.051 357.529 345.029 357.3 345.159 357.144C345.286 356.991 345.513 356.969 345.669 357.092C345.828 357.217 345.856 357.447 345.73 357.607ZM351.268 350.66C351.142 350.819 350.912 350.846 350.753 350.72C350.595 350.594 350.567 350.364 350.691 350.206C350.818 350.047 351.048 350.02 351.207 350.146C351.365 350.271 351.393 350.501 351.268 350.66ZM305.236 352.787C305.031 352.803 304.848 352.658 304.82 352.454C304.804 352.25 304.957 352.071 305.162 352.056C305.359 352.04 305.534 352.182 305.558 352.378C305.577 352.578 305.436 352.758 305.236 352.787ZM314.062 351.793C313.862 351.812 313.681 351.67 313.654 351.472C313.629 351.27 313.773 351.087 313.976 351.064C314.179 351.041 314.361 351.183 314.384 351.386C314.406 351.586 314.264 351.766 314.062 351.793ZM322.889 350.801C322.689 350.821 322.506 350.681 322.481 350.48C322.464 350.275 322.61 350.092 322.813 350.064C323.017 350.049 323.196 350.202 323.211 350.407C323.224 350.602 323.083 350.775 322.889 350.801ZM331.716 349.807C331.515 349.828 331.333 349.687 331.307 349.486C331.292 349.282 331.437 349.101 331.639 349.07C331.836 349.049 332.014 349.193 332.037 349.39C332.037 349.393 332.037 349.398 332.037 349.4C332.068 349.591 331.939 349.772 331.748 349.805C331.738 349.806 331.727 349.807 331.716 349.807ZM340.55 348.824C340.346 348.838 340.168 348.686 340.152 348.482C340.137 348.286 340.279 348.111 340.474 348.086C340.675 348.065 340.857 348.206 340.882 348.407C340.898 348.613 340.753 348.795 340.55 348.824ZM362.736 363.004C362.567 363.101 362.352 363.042 362.255 362.873C362.253 362.87 362.252 362.863 362.25 362.86C362.15 362.686 362.208 362.467 362.381 362.366C362.382 362.365 362.384 362.364 362.386 362.363C362.567 362.271 362.789 362.335 362.893 362.511C362.988 362.686 362.922 362.907 362.745 363.001C362.741 363.002 362.738 363.003 362.736 363.004ZM358.451 355.229C358.276 355.33 358.053 355.27 357.953 355.095C357.952 355.091 357.95 355.085 357.948 355.081C357.853 354.913 357.91 354.697 358.079 354.601C358.082 354.599 358.089 354.597 358.093 354.595C358.269 354.497 358.491 354.56 358.589 354.735C358.685 354.91 358.624 355.129 358.451 355.229ZM346.515 373.371C346.318 373.314 346.204 373.109 346.26 372.911C346.317 372.714 346.521 372.6 346.72 372.657C346.917 372.713 347.032 372.919 346.975 373.116C346.913 373.31 346.711 373.421 346.515 373.371ZM348.988 364.835C348.792 364.787 348.672 364.59 348.719 364.393C348.72 364.39 348.72 364.386 348.72 364.383C348.78 364.188 348.984 364.076 349.179 364.128C349.375 364.181 349.491 364.384 349.436 364.579C349.436 364.58 349.434 364.583 349.434 364.585C349.381 364.78 349.181 364.891 348.988 364.835ZM351.445 356.298C351.249 356.244 351.135 356.041 351.19 355.844C351.19 355.843 351.191 355.841 351.191 355.839C351.246 355.657 351.436 355.554 351.62 355.607C351.631 355.6 351.631 355.6 351.648 355.603C351.828 355.653 351.939 355.832 351.902 356.016L351.897 356.053C351.848 356.241 351.656 356.355 351.467 356.306C351.457 356.303 351.45 356.302 351.445 356.298ZM315.115 369.43C314.934 369.519 314.716 369.455 314.609 369.283C314.518 369.102 314.586 368.883 314.765 368.788C314.938 368.688 315.158 368.746 315.259 368.919C315.26 368.921 315.261 368.923 315.262 368.925C315.363 369.105 315.297 369.329 315.115 369.43C315.118 369.429 315.118 369.429 315.115 369.43ZM322.9 365.13C322.72 365.229 322.495 365.163 322.396 364.984C322.396 364.984 322.396 364.984 322.396 364.983C322.3 364.809 322.365 364.591 322.539 364.497C322.714 364.396 322.936 364.456 323.038 364.63C323.138 364.805 323.079 365.026 322.905 365.128C322.903 365.128 322.901 365.129 322.9 365.13ZM330.672 360.838C330.499 360.938 330.279 360.88 330.178 360.708C330.177 360.706 330.176 360.704 330.175 360.702C330.072 360.526 330.128 360.297 330.306 360.193C330.482 360.09 330.711 360.147 330.815 360.324C330.919 360.5 330.862 360.729 330.684 360.833C330.68 360.834 330.677 360.836 330.672 360.838ZM338.444 356.546C338.265 356.638 338.045 356.57 337.951 356.391C337.86 356.217 337.923 356.002 338.094 355.903C338.269 355.805 338.491 355.866 338.591 356.041C338.691 356.22 338.627 356.447 338.444 356.546C338.445 356.546 338.445 356.546 338.444 356.546ZM346.237 352.256C346.056 352.355 345.832 352.289 345.73 352.109C345.73 352.109 345.73 352.109 345.73 352.108C345.637 351.928 345.702 351.705 345.878 351.603C346.053 351.507 346.273 351.573 346.368 351.75C346.369 351.752 346.369 351.754 346.371 351.758C346.469 351.934 346.408 352.156 346.237 352.256ZM336.365 343.102C336.174 343.047 336.063 342.846 336.118 342.655C336.175 342.458 336.379 342.343 336.578 342.399C336.775 342.456 336.889 342.661 336.832 342.859C336.772 343.054 336.564 343.165 336.369 343.103C336.368 343.102 336.366 343.101 336.365 343.102ZM344.916 345.567C344.719 345.511 344.602 345.308 344.659 345.11C344.715 344.912 344.918 344.796 345.116 344.853C345.117 344.853 345.118 344.854 345.12 344.854C345.314 344.913 345.425 345.118 345.367 345.312C345.366 345.315 345.365 345.317 345.364 345.322C345.307 345.51 345.108 345.62 344.916 345.567ZM365.136 361.365C364.967 361.47 364.747 361.421 364.639 361.252C364.638 361.25 364.637 361.248 364.635 361.244C364.527 361.081 364.572 360.863 364.734 360.756C364.74 360.752 364.747 360.748 364.754 360.743C364.922 360.638 365.142 360.687 365.25 360.856C365.251 360.857 365.252 360.859 365.255 360.864C365.357 361.036 365.306 361.258 365.136 361.365ZM352.721 371.568C352.53 371.513 352.41 371.32 352.444 371.122C352.499 370.927 352.699 370.809 352.896 370.858C353.086 370.897 353.208 371.083 353.169 371.272C353.168 371.278 353.166 371.285 353.165 371.29C353.121 371.487 352.925 371.612 352.728 371.568C352.727 371.568 352.725 371.568 352.721 371.568ZM354.811 362.972C354.616 362.917 354.499 362.718 354.545 362.522C354.597 362.33 354.793 362.215 354.987 362.263C355.177 362.303 355.299 362.488 355.26 362.676C355.259 362.683 355.257 362.69 355.255 362.698C355.211 362.895 355.015 363.02 354.818 362.976C354.817 362.972 354.816 362.972 354.811 362.972ZM356.902 354.377C356.709 354.325 356.593 354.129 356.644 353.935C356.683 353.745 356.868 353.622 357.057 353.662C357.062 353.663 357.07 353.665 357.079 353.667C357.276 353.711 357.401 353.907 357.357 354.103C357.357 354.106 357.355 354.107 357.356 354.112C357.299 354.306 357.101 354.423 356.902 354.377ZM316.647 375.325C316.473 375.425 316.25 375.364 316.149 375.188C316.049 375.013 316.111 374.791 316.287 374.691C316.456 374.594 316.673 374.65 316.776 374.816C316.881 374.994 316.822 375.22 316.647 375.325ZM324.21 370.73C324.034 370.833 323.807 370.775 323.702 370.6C323.603 370.429 323.656 370.208 323.821 370.099C324 369.998 324.226 370.052 324.339 370.222C324.439 370.399 324.381 370.622 324.21 370.73ZM331.772 366.134C331.596 366.237 331.369 366.18 331.264 366.005C331.16 365.834 331.212 365.609 331.383 365.504C331.553 365.399 331.779 365.451 331.884 365.623C331.989 365.795 331.941 366.02 331.772 366.134ZM339.328 361.527C339.165 361.634 338.947 361.589 338.84 361.427C338.836 361.421 338.832 361.414 338.827 361.408C338.724 361.237 338.777 361.014 338.946 360.907C339.118 360.803 339.342 360.857 339.445 361.03C339.552 361.199 339.498 361.422 339.328 361.527ZM346.891 356.931C346.723 357.036 346.503 356.987 346.395 356.818C346.394 356.817 346.393 356.815 346.39 356.81C346.368 356.776 346.356 356.735 346.358 356.695C346.352 356.684 346.354 356.667 346.338 356.646C346.325 356.511 346.391 356.379 346.51 356.312C346.681 356.208 346.905 356.263 347.01 356.432C347.114 356.602 347.062 356.826 346.891 356.931ZM354.453 352.334C354.388 352.376 354.31 352.391 354.235 352.376C354.213 352.391 354.188 352.377 354.163 352.363C354.076 352.344 354 352.289 353.952 352.214C353.847 352.046 353.896 351.826 354.064 351.718C354.065 351.717 354.067 351.716 354.072 351.713L354.094 351.699C354.193 351.643 354.313 351.64 354.416 351.694C354.481 351.724 354.534 351.772 354.574 351.833C354.679 352.002 354.63 352.222 354.461 352.33C354.459 352.333 354.457 352.333 354.453 352.334ZM327.857 342.76C327.662 342.705 327.545 342.505 327.591 342.309C327.643 342.118 327.839 342.002 328.033 342.051C328.223 342.09 328.345 342.276 328.306 342.465C328.305 342.471 328.303 342.478 328.302 342.484C328.258 342.681 328.062 342.806 327.865 342.762C327.862 342.761 327.86 342.76 327.857 342.76ZM336.701 344.821C336.641 344.855 336.571 344.865 336.504 344.849C336.493 344.855 336.476 344.853 336.457 344.85C336.261 344.81 336.135 344.617 336.176 344.421C336.213 344.246 336.372 344.124 336.55 344.135C336.577 344.128 336.606 344.13 336.632 344.141C336.732 344.167 336.815 344.232 336.864 344.321L336.853 344.328C336.904 344.399 336.92 344.489 336.898 344.573C336.878 344.683 336.805 344.775 336.701 344.821ZM345.058 346.938C344.867 346.899 344.746 346.714 344.785 346.525C344.786 346.519 344.788 346.511 344.79 346.504C344.798 346.465 344.814 346.427 344.836 346.393C344.866 346.338 344.911 346.295 344.968 346.269C345.047 346.222 345.142 346.207 345.234 346.226C345.429 346.281 345.546 346.481 345.499 346.677C345.448 346.874 345.251 346.989 345.058 346.938ZM360.028 358.477C359.829 358.505 359.645 358.371 359.617 358.173C359.578 357.98 359.704 357.791 359.899 357.754C359.903 357.753 359.91 357.752 359.914 357.752C360.114 357.714 360.306 357.849 360.341 358.048C360.342 358.051 360.342 358.057 360.343 358.059C360.369 358.26 360.23 358.447 360.028 358.477ZM337.951 378.424C337.832 378.585 337.605 378.616 337.444 378.498C337.444 378.497 337.443 378.498 337.442 378.496C337.277 378.379 337.238 378.152 337.353 377.985C337.476 377.823 337.706 377.788 337.873 377.905C338.032 378.03 338.066 378.257 337.951 378.424ZM343.177 371.275C343.059 371.438 342.831 371.476 342.667 371.36C342.503 371.242 342.466 371.014 342.582 370.851C342.582 370.85 342.585 370.849 342.585 370.848C342.71 370.687 342.939 370.652 343.105 370.768C343.266 370.887 343.299 371.113 343.179 371.274C343.179 371.271 343.179 371.275 343.177 371.275ZM348.399 364.142C348.273 364.303 348.039 364.33 347.877 364.204C347.723 364.084 347.69 363.862 347.801 363.702C347.924 363.536 348.154 363.502 348.321 363.622C348.486 363.744 348.522 363.978 348.399 364.142ZM353.634 357.003C353.511 357.169 353.281 357.204 353.114 357.083C352.947 356.962 352.913 356.73 353.034 356.564C353.153 356.403 353.379 356.371 353.541 356.49C353.541 356.491 353.542 356.49 353.543 356.491C353.707 356.611 353.747 356.835 353.634 357.003ZM314.64 356.938C314.439 356.965 314.252 356.825 314.221 356.622C314.193 356.424 314.329 356.24 314.526 356.211C314.72 356.173 314.907 356.299 314.946 356.493C314.947 356.498 314.948 356.504 314.948 356.509C314.985 356.709 314.851 356.901 314.652 356.936C314.649 356.936 314.645 356.937 314.64 356.938ZM323.387 355.582C323.185 355.609 322.998 355.468 322.968 355.266C322.94 355.067 323.075 354.883 323.272 354.855C323.466 354.816 323.654 354.943 323.692 355.137C323.693 355.141 323.694 355.148 323.694 355.152C323.731 355.353 323.597 355.544 323.398 355.579C323.395 355.58 323.39 355.581 323.387 355.582ZM332.133 354.225C331.932 354.251 331.745 354.111 331.715 353.909C331.686 353.71 331.823 353.527 332.019 353.497C332.219 353.465 332.409 353.599 332.442 353.8C332.475 354 332.34 354.19 332.14 354.222C332.138 354.225 332.137 354.225 332.133 354.225ZM340.88 352.869C340.678 352.894 340.494 352.755 340.461 352.553C340.433 352.354 340.568 352.17 340.765 352.142C340.961 352.115 341.146 352.245 341.187 352.439C341.221 352.641 341.086 352.833 340.884 352.868C340.883 352.869 340.881 352.87 340.88 352.869ZM349.626 351.515C349.425 351.539 349.241 351.4 349.208 351.199C349.18 351 349.319 350.817 349.515 350.79C349.711 350.763 349.891 350.896 349.924 351.092C349.951 351.288 349.822 351.473 349.626 351.515ZM335.152 339.726C335.013 339.661 334.952 339.494 335.02 339.354C335.086 339.214 335.253 339.154 335.393 339.222C335.532 339.288 335.592 339.454 335.525 339.595C335.457 339.731 335.291 339.79 335.152 339.726ZM341.157 342.613C341.029 342.544 340.973 342.386 341.031 342.252C341.092 342.115 341.255 342.052 341.391 342.113C341.394 342.115 341.399 342.116 341.403 342.12C341.537 342.183 341.594 342.345 341.531 342.479C341.531 342.48 341.531 342.48 341.53 342.481C341.467 342.62 341.302 342.682 341.163 342.617C341.162 342.615 341.16 342.615 341.157 342.613ZM365.422 362.095C365.403 362.071 365.389 362.043 365.382 362.014C365.33 361.876 365.399 361.724 365.538 361.672C365.539 361.671 365.543 361.67 365.547 361.669C365.641 361.63 365.751 361.652 365.819 361.727L365.422 362.095ZM354.977 367.766C354.837 367.699 354.777 367.533 354.846 367.393C354.912 367.254 355.078 367.193 355.217 367.261C355.351 367.324 355.408 367.486 355.345 367.62C355.345 367.621 355.345 367.621 355.344 367.623C355.278 367.76 355.117 367.823 354.977 367.766ZM357.869 361.746C357.734 361.683 357.678 361.521 357.741 361.387C357.741 361.386 357.741 361.386 357.742 361.384C357.805 361.245 357.97 361.183 358.109 361.249C358.11 361.249 358.113 361.25 358.114 361.251C358.246 361.315 358.301 361.477 358.236 361.608C358.235 361.611 358.233 361.618 358.231 361.62C358.172 361.753 358.017 361.813 357.886 361.755C357.881 361.752 357.875 361.749 357.869 361.746ZM327.787 364.872C327.644 364.923 327.485 364.846 327.437 364.701C327.388 364.56 327.46 364.405 327.6 364.352C327.736 364.298 327.889 364.364 327.944 364.5C327.947 364.509 327.949 364.517 327.953 364.526C327.999 364.667 327.927 364.819 327.787 364.872ZM334.076 362.672C333.932 362.721 333.772 362.642 333.722 362.498C333.672 362.352 333.751 362.194 333.896 362.144C334.039 362.093 334.196 362.168 334.246 362.308C334.248 362.311 334.248 362.315 334.249 362.318C334.297 362.464 334.219 362.62 334.076 362.672ZM340.376 360.464C340.232 360.513 340.072 360.434 340.022 360.29C339.972 360.146 340.052 359.986 340.196 359.936C340.34 359.887 340.501 359.965 340.55 360.11C340.596 360.257 340.519 360.412 340.376 360.464ZM346.676 358.256C346.538 358.309 346.386 358.239 346.334 358.101C346.333 358.099 346.332 358.094 346.331 358.091C346.275 357.951 346.345 357.79 346.486 357.736C346.487 357.736 346.487 357.736 346.488 357.735C346.633 357.683 346.795 357.758 346.853 357.903C346.904 358.046 346.829 358.202 346.686 358.251C346.683 358.255 346.679 358.255 346.676 358.256ZM352.976 356.048C352.835 356.098 352.68 356.024 352.63 355.884C352.58 355.744 352.654 355.588 352.795 355.539C352.935 355.49 353.091 355.563 353.14 355.703C353.193 355.841 353.121 355.994 352.985 356.045C352.981 356.045 352.977 356.047 352.976 356.048ZM361.626 365.458C361.652 365.363 361.729 365.292 361.826 365.275C361.762 365.34 361.696 365.4 361.626 365.458ZM362.231 359.156C362.08 359.147 361.964 359.021 361.972 358.871C361.98 358.72 362.107 358.603 362.257 358.612C362.407 358.62 362.524 358.746 362.516 358.897C362.509 359.047 362.382 359.163 362.231 359.156ZM337.836 374.849C337.722 374.948 337.548 374.936 337.448 374.824C337.356 374.706 337.366 374.539 337.474 374.435C337.587 374.334 337.76 374.345 337.861 374.459C337.861 374.46 337.861 374.46 337.863 374.461C337.963 374.567 337.96 374.737 337.852 374.835C337.846 374.84 337.843 374.845 337.836 374.849ZM342.823 370.404C342.707 370.504 342.532 370.495 342.424 370.385C342.323 370.272 342.334 370.099 342.448 369.998C342.449 369.998 342.449 369.998 342.449 369.996C342.555 369.894 342.724 369.897 342.825 370.004C342.828 370.007 342.829 370.009 342.833 370.013C342.939 370.124 342.937 370.296 342.829 370.404C342.826 370.4 342.825 370.403 342.823 370.404ZM347.793 365.954C347.686 366.054 347.517 366.051 347.418 365.943C347.414 365.939 347.409 365.933 347.405 365.929C347.304 365.824 347.305 365.658 347.41 365.556C347.414 365.553 347.415 365.549 347.421 365.546C347.537 365.446 347.712 365.455 347.82 365.565C347.921 365.679 347.91 365.852 347.796 365.952C347.795 365.953 347.794 365.953 347.793 365.954ZM352.769 361.516C352.655 361.617 352.482 361.606 352.381 361.492C352.381 361.491 352.381 361.491 352.379 361.49C352.279 361.385 352.282 361.215 352.39 361.116C352.395 361.112 352.4 361.106 352.405 361.103C352.515 361.001 352.685 361.008 352.787 361.117V361.118C352.887 361.235 352.879 361.409 352.769 361.516ZM357.738 357.067C357.658 357.149 357.529 357.167 357.428 357.11L357.422 357.099C357.395 357.084 357.37 357.062 357.35 357.04C357.25 356.934 357.253 356.764 357.361 356.665C357.365 356.662 357.371 356.656 357.375 356.653C357.488 356.552 357.66 356.561 357.76 356.674C357.761 356.676 357.763 356.676 357.764 356.678C357.818 356.739 357.84 356.821 357.824 356.899C357.813 356.964 357.783 357.022 357.738 357.067ZM329.003 350.904C328.854 350.899 328.737 350.776 328.744 350.627C328.744 350.624 328.744 350.623 328.744 350.618C328.745 350.469 328.869 350.348 329.018 350.351C329.027 350.351 329.032 350.351 329.04 350.351C329.192 350.367 329.304 350.503 329.287 350.656C329.273 350.799 329.148 350.909 329.003 350.904ZM335.661 351.28C335.506 351.266 335.391 351.129 335.405 350.975C335.418 350.827 335.544 350.716 335.69 350.719C335.845 350.728 335.964 350.86 335.957 351.015C335.95 351.17 335.818 351.288 335.661 351.28ZM342.325 351.642C342.177 351.637 342.059 351.514 342.065 351.365C342.065 351.363 342.065 351.361 342.066 351.355C342.077 351.206 342.203 351.092 342.351 351.096C342.503 351.099 342.621 351.223 342.619 351.373C342.619 351.377 342.618 351.385 342.619 351.39C342.609 351.538 342.482 351.648 342.336 351.639C342.331 351.643 342.329 351.642 342.325 351.642ZM348.984 352.019C348.834 352.008 348.72 351.882 348.725 351.734C348.735 351.579 348.866 351.46 349.021 351.468C349.171 351.479 349.284 351.605 349.28 351.753C349.277 351.905 349.153 352.023 349.003 352.021C348.997 352.02 348.991 352.019 348.984 352.019ZM365.409 360.726C365.327 360.704 365.278 360.624 365.296 360.54C365.315 360.463 365.39 360.415 365.469 360.434C365.47 360.434 365.47 360.434 365.472 360.435C365.552 360.446 365.608 360.52 365.597 360.601C365.596 360.605 365.596 360.611 365.595 360.614C365.572 360.695 365.489 360.744 365.409 360.726ZM349.82 366.151C349.75 366.198 349.654 366.18 349.606 366.112C349.558 366.042 349.576 365.946 349.645 365.898C349.715 365.851 349.811 365.868 349.859 365.938C349.861 365.94 349.863 365.946 349.864 365.949C349.904 366.019 349.885 366.106 349.82 366.151ZM352.882 364.195C352.815 364.238 352.726 364.219 352.682 364.153C352.682 364.152 352.681 364.151 352.68 364.15C352.635 364.09 352.649 364.004 352.708 363.959C352.713 363.956 352.721 363.951 352.725 363.948C352.791 363.899 352.882 363.911 352.93 363.977C352.933 363.98 352.933 363.983 352.935 363.987C352.975 364.057 352.952 364.147 352.882 364.195ZM355.958 362.228C355.892 362.277 355.8 362.265 355.753 362.199C355.75 362.196 355.749 362.193 355.746 362.189C355.705 362.116 355.731 362.023 355.802 361.98C355.87 361.938 355.962 361.957 356.004 362.026C356.047 362.095 356.025 362.185 355.958 362.228ZM359.02 360.272C358.953 360.315 358.865 360.296 358.82 360.23C358.82 360.229 358.819 360.228 358.818 360.227C358.779 360.159 358.798 360.071 358.864 360.025C358.931 359.983 359.024 360.002 359.066 360.071C359.11 360.137 359.089 360.226 359.02 360.272ZM362.101 358.317C362.026 358.36 361.931 358.34 361.882 358.267C361.843 358.199 361.862 358.111 361.928 358.065C361.997 358.017 362.093 358.034 362.142 358.102C362.19 358.169 362.173 358.266 362.105 358.315C362.104 358.315 362.102 358.315 362.101 358.317ZM347.02 351.081C346.943 351.069 346.89 350.995 346.903 350.917C346.903 350.917 346.903 350.917 346.904 350.915C346.917 350.833 346.992 350.777 347.074 350.789C347.155 350.802 347.211 350.877 347.199 350.959C347.198 350.965 347.197 350.97 347.196 350.975C347.177 351.052 347.102 351.1 347.023 351.081C347.022 351.082 347.021 351.083 347.02 351.081ZM350.57 351.869C350.493 351.851 350.445 351.775 350.464 351.696C350.464 351.695 350.464 351.695 350.465 351.693C350.478 351.612 350.553 351.556 350.635 351.568C350.716 351.58 350.772 351.656 350.76 351.737C350.759 351.744 350.757 351.749 350.756 351.755C350.741 351.834 350.663 351.886 350.583 351.871C350.578 351.873 350.573 351.872 350.57 351.869ZM354.13 352.651C354.053 352.633 354.004 352.554 354.024 352.478C354.024 352.477 354.024 352.477 354.024 352.475C354.036 352.408 354.097 352.361 354.163 352.363C354.174 352.356 354.185 352.348 354.191 352.359C354.208 352.363 354.216 352.372 354.233 352.376C354.296 352.402 354.331 352.471 354.314 352.537C354.298 352.616 354.22 352.669 354.141 352.652C354.138 352.652 354.134 352.652 354.13 352.651ZM358.612 367.242C358.563 367.308 358.472 367.323 358.404 367.277C358.336 367.225 358.318 367.132 358.362 367.059C358.41 366.993 358.502 366.977 358.57 367.024C358.636 367.074 358.653 367.169 358.612 367.242ZM360.699 364.253C360.651 364.319 360.559 364.335 360.491 364.288C360.42 364.245 360.398 364.154 360.44 364.083C360.443 364.079 360.445 364.074 360.45 364.07C360.499 364.004 360.59 363.989 360.658 364.035C360.724 364.087 360.742 364.18 360.699 364.253ZM362.778 361.27C362.73 361.336 362.638 361.352 362.57 361.305C362.503 361.253 362.486 361.161 362.528 361.087C362.577 361.021 362.668 361.006 362.736 361.053C362.807 361.092 362.831 361.182 362.791 361.252C362.788 361.259 362.784 361.266 362.778 361.27ZM348.821 358.603C348.742 358.62 348.666 358.569 348.65 358.489C348.635 358.405 348.689 358.326 348.774 358.311C348.774 358.311 348.774 358.311 348.775 358.311C348.851 358.295 348.929 358.343 348.947 358.421C348.947 358.422 348.947 358.424 348.948 358.426C348.959 358.507 348.905 358.588 348.821 358.603ZM352.412 357.969C352.328 357.984 352.249 357.929 352.234 357.844V357.843C352.218 357.759 352.273 357.68 352.357 357.665C352.442 357.649 352.52 357.704 352.537 357.788V357.789C352.551 357.875 352.496 357.955 352.412 357.969ZM356.002 357.336C355.917 357.351 355.839 357.295 355.823 357.21C355.808 357.126 355.864 357.047 355.948 357.033C356.032 357.017 356.111 357.072 356.128 357.157C356.144 357.242 356.089 357.32 356.003 357.338C356.003 357.336 356.003 357.335 356.002 357.336ZM359.585 356.691C359.501 356.707 359.422 356.652 359.407 356.567V356.566C359.396 356.484 359.453 356.409 359.534 356.398C359.535 356.398 359.537 356.398 359.539 356.397C359.608 356.381 359.681 356.425 359.696 356.497C359.698 356.505 359.699 356.512 359.699 356.521C359.719 356.594 359.676 356.669 359.605 356.689C359.598 356.689 359.592 356.69 359.585 356.691ZM342.599 366.981C342.462 367.001 342.338 366.909 342.316 366.774C342.288 366.65 342.367 366.529 342.489 366.503C342.498 366.502 342.504 366.5 342.514 366.5C342.638 366.47 342.765 366.547 342.796 366.67C342.798 366.677 342.798 366.683 342.799 366.69C342.829 366.82 342.747 366.95 342.616 366.979C342.61 366.98 342.605 366.981 342.599 366.981ZM348.537 365.89C348.413 365.92 348.285 365.843 348.255 365.72C348.253 365.713 348.253 365.707 348.252 365.701C348.222 365.57 348.304 365.44 348.435 365.411C348.439 365.41 348.447 365.408 348.451 365.408C348.588 365.383 348.718 365.472 348.745 365.608C348.769 365.738 348.683 365.864 348.552 365.887C348.547 365.889 348.544 365.889 348.537 365.89ZM354.474 364.816C354.337 364.839 354.208 364.75 354.18 364.616C354.152 364.484 354.239 364.352 354.37 364.325C354.373 364.325 354.376 364.323 354.381 364.324C354.517 364.298 354.647 364.388 354.675 364.524C354.695 364.657 354.608 364.787 354.474 364.816ZM360.402 363.731C360.268 363.746 360.142 363.661 360.108 363.531C360.088 363.395 360.175 363.268 360.308 363.238C360.44 363.21 360.573 363.296 360.599 363.428C360.599 363.431 360.601 363.435 360.6 363.437C360.627 363.573 360.538 363.706 360.402 363.731ZM345.816 354.791C345.683 354.765 345.596 354.636 345.621 354.502C345.622 354.499 345.622 354.493 345.623 354.489C345.654 354.357 345.79 354.274 345.922 354.306C346.048 354.336 346.129 354.459 346.109 354.587C346.084 354.723 345.954 354.814 345.816 354.791ZM351.899 356.016C351.844 356.054 351.774 356.068 351.708 356.055C351.573 356.022 351.489 355.889 351.515 355.753C351.532 355.696 351.567 355.643 351.616 355.606C351.627 355.599 351.627 355.599 351.643 355.602C351.692 355.564 351.755 355.548 351.816 355.561C351.951 355.594 352.035 355.727 352.009 355.862C351.989 355.925 351.95 355.977 351.899 356.016ZM357.608 357.329C357.505 357.305 357.431 357.217 357.428 357.112L357.422 357.101C357.411 357.078 357.41 357.052 357.418 357.027C357.444 356.894 357.574 356.807 357.709 356.832C357.712 356.833 357.718 356.833 357.721 356.835C357.843 356.875 357.921 356.997 357.907 357.125C357.875 357.26 357.744 357.351 357.608 357.329ZM363.5 358.591C363.362 358.561 363.278 358.427 363.307 358.289C363.336 358.152 363.471 358.069 363.608 358.097C363.745 358.125 363.83 358.261 363.801 358.398C363.768 358.532 363.634 358.616 363.5 358.591Z" fill="white"/>
<path d="M533.791 250.372C543.861 256.394 555.69 260.297 567.352 261.444C556.633 270.213 547.162 279.945 539.104 290.47C528.086 287.443 517.669 284.432 507.793 281.531C513.188 277.986 518.848 271.323 521.233 267.987C526.696 260.343 528.328 258.016 533.791 250.372Z" fill="url(#paint8_linear)"/>
<path d="M593.988 162.897C594.584 162.443 618.658 172.006 630.338 177.211C618.332 181.387 612.191 191.6 609.918 204.106C596.969 203.608 583.071 203.426 570.74 203.262C570.995 193.625 574.299 184.091 580.06 176.36C583.931 171.165 588.834 166.823 593.988 162.897Z" fill="url(#paint9_linear)"/>
<path d="M598.573 1.75861C598.573 1.75861 578.697 14.8009 569.478 20.9822C580.485 22.2407 590.322 29.3747 594.29 38.9751C605.411 35.8925 616.568 32.9464 626.947 30.4183C625.178 22.7607 620.802 15.7133 614.599 10.5325C610.431 7.05021 598.573 1.75861 598.573 1.75861Z" fill="url(#paint10_linear)"/>
<path d="M635.797 76.413C635.797 76.413 649.146 98.821 654.477 108.573C639.965 110.805 625.799 115.263 612.624 121.742C614.505 111.135 603.13 84.2554 599.654 83.365C610.744 81.0731 635.797 76.413 635.797 76.413Z" fill="url(#paint11_linear)"/>
</g>
<defs>
<linearGradient id="paint0_linear" x1="527.67" y1="291.217" x2="457.06" y2="291.217" gradientUnits="userSpaceOnUse">
<stop stop-color="#009BA2"/>
<stop offset="1" stop-color="#1479F2"/>
</linearGradient>
<linearGradient id="paint1_linear" x1="404.705" y1="291.159" x2="333.263" y2="291.159" gradientUnits="userSpaceOnUse">
<stop stop-color="#009BA2"/>
<stop offset="1" stop-color="#1479F2"/>
</linearGradient>
<linearGradient id="paint2_linear" x1="299.091" y1="360.907" x2="567.958" y2="360.907" gradientUnits="userSpaceOnUse">
<stop stop-color="#28306D"/>
<stop offset="0.51" stop-color="#1F275F"/>
<stop offset="1" stop-color="#171F51"/>
</linearGradient>
<linearGradient id="paint3_linear" x1="449.649" y1="495.458" x2="520.469" y2="336.007" gradientUnits="userSpaceOnUse">
<stop stop-color="#DF457A"/>
<stop offset="1" stop-color="#D89C05"/>
</linearGradient>
<linearGradient id="paint4_linear" x1="421.683" y1="208.787" x2="437.577" y2="215.282" gradientUnits="userSpaceOnUse">
<stop stop-color="#FFBEB6"/>
<stop offset="1" stop-color="#F2A19C"/>
</linearGradient>
<linearGradient id="paint5_linear" x1="424.589" y1="167.122" x2="431.53" y2="167.122" gradientUnits="userSpaceOnUse">
<stop stop-color="#FFBEB6"/>
<stop offset="1" stop-color="#F2A19C"/>
</linearGradient>
<linearGradient id="paint6_linear" x1="490.439" y1="294.098" x2="373.642" y2="294.098" gradientUnits="userSpaceOnUse">
<stop stop-color="#009BA2"/>
<stop offset="1" stop-color="#1479F2"/>
</linearGradient>
<linearGradient id="paint7_linear" x1="401.227" y1="513.637" x2="471.927" y2="355.557" gradientUnits="userSpaceOnUse">
<stop stop-color="#DF457A"/>
<stop offset="1" stop-color="#D89C05"/>
</linearGradient>
<linearGradient id="paint8_linear" x1="514.014" y1="263.634" x2="561.59" y2="279.493" gradientUnits="userSpaceOnUse">
<stop stop-color="#EEEEEE"/>
<stop offset="1" stop-color="#D6D7D8"/>
</linearGradient>
<linearGradient id="paint9_linear" x1="570.741" y1="183.494" x2="630.337" y2="183.494" gradientUnits="userSpaceOnUse">
<stop stop-color="#EEEEEE"/>
<stop offset="1" stop-color="#D6D7D8"/>
</linearGradient>
<linearGradient id="paint10_linear" x1="623.771" y1="14.8768" x2="570.343" y2="25.5931" gradientUnits="userSpaceOnUse">
<stop stop-color="#EEEEEE"/>
<stop offset="1" stop-color="#D6D7D8"/>
</linearGradient>
<linearGradient id="paint11_linear" x1="599.654" y1="99.0777" x2="654.477" y2="99.0777" gradientUnits="userSpaceOnUse">
<stop stop-color="#EEEEEE"/>
<stop offset="1" stop-color="#D6D7D8"/>
</linearGradient>
<clipPath id="clip0">
<rect width="916" height="610.667" fill="white"/>
</clipPath>
</defs>
</svg>
