<svg width="626" height="208" viewBox="0 0 626 208" fill="none" xmlns="http://www.w3.org/2000/svg">
<g clip-path="url(#clip0)">
<path fill-rule="evenodd" clip-rule="evenodd" d="M456.814 205.297C456.814 206.23 457.561 207.069 458.587 207.069H493.69C494.716 207.069 495.463 206.229 495.463 205.297V195.12C495.463 194.186 494.716 193.346 493.69 193.346H471.471V143.495C471.471 142.562 470.63 141.722 469.697 141.722H458.588C457.562 141.722 456.815 142.562 456.815 143.495V205.297H456.814Z" fill="#DF457A"/>
<path fill-rule="evenodd" clip-rule="evenodd" d="M345.113 205.438C345.113 206.375 345.862 207.218 346.892 207.218H357.949C358.885 207.218 359.728 206.374 359.728 205.438V183.423H369.564C380.992 183.423 390.455 173.961 390.455 162.345C390.455 151.009 380.992 141.642 369.47 141.642H346.893C345.863 141.642 345.114 142.485 345.114 143.422V205.438H345.113ZM359.729 169.746V155.413H368.628C372.656 155.413 376.028 158.41 376.028 162.345C376.028 166.56 372.656 169.746 368.628 169.746H359.729Z" fill="#DF457A"/>
<path fill-rule="evenodd" clip-rule="evenodd" d="M387.216 207.218H397.521C399.395 207.218 400.425 206.095 400.893 204.97L404.267 197.475H429.746L433.119 204.876C433.961 206.656 434.712 207.218 436.397 207.218H446.796C448.2 207.218 448.949 205.999 448.388 204.782L419.066 141.734C418.787 141.172 418.13 140.703 417.474 140.703H416.537C415.881 140.703 415.225 141.172 414.944 141.734L385.622 204.782C385.062 205.999 385.811 207.218 387.216 207.218ZM409.887 184.735L416.912 169.278H417.006L424.125 184.735H409.887Z" fill="#DF457A"/>
<path fill-rule="evenodd" clip-rule="evenodd" d="M266.267 174.543C266.267 193.321 281.196 208.25 299.975 208.25C318.754 208.25 333.778 193.321 333.778 174.543C333.778 155.764 318.755 140.646 299.975 140.646C281.196 140.646 266.267 155.764 266.267 174.543ZM281.29 174.543C281.29 164.214 289.74 155.669 299.975 155.669C310.303 155.669 318.754 164.214 318.754 174.543C318.754 184.776 310.303 193.229 299.975 193.229C289.74 193.229 281.29 184.777 281.29 174.543Z" fill="#009BA2"/>
<path fill-rule="evenodd" clip-rule="evenodd" d="M0 174.543C0 193.321 15.116 208.25 33.896 208.25C42.253 208.25 50.328 205.341 56.714 199.143C57.37 198.487 57.464 197.266 56.807 196.608L49.483 188.815C48.92 188.158 47.699 188.158 47.042 188.721C43.662 191.631 38.874 193.229 34.46 193.229C23.851 193.229 15.963 184.589 15.963 174.167C15.963 163.651 23.756 154.823 34.366 154.823C38.967 154.823 43.567 156.514 47.041 159.613C47.699 160.269 48.732 160.269 49.39 159.613L56.714 152.007C57.464 151.257 57.464 150.131 56.619 149.378C50.235 143.557 43.286 140.646 33.896 140.646C15.116 140.646 0 155.764 0 174.543Z" fill="#009BA2"/>
<path fill-rule="evenodd" clip-rule="evenodd" d="M64.198 207.312H74.527C76.405 207.312 77.438 206.186 77.906 205.059L81.287 197.547H106.826L110.207 204.965C111.051 206.749 111.803 207.312 113.492 207.312H123.915C125.323 207.312 126.074 206.091 125.511 204.871L96.121 141.68C95.84 141.117 95.183 140.647 94.525 140.647H93.587C92.929 140.647 92.272 141.117 91.991 141.68L62.601 204.871C62.039 206.091 62.789 207.312 64.198 207.312ZM86.921 184.777L93.963 169.286H94.056L101.193 184.777H86.921Z" fill="#009BA2"/>
<path fill-rule="evenodd" clip-rule="evenodd" d="M133.21 205.529C133.21 206.467 134.055 207.312 134.994 207.312H146.168C147.201 207.312 147.952 206.467 147.952 205.529V170.506H148.047L185.136 207.783C185.324 207.971 186.074 208.251 186.355 208.251H187.858C188.796 208.251 189.642 207.501 189.642 206.563V143.371C189.642 142.433 188.797 141.587 187.858 141.587H176.591C175.558 141.587 174.807 142.432 174.807 143.371V176.703H174.712L137.248 140.647H134.901C133.962 140.647 133.117 141.399 133.117 142.337L133.21 205.529Z" fill="#009BA2"/>
<path fill-rule="evenodd" clip-rule="evenodd" d="M199.061 174.543C199.061 193.321 214.085 208.157 232.77 208.157C246.384 208.157 256.056 202.054 256.056 202.054C256.431 201.771 256.807 201.021 256.807 200.55L256.712 175.293C256.712 174.355 255.962 173.509 255.023 173.509H236.149C235.116 173.509 234.365 174.26 234.365 175.293V184.588C234.365 185.528 235.115 186.278 236.149 186.278H242.065V191.724C239.249 192.85 236.432 193.227 233.708 193.227C223.474 193.227 215.117 184.775 215.117 174.541C215.117 164.212 223.38 155.574 233.615 155.574C238.216 155.574 242.346 156.795 245.915 160.08C246.665 160.644 247.699 160.644 248.45 159.987L255.868 152.099C256.618 151.349 256.524 150.221 255.68 149.563C249.295 144.024 240.657 140.738 232.769 140.738C214.085 140.741 199.061 155.764 199.061 174.543Z" fill="#009BA2"/>
<path fill-rule="evenodd" clip-rule="evenodd" d="M490.855 70.3001C489.182 70.3001 487.651 69.1251 487.198 67.5901L479.474 38.7351H476.682C475.082 38.7351 473.691 37.4601 473.691 35.8611V30.0841C473.691 28.4851 474.988 27.2101 476.587 27.2101H486.733C486.186 28.1971 486.012 29.3561 486.012 30.5641C486.012 34.3671 489.094 37.4501 492.899 37.4501C495.352 37.4501 497.553 36.1671 498.772 34.2361L502.734 27.1201H526.422L530.313 34.1521C531.523 36.1301 533.703 37.4501 536.192 37.4501C539.996 37.4501 543.079 34.3671 543.079 30.5641C543.079 29.3551 542.985 28.1971 542.438 27.2101H552.503C554.103 27.2101 555.399 28.4851 555.399 30.0841V35.8611C555.399 37.4601 554.006 38.7351 552.408 38.7351H549.616L541.891 67.5901C541.438 69.1251 539.907 70.3001 538.234 70.3001H490.855ZM537.09 45.6771C538.69 45.6771 539.986 46.9731 539.986 48.5731C539.986 50.1731 538.69 51.4691 537.069 51.4691H492.02C490.4 51.4691 489.104 50.1731 489.104 48.5731C489.104 46.9741 490.4 45.6771 491.999 45.6771H537.09ZM533.967 57.4481C535.567 57.4481 536.863 58.7441 536.863 60.3441C536.863 61.9441 535.567 63.2401 533.946 63.2401H495.143C493.523 63.2401 492.227 61.9441 492.227 60.3441C492.227 58.7441 493.523 57.4481 495.122 57.4481H533.967ZM538.71 29.1481C539.521 30.5511 539.046 32.3221 537.66 33.1221C536.275 33.9211 534.505 33.4471 533.705 32.0621L517.769 4.34614C516.969 2.96114 517.443 1.18813 518.828 0.388129C520.213 -0.410871 521.984 0.0631417 522.783 1.44814L538.71 29.1481ZM490.378 29.1481C489.568 30.5511 490.042 32.3221 491.428 33.1221C492.813 33.9211 494.583 33.4471 495.383 32.0621L511.319 4.50614C512.119 3.12114 511.645 1.34813 510.26 0.548133C508.875 -0.250867 507.104 0.22313 506.305 1.60813L490.378 29.1481Z" fill="#DF457A"/>
<path fill-rule="evenodd" clip-rule="evenodd" d="M596.124 158.469C600.374 158.469 604.205 160.276 606.914 163.131C608.405 164.69 609.859 166.29 611.275 167.959C611.668 168.402 611.884 168.894 611.884 169.532C611.884 170.92 610.759 172.044 609.372 172.044C609.032 172.044 608.686 171.961 608.391 171.839C604.144 170.457 599.738 169.44 595.167 168.921C581.743 167.556 569.013 164.161 557.09 159.07C553.968 157.749 550.971 156.344 547.975 154.783C547.515 154.562 547.107 154.183 546.854 153.741C537.235 137.841 520.832 126.421 501.717 123.473C492.674 121.977 483.995 119.638 475.867 116.028C464.97 111.197 452.898 108.211 440.449 107.271C423.083 105.895 406.765 100.507 392.718 91.8381C379.177 83.7111 369.347 70.1481 366.486 54.0271C372.46 66.1461 382.682 75.7961 395.238 80.9691C407.752 86.0901 421.406 88.9171 435.761 88.9171C453.474 88.9171 470.214 84.6061 484.935 76.9981C493.649 72.7691 503.351 70.2361 513.687 70.2361C530.459 70.2361 545.73 76.5261 557.387 86.8161C558.21 87.5411 559.265 88.0251 560.408 88.1581C564.915 88.7321 569.282 90.1731 573.081 92.2971C573.435 92.5311 573.882 92.5741 574.339 92.5741C575.576 92.5741 576.579 91.5711 576.579 90.3331C576.579 90.1021 576.575 89.8781 576.511 89.6691C576.24 88.7331 576.07 87.7471 576.07 86.7241C576.07 85.2941 576.36 83.8701 576.875 82.6261C576.91 82.5501 576.95 82.4761 576.95 82.3871C576.95 82.0551 576.681 81.7861 576.349 81.7861C576.291 81.7861 576.223 81.7991 576.17 81.8141C575.589 81.9131 574.977 81.9651 574.368 81.9651C571.696 81.9651 569.198 80.9771 567.339 79.3411C564.194 76.4641 561.935 72.7311 560.878 68.4601C564.468 68.1361 568.089 67.9711 571.763 67.9711C577.488 67.9711 583.096 68.3691 588.608 69.1461C589.238 69.2211 589.798 69.4751 590.266 69.8571C590.762 70.3121 591.499 70.6771 592.2 70.7601C597.111 71.3571 601.889 72.2251 606.599 73.3981C607.425 73.5841 608.153 74.0851 608.611 74.7661C609.023 75.3661 609.614 75.7891 610.32 76.0121C615.609 77.6621 620.742 79.6851 625.687 82.0201C625.999 82.1601 626.203 82.4741 626.203 82.8381C626.203 82.9471 626.183 83.0511 626.148 83.1481C623.776 88.1951 619.613 92.2731 614.402 94.3361C612.514 92.5651 609.975 91.4811 607.182 91.4811C605.734 91.4811 604.386 91.7121 603.129 92.2401C603.343 93.1621 603.441 94.1231 603.441 95.1101C603.441 98.1221 602.389 100.888 600.632 103.062C594.536 110.797 585.182 115.998 574.695 116.46C577.126 116.46 579.082 118.431 579.082 120.862C579.082 121.483 578.953 122.074 578.722 122.61C577.449 125.591 575.924 128.491 574.243 131.229C573.464 132.464 572.071 133.284 570.503 133.284C569.926 133.284 569.375 133.173 568.87 132.972C566.511 131.971 564.167 130.81 561.958 129.553C560.879 128.943 560.069 127.746 560.069 126.417C560.069 124.454 561.66 122.862 563.624 122.862C563.927 122.862 564.22 122.9 564.501 122.971C560.213 121.913 556.176 120.017 552.661 117.526C551.222 116.443 549.428 115.806 547.487 115.806C542.728 115.806 538.872 119.663 538.872 124.422C538.872 126.125 539.295 127.784 540.147 129.121C551.57 146.791 571.444 158.486 594.051 158.486C594.735 158.485 595.445 158.491 596.124 158.469ZM602.436 79.5721C602.436 78.6691 603.168 77.9371 604.071 77.9371C604.975 77.9371 605.707 78.6691 605.707 79.5721C605.707 80.4751 604.976 81.2081 604.071 81.2081C603.168 81.2071 602.436 80.4751 602.436 79.5721Z" fill="#009BA2"/>
</g>
<defs>
<clipPath id="clip0">
<rect width="626" height="208" fill="white"/>
</clipPath>
</defs>
</svg>
